M48
; DRILL file {KiCad 7.0.10} date Thu Feb 29 16:26:44 2024
; FORMAT={-:-/ absolute / inch / decimal}
; #@! TF.CreationDate,2024-02-29T16:26:44-05:00
; #@! TF.GenerationSoftware,Kicad,Pcbnew,7.0.10
; #@! TF.FileFunction,Plated,1,2,PTH
FMAT,2
INCH
; #@! TA.AperFunction,Plated,PTH,ViaDrill
T1C0.0118
; #@! TA.AperFunction,Plated,PTH,ViaDrill
T2C0.0197
; #@! TA.AperFunction,Plated,PTH,ComponentDrill
T3C0.0315
; #@! TA.AperFunction,Plated,PTH,ComponentDrill
T4C0.0394
; #@! TA.AperFunction,Plated,PTH,ComponentDrill
T5C0.0433
; #@! TA.AperFunction,Plated,PTH,ComponentDrill
T6C0.0492
; #@! TA.AperFunction,Plated,PTH,ComponentDrill
T7C0.0512
; #@! TA.AperFunction,Plated,PTH,ComponentDrill
T8C0.0752
; #@! TA.AperFunction,Plated,PTH,ComponentDrill
T9C0.0787
%
G90
G05
T1
X6.3421Y-1.8409
X6.7686Y-1.7559
X6.9213Y-3.3622
X6.9574Y-2.1409
X6.9904Y-2.0233
X7.0394Y-3.4567
T2
X4.6457Y-1.3386
X5.4409Y-3.2283
X5.793Y-2.3767
X6.5139Y-2.1013
X7.3314Y-2.6161
X8.0112Y-2.5498
T3
X2.3374Y-4.3874
X2.3374Y-4.5744
X2.9374Y-4.3874
X2.9374Y-4.5744
X3.8165Y-4.124
X3.8165Y-4.2913
X4.1165Y-4.124
X4.1165Y-4.2913
X5.2756Y-2.9906
X5.2756Y-3.0906
X5.2756Y-3.1906
X5.7067Y-2.6444
X5.7067Y-2.8281
X5.7067Y-3.0118
X5.7067Y-3.1955
X5.7067Y-3.3793
X5.7067Y-3.563
X5.7079Y-2.4606
X6.3067Y-2.6444
X6.3067Y-2.8281
X6.3067Y-3.0118
X6.3067Y-3.1955
X6.3067Y-3.3793
X6.3067Y-3.563
X6.3079Y-2.4606
X6.4317Y-4.4776
X6.5301Y-4.4776
X6.6276Y-1.1961
X6.6276Y-1.2961
X6.6276Y-1.3961
X6.6276Y-1.4961
X6.6276Y-1.5961
X6.6276Y-1.6961
X6.6276Y-1.7961
X6.6276Y-1.8961
X6.6276Y-1.9961
X6.6276Y-2.0961
X6.6276Y-2.1961
X6.6276Y-2.2961
X6.6276Y-2.3961
X6.6276Y-2.4961
X6.8317Y-3.1693
X6.8317Y-3.2693
X6.8317Y-3.3693
X6.8317Y-3.4693
X6.8317Y-3.5693
X6.8317Y-3.6693
X6.8317Y-3.7693
X7.1317Y-3.1693
X7.1317Y-3.2693
X7.1317Y-3.3693
X7.1317Y-3.4693
X7.1317Y-3.5693
X7.1317Y-3.6693
X7.1317Y-3.7693
X7.2276Y-1.1961
X7.2276Y-1.2961
X7.2276Y-1.3961
X7.2276Y-1.4961
X7.2276Y-1.5961
X7.2276Y-1.6961
X7.2276Y-1.7961
X7.2276Y-1.8961
X7.2276Y-1.9961
X7.2276Y-2.0961
X7.2276Y-2.1961
X7.2276Y-2.2961
X7.2276Y-2.3961
X7.2276Y-2.4961
X7.4803Y-3.1693
X7.4803Y-3.2693
X7.4803Y-3.3693
X7.4803Y-3.4693
X7.4803Y-3.5693
X7.4803Y-3.6693
X7.4803Y-3.7693
X7.6713Y-4.1161
X7.6713Y-4.3091
X7.7803Y-3.1693
X7.7803Y-3.2693
X7.7803Y-3.3693
X7.7803Y-3.4693
X7.7803Y-3.5693
X7.7803Y-3.6693
X7.7803Y-3.7693
X8.2174Y-3.1335
X8.2174Y-3.3181
X8.2174Y-3.5028
X8.2174Y-3.6874
X8.8174Y-3.1335
X8.8174Y-3.3181
X8.8174Y-3.5028
X8.8174Y-3.6874
X8.9913Y-3.5028
X8.9913Y-3.6874
X9.1339Y-3.0496
X9.1339Y-3.1496
X9.1339Y-3.2496
X9.5913Y-3.5028
X9.5913Y-3.6874
T4
X1.0374Y-1.9174
X1.0374Y-2.0174
X1.8898Y-5.1374
X2.185Y-5.1374
X7.5591Y-4.652
X7.5591Y-4.9472
X7.8094Y-4.6539
X7.8094Y-4.9492
X8.3698Y-2.9134
X8.4055Y-5.2756
X8.665Y-2.9134
X8.7008Y-5.2756
X9.4291Y-3.0407
X9.4291Y-3.1407
T5
X1.0374Y-1.1614
X4.6843Y-2.045
X4.7843Y-2.045
X4.8843Y-2.045
X9.2094Y-1.6831
X9.6063Y-1.1614
X9.6094Y-1.6831
T8
X4.6189Y-3.8878
X4.6189Y-4.228
X4.7736Y-4.9508
X4.7736Y-5.2909
X4.9307Y-3.8878
X4.9307Y-4.228
X5.0854Y-4.9508
X5.0854Y-5.2909
X5.2425Y-3.8878
X5.2425Y-4.228
X5.3972Y-4.9508
X5.3972Y-5.2909
X5.5543Y-3.8878
X5.5543Y-4.228
X5.7091Y-4.9508
X5.7091Y-5.2909
X5.8661Y-3.8878
X5.8661Y-4.228
T4
G00X1.5317Y-4.0195
M15
G01X1.5595Y-4.0473
M16
G05
G00X1.7127Y-4.2004
M15
G01X1.7405Y-4.2283
M16
G05
G00X1.8936Y-4.3814
M15
G01X1.9215Y-4.4092
M16
G05
G00X3.4536Y-4.626
M15
G01X3.4536Y-4.7047
M16
G05
G00X3.5936Y-4.626
M15
G01X3.5936Y-4.7047
M16
G05
G00X4.8346Y-3.1943
M15
G01X4.7756Y-3.1943
M16
G05
G00X4.8428Y-2.6431
M15
G01X4.7837Y-2.6431
M16
G05
G00X8.6286Y-4.4092
M15
G01X8.6564Y-4.3814
M16
G05
G00X8.8095Y-4.2283
M15
G01X8.8374Y-4.2004
M16
G05
G00X8.9905Y-4.0473
M15
G01X9.0183Y-4.0195
M16
G05
G00X9.0177Y-1.0335
M15
G01X9.0177Y-1.1122
M16
G05
G00X9.2421Y-0.9547
M15
G01X9.1634Y-0.9547
M16
G05
G00X9.2421Y-1.1909
M15
G01X9.1634Y-1.1909
M16
G05
T6
G00X7.0118Y-4.6417
M15
G01X7.0118Y-4.6614
M16
G05
G00X7.1457Y-4.3228
M15
G01X7.1457Y-4.3425
M16
G05
G00X7.1457Y-4.6417
M15
G01X7.1457Y-4.6614
M16
G05
G00X7.1457Y-4.9606
M15
G01X7.1457Y-4.9803
M16
G05
T7
G00X4.6279Y-3.2179
M15
G01X4.6279Y-3.1706
M16
G05
G00X4.6361Y-2.6667
M15
G01X4.6361Y-2.6194
M16
G05
T9
G00X0.9461Y-4.3584
M15
G01X0.8626Y-4.4419
M16
G05
G00X1.5825Y-4.9948
M15
G01X1.499Y-5.0783
M16
G05
G00X8.9675Y-4.9948
M15
G01X9.051Y-5.0783
M16
G05
G00X9.6039Y-4.3584
M15
G01X9.6874Y-4.4419
M16
G05
M30
