%TF.GenerationSoftware,KiCad,Pcbnew,7.0.10*%
%TF.CreationDate,2024-02-29T16:26:42-05:00*%
%TF.ProjectId,Telstar Alpha,54656c73-7461-4722-9041-6c7068612e6b,0.1*%
%TF.SameCoordinates,Original*%
%TF.FileFunction,Profile,NP*%
%FSLAX46Y46*%
G04 Gerber Fmt 4.6, Leading zero omitted, Abs format (unit mm)*
G04 Created by KiCad (PCBNEW 7.0.10) date 2024-02-29 16:26:42*
%MOMM*%
%LPD*%
G01*
G04 APERTURE LIST*
%TA.AperFunction,Profile*%
%ADD10C,0.200000*%
%TD*%
%TA.AperFunction,Profile*%
%ADD11C,0.100000*%
%TD*%
%TA.AperFunction,Profile*%
%ADD12C,0.010000*%
%TD*%
G04 APERTURE END LIST*
D10*
X39050000Y-87310000D02*
G75*
G03*
X45400000Y-93660000I6350000J0D01*
G01*
X209000000Y-127500000D02*
G75*
G03*
X202000000Y-127500000I-3500000J0D01*
G01*
X202000000Y-127500000D02*
G75*
G03*
X209000000Y-127500000I3500000J0D01*
G01*
D11*
X90104000Y-87310000D02*
X90053200Y-69123600D01*
X20000000Y-20000000D02*
X55000000Y-20000000D01*
X20000000Y-141000000D02*
X20000000Y-20000000D01*
X75000000Y-20000000D02*
X248000000Y-20000000D01*
X90053200Y-69123600D02*
X38999200Y-69123600D01*
X89486214Y-33462000D02*
G75*
G03*
X86657786Y-33462000I-1414214J0D01*
G01*
X86657786Y-33462000D02*
G75*
G03*
X89486214Y-33462000I1414214J0D01*
G01*
D10*
X230000000Y-51500000D02*
G75*
G03*
X204000000Y-51500000I-13000000J0D01*
G01*
X204000000Y-51500000D02*
G75*
G03*
X230000000Y-51500000I13000000J0D01*
G01*
D11*
X45400000Y-93660000D02*
X83754000Y-93660000D01*
X248000000Y-141000000D02*
X20000000Y-141000000D01*
D10*
X226000000Y-25250000D02*
G75*
G03*
X223000000Y-25250000I-1500000J0D01*
G01*
X223000000Y-25250000D02*
G75*
G03*
X226000000Y-25250000I1500000J0D01*
G01*
D11*
X75000000Y-40000000D02*
X75000000Y-20000000D01*
X248000000Y-20000000D02*
X248000000Y-141000000D01*
D10*
X83754000Y-93660000D02*
G75*
G03*
X90104000Y-87310000I0J6350000D01*
G01*
D11*
X42414214Y-33500000D02*
G75*
G03*
X39585786Y-33500000I-1414214J0D01*
G01*
X39585786Y-33500000D02*
G75*
G03*
X42414214Y-33500000I1414214J0D01*
G01*
D10*
X66500000Y-127500000D02*
G75*
G03*
X59500000Y-127500000I-3500000J0D01*
G01*
X59500000Y-127500000D02*
G75*
G03*
X66500000Y-127500000I3500000J0D01*
G01*
X242750000Y-25250000D02*
G75*
G03*
X239750000Y-25250000I-1500000J0D01*
G01*
X239750000Y-25250000D02*
G75*
G03*
X242750000Y-25250000I1500000J0D01*
G01*
X137500000Y-51500000D02*
G75*
G03*
X130500000Y-51500000I-3500000J0D01*
G01*
X130500000Y-51500000D02*
G75*
G03*
X137500000Y-51500000I3500000J0D01*
G01*
D11*
X55000000Y-20000000D02*
X55000000Y-40000000D01*
X55000000Y-40000000D02*
X75000000Y-40000000D01*
X89414214Y-55052000D02*
G75*
G03*
X86585786Y-55052000I-1414214J0D01*
G01*
X86585786Y-55052000D02*
G75*
G03*
X89414214Y-55052000I1414214J0D01*
G01*
X42496214Y-55560000D02*
G75*
G03*
X39667786Y-55560000I-1414214J0D01*
G01*
X39667786Y-55560000D02*
G75*
G03*
X42496214Y-55560000I1414214J0D01*
G01*
X38999200Y-69123600D02*
X39050000Y-87310000D01*
D12*
%TO.C,J6*%
X115457000Y-72284000D02*
X115457000Y-70484000D01*
X115457000Y-70484000D02*
X113757000Y-70484000D01*
X115457000Y-63784000D02*
X115457000Y-61984000D01*
X115457000Y-61984000D02*
X113757000Y-61984000D01*
X113757000Y-72284000D02*
X115457000Y-72284000D01*
X113757000Y-70484000D02*
X113757000Y-72284000D01*
X113757000Y-63784000D02*
X115457000Y-63784000D01*
X113757000Y-61984000D02*
X113757000Y-63784000D01*
%TO.C,J5*%
X115249900Y-86284000D02*
X115249900Y-84484000D01*
X115249900Y-84484000D02*
X113549900Y-84484000D01*
X115249900Y-77784000D02*
X115249900Y-75984000D01*
X115249900Y-75984000D02*
X113549900Y-75984000D01*
X113549900Y-86284000D02*
X115249900Y-86284000D01*
X113549900Y-84484000D02*
X113549900Y-86284000D01*
X113549900Y-77784000D02*
X115249900Y-77784000D01*
X113549900Y-75984000D02*
X113549900Y-77784000D01*
%TD*%
M02*
