%TF.GenerationSoftware,KiCad,Pcbnew,7.0.10*%
%TF.CreationDate,2024-02-29T16:26:42-05:00*%
%TF.ProjectId,Telstar Alpha,54656c73-7461-4722-9041-6c7068612e6b,0.1*%
%TF.SameCoordinates,Original*%
%TF.FileFunction,Legend,Bot*%
%TF.FilePolarity,Positive*%
%FSLAX46Y46*%
G04 Gerber Fmt 4.6, Leading zero omitted, Abs format (unit mm)*
G04 Created by KiCad (PCBNEW 7.0.10) date 2024-02-29 16:26:42*
%MOMM*%
%LPD*%
G01*
G04 APERTURE LIST*
%ADD10C,0.150000*%
%ADD11C,0.120000*%
%ADD12C,0.200000*%
%ADD13C,0.010000*%
G04 APERTURE END LIST*
D10*
X202591792Y-69269819D02*
X202925125Y-68793628D01*
X203163220Y-69269819D02*
X203163220Y-68269819D01*
X203163220Y-68269819D02*
X202782268Y-68269819D01*
X202782268Y-68269819D02*
X202687030Y-68317438D01*
X202687030Y-68317438D02*
X202639411Y-68365057D01*
X202639411Y-68365057D02*
X202591792Y-68460295D01*
X202591792Y-68460295D02*
X202591792Y-68603152D01*
X202591792Y-68603152D02*
X202639411Y-68698390D01*
X202639411Y-68698390D02*
X202687030Y-68746009D01*
X202687030Y-68746009D02*
X202782268Y-68793628D01*
X202782268Y-68793628D02*
X203163220Y-68793628D01*
X201591792Y-69174580D02*
X201639411Y-69222200D01*
X201639411Y-69222200D02*
X201782268Y-69269819D01*
X201782268Y-69269819D02*
X201877506Y-69269819D01*
X201877506Y-69269819D02*
X202020363Y-69222200D01*
X202020363Y-69222200D02*
X202115601Y-69126961D01*
X202115601Y-69126961D02*
X202163220Y-69031723D01*
X202163220Y-69031723D02*
X202210839Y-68841247D01*
X202210839Y-68841247D02*
X202210839Y-68698390D01*
X202210839Y-68698390D02*
X202163220Y-68507914D01*
X202163220Y-68507914D02*
X202115601Y-68412676D01*
X202115601Y-68412676D02*
X202020363Y-68317438D01*
X202020363Y-68317438D02*
X201877506Y-68269819D01*
X201877506Y-68269819D02*
X201782268Y-68269819D01*
X201782268Y-68269819D02*
X201639411Y-68317438D01*
X201639411Y-68317438D02*
X201591792Y-68365057D01*
X201210839Y-68984104D02*
X200734649Y-68984104D01*
X201306077Y-69269819D02*
X200972744Y-68269819D01*
X200972744Y-68269819D02*
X200639411Y-69269819D01*
X206210839Y-66622200D02*
X206067982Y-66669819D01*
X206067982Y-66669819D02*
X205829887Y-66669819D01*
X205829887Y-66669819D02*
X205734649Y-66622200D01*
X205734649Y-66622200D02*
X205687030Y-66574580D01*
X205687030Y-66574580D02*
X205639411Y-66479342D01*
X205639411Y-66479342D02*
X205639411Y-66384104D01*
X205639411Y-66384104D02*
X205687030Y-66288866D01*
X205687030Y-66288866D02*
X205734649Y-66241247D01*
X205734649Y-66241247D02*
X205829887Y-66193628D01*
X205829887Y-66193628D02*
X206020363Y-66146009D01*
X206020363Y-66146009D02*
X206115601Y-66098390D01*
X206115601Y-66098390D02*
X206163220Y-66050771D01*
X206163220Y-66050771D02*
X206210839Y-65955533D01*
X206210839Y-65955533D02*
X206210839Y-65860295D01*
X206210839Y-65860295D02*
X206163220Y-65765057D01*
X206163220Y-65765057D02*
X206115601Y-65717438D01*
X206115601Y-65717438D02*
X206020363Y-65669819D01*
X206020363Y-65669819D02*
X205782268Y-65669819D01*
X205782268Y-65669819D02*
X205639411Y-65717438D01*
X205210839Y-66003152D02*
X205210839Y-67003152D01*
X205210839Y-66050771D02*
X205115601Y-66003152D01*
X205115601Y-66003152D02*
X204925125Y-66003152D01*
X204925125Y-66003152D02*
X204829887Y-66050771D01*
X204829887Y-66050771D02*
X204782268Y-66098390D01*
X204782268Y-66098390D02*
X204734649Y-66193628D01*
X204734649Y-66193628D02*
X204734649Y-66479342D01*
X204734649Y-66479342D02*
X204782268Y-66574580D01*
X204782268Y-66574580D02*
X204829887Y-66622200D01*
X204829887Y-66622200D02*
X204925125Y-66669819D01*
X204925125Y-66669819D02*
X205115601Y-66669819D01*
X205115601Y-66669819D02*
X205210839Y-66622200D01*
X203925125Y-66622200D02*
X204020363Y-66669819D01*
X204020363Y-66669819D02*
X204210839Y-66669819D01*
X204210839Y-66669819D02*
X204306077Y-66622200D01*
X204306077Y-66622200D02*
X204353696Y-66526961D01*
X204353696Y-66526961D02*
X204353696Y-66146009D01*
X204353696Y-66146009D02*
X204306077Y-66050771D01*
X204306077Y-66050771D02*
X204210839Y-66003152D01*
X204210839Y-66003152D02*
X204020363Y-66003152D01*
X204020363Y-66003152D02*
X203925125Y-66050771D01*
X203925125Y-66050771D02*
X203877506Y-66146009D01*
X203877506Y-66146009D02*
X203877506Y-66241247D01*
X203877506Y-66241247D02*
X204353696Y-66336485D01*
X203020363Y-66669819D02*
X203020363Y-66146009D01*
X203020363Y-66146009D02*
X203067982Y-66050771D01*
X203067982Y-66050771D02*
X203163220Y-66003152D01*
X203163220Y-66003152D02*
X203353696Y-66003152D01*
X203353696Y-66003152D02*
X203448934Y-66050771D01*
X203020363Y-66622200D02*
X203115601Y-66669819D01*
X203115601Y-66669819D02*
X203353696Y-66669819D01*
X203353696Y-66669819D02*
X203448934Y-66622200D01*
X203448934Y-66622200D02*
X203496553Y-66526961D01*
X203496553Y-66526961D02*
X203496553Y-66431723D01*
X203496553Y-66431723D02*
X203448934Y-66336485D01*
X203448934Y-66336485D02*
X203353696Y-66288866D01*
X203353696Y-66288866D02*
X203115601Y-66288866D01*
X203115601Y-66288866D02*
X203020363Y-66241247D01*
X202544172Y-66669819D02*
X202544172Y-65669819D01*
X202448934Y-66288866D02*
X202163220Y-66669819D01*
X202163220Y-66003152D02*
X202544172Y-66384104D01*
X201353696Y-66622200D02*
X201448934Y-66669819D01*
X201448934Y-66669819D02*
X201639410Y-66669819D01*
X201639410Y-66669819D02*
X201734648Y-66622200D01*
X201734648Y-66622200D02*
X201782267Y-66526961D01*
X201782267Y-66526961D02*
X201782267Y-66146009D01*
X201782267Y-66146009D02*
X201734648Y-66050771D01*
X201734648Y-66050771D02*
X201639410Y-66003152D01*
X201639410Y-66003152D02*
X201448934Y-66003152D01*
X201448934Y-66003152D02*
X201353696Y-66050771D01*
X201353696Y-66050771D02*
X201306077Y-66146009D01*
X201306077Y-66146009D02*
X201306077Y-66241247D01*
X201306077Y-66241247D02*
X201782267Y-66336485D01*
X200877505Y-66669819D02*
X200877505Y-66003152D01*
X200877505Y-66193628D02*
X200829886Y-66098390D01*
X200829886Y-66098390D02*
X200782267Y-66050771D01*
X200782267Y-66050771D02*
X200687029Y-66003152D01*
X200687029Y-66003152D02*
X200591791Y-66003152D01*
X200210839Y-63322200D02*
X200067982Y-63369819D01*
X200067982Y-63369819D02*
X199829887Y-63369819D01*
X199829887Y-63369819D02*
X199734649Y-63322200D01*
X199734649Y-63322200D02*
X199687030Y-63274580D01*
X199687030Y-63274580D02*
X199639411Y-63179342D01*
X199639411Y-63179342D02*
X199639411Y-63084104D01*
X199639411Y-63084104D02*
X199687030Y-62988866D01*
X199687030Y-62988866D02*
X199734649Y-62941247D01*
X199734649Y-62941247D02*
X199829887Y-62893628D01*
X199829887Y-62893628D02*
X200020363Y-62846009D01*
X200020363Y-62846009D02*
X200115601Y-62798390D01*
X200115601Y-62798390D02*
X200163220Y-62750771D01*
X200163220Y-62750771D02*
X200210839Y-62655533D01*
X200210839Y-62655533D02*
X200210839Y-62560295D01*
X200210839Y-62560295D02*
X200163220Y-62465057D01*
X200163220Y-62465057D02*
X200115601Y-62417438D01*
X200115601Y-62417438D02*
X200020363Y-62369819D01*
X200020363Y-62369819D02*
X199782268Y-62369819D01*
X199782268Y-62369819D02*
X199639411Y-62417438D01*
X199067982Y-63369819D02*
X199163220Y-63322200D01*
X199163220Y-63322200D02*
X199210839Y-63274580D01*
X199210839Y-63274580D02*
X199258458Y-63179342D01*
X199258458Y-63179342D02*
X199258458Y-62893628D01*
X199258458Y-62893628D02*
X199210839Y-62798390D01*
X199210839Y-62798390D02*
X199163220Y-62750771D01*
X199163220Y-62750771D02*
X199067982Y-62703152D01*
X199067982Y-62703152D02*
X198925125Y-62703152D01*
X198925125Y-62703152D02*
X198829887Y-62750771D01*
X198829887Y-62750771D02*
X198782268Y-62798390D01*
X198782268Y-62798390D02*
X198734649Y-62893628D01*
X198734649Y-62893628D02*
X198734649Y-63179342D01*
X198734649Y-63179342D02*
X198782268Y-63274580D01*
X198782268Y-63274580D02*
X198829887Y-63322200D01*
X198829887Y-63322200D02*
X198925125Y-63369819D01*
X198925125Y-63369819D02*
X199067982Y-63369819D01*
X197877506Y-62703152D02*
X197877506Y-63369819D01*
X198306077Y-62703152D02*
X198306077Y-63226961D01*
X198306077Y-63226961D02*
X198258458Y-63322200D01*
X198258458Y-63322200D02*
X198163220Y-63369819D01*
X198163220Y-63369819D02*
X198020363Y-63369819D01*
X198020363Y-63369819D02*
X197925125Y-63322200D01*
X197925125Y-63322200D02*
X197877506Y-63274580D01*
X197401315Y-62703152D02*
X197401315Y-63369819D01*
X197401315Y-62798390D02*
X197353696Y-62750771D01*
X197353696Y-62750771D02*
X197258458Y-62703152D01*
X197258458Y-62703152D02*
X197115601Y-62703152D01*
X197115601Y-62703152D02*
X197020363Y-62750771D01*
X197020363Y-62750771D02*
X196972744Y-62846009D01*
X196972744Y-62846009D02*
X196972744Y-63369819D01*
X196067982Y-63369819D02*
X196067982Y-62369819D01*
X196067982Y-63322200D02*
X196163220Y-63369819D01*
X196163220Y-63369819D02*
X196353696Y-63369819D01*
X196353696Y-63369819D02*
X196448934Y-63322200D01*
X196448934Y-63322200D02*
X196496553Y-63274580D01*
X196496553Y-63274580D02*
X196544172Y-63179342D01*
X196544172Y-63179342D02*
X196544172Y-62893628D01*
X196544172Y-62893628D02*
X196496553Y-62798390D01*
X196496553Y-62798390D02*
X196448934Y-62750771D01*
X196448934Y-62750771D02*
X196353696Y-62703152D01*
X196353696Y-62703152D02*
X196163220Y-62703152D01*
X196163220Y-62703152D02*
X196067982Y-62750771D01*
X194639410Y-62369819D02*
X194448934Y-62369819D01*
X194448934Y-62369819D02*
X194353696Y-62417438D01*
X194353696Y-62417438D02*
X194258458Y-62512676D01*
X194258458Y-62512676D02*
X194210839Y-62703152D01*
X194210839Y-62703152D02*
X194210839Y-63036485D01*
X194210839Y-63036485D02*
X194258458Y-63226961D01*
X194258458Y-63226961D02*
X194353696Y-63322200D01*
X194353696Y-63322200D02*
X194448934Y-63369819D01*
X194448934Y-63369819D02*
X194639410Y-63369819D01*
X194639410Y-63369819D02*
X194734648Y-63322200D01*
X194734648Y-63322200D02*
X194829886Y-63226961D01*
X194829886Y-63226961D02*
X194877505Y-63036485D01*
X194877505Y-63036485D02*
X194877505Y-62703152D01*
X194877505Y-62703152D02*
X194829886Y-62512676D01*
X194829886Y-62512676D02*
X194734648Y-62417438D01*
X194734648Y-62417438D02*
X194639410Y-62369819D01*
X193353696Y-62703152D02*
X193353696Y-63369819D01*
X193782267Y-62703152D02*
X193782267Y-63226961D01*
X193782267Y-63226961D02*
X193734648Y-63322200D01*
X193734648Y-63322200D02*
X193639410Y-63369819D01*
X193639410Y-63369819D02*
X193496553Y-63369819D01*
X193496553Y-63369819D02*
X193401315Y-63322200D01*
X193401315Y-63322200D02*
X193353696Y-63274580D01*
X193020362Y-62703152D02*
X192639410Y-62703152D01*
X192877505Y-62369819D02*
X192877505Y-63226961D01*
X192877505Y-63226961D02*
X192829886Y-63322200D01*
X192829886Y-63322200D02*
X192734648Y-63369819D01*
X192734648Y-63369819D02*
X192639410Y-63369819D01*
X192306076Y-62703152D02*
X192306076Y-63703152D01*
X192306076Y-62750771D02*
X192210838Y-62703152D01*
X192210838Y-62703152D02*
X192020362Y-62703152D01*
X192020362Y-62703152D02*
X191925124Y-62750771D01*
X191925124Y-62750771D02*
X191877505Y-62798390D01*
X191877505Y-62798390D02*
X191829886Y-62893628D01*
X191829886Y-62893628D02*
X191829886Y-63179342D01*
X191829886Y-63179342D02*
X191877505Y-63274580D01*
X191877505Y-63274580D02*
X191925124Y-63322200D01*
X191925124Y-63322200D02*
X192020362Y-63369819D01*
X192020362Y-63369819D02*
X192210838Y-63369819D01*
X192210838Y-63369819D02*
X192306076Y-63322200D01*
X190972743Y-62703152D02*
X190972743Y-63369819D01*
X191401314Y-62703152D02*
X191401314Y-63226961D01*
X191401314Y-63226961D02*
X191353695Y-63322200D01*
X191353695Y-63322200D02*
X191258457Y-63369819D01*
X191258457Y-63369819D02*
X191115600Y-63369819D01*
X191115600Y-63369819D02*
X191020362Y-63322200D01*
X191020362Y-63322200D02*
X190972743Y-63274580D01*
X190639409Y-62703152D02*
X190258457Y-62703152D01*
X190496552Y-62369819D02*
X190496552Y-63226961D01*
X190496552Y-63226961D02*
X190448933Y-63322200D01*
X190448933Y-63322200D02*
X190353695Y-63369819D01*
X190353695Y-63369819D02*
X190258457Y-63369819D01*
X118396411Y-62551438D02*
X118491649Y-62503819D01*
X118491649Y-62503819D02*
X118634506Y-62503819D01*
X118634506Y-62503819D02*
X118777363Y-62551438D01*
X118777363Y-62551438D02*
X118872601Y-62646676D01*
X118872601Y-62646676D02*
X118920220Y-62741914D01*
X118920220Y-62741914D02*
X118967839Y-62932390D01*
X118967839Y-62932390D02*
X118967839Y-63075247D01*
X118967839Y-63075247D02*
X118920220Y-63265723D01*
X118920220Y-63265723D02*
X118872601Y-63360961D01*
X118872601Y-63360961D02*
X118777363Y-63456200D01*
X118777363Y-63456200D02*
X118634506Y-63503819D01*
X118634506Y-63503819D02*
X118539268Y-63503819D01*
X118539268Y-63503819D02*
X118396411Y-63456200D01*
X118396411Y-63456200D02*
X118348792Y-63408580D01*
X118348792Y-63408580D02*
X118348792Y-63075247D01*
X118348792Y-63075247D02*
X118539268Y-63075247D01*
X117920220Y-63503819D02*
X117920220Y-62503819D01*
X117920220Y-62503819D02*
X117348792Y-63503819D01*
X117348792Y-63503819D02*
X117348792Y-62503819D01*
X116872601Y-63503819D02*
X116872601Y-62503819D01*
X116872601Y-62503819D02*
X116634506Y-62503819D01*
X116634506Y-62503819D02*
X116491649Y-62551438D01*
X116491649Y-62551438D02*
X116396411Y-62646676D01*
X116396411Y-62646676D02*
X116348792Y-62741914D01*
X116348792Y-62741914D02*
X116301173Y-62932390D01*
X116301173Y-62932390D02*
X116301173Y-63075247D01*
X116301173Y-63075247D02*
X116348792Y-63265723D01*
X116348792Y-63265723D02*
X116396411Y-63360961D01*
X116396411Y-63360961D02*
X116491649Y-63456200D01*
X116491649Y-63456200D02*
X116634506Y-63503819D01*
X116634506Y-63503819D02*
X116872601Y-63503819D01*
D11*
X125342525Y-72259148D02*
X125342525Y-71854386D01*
X125085382Y-72340100D02*
X125985382Y-72056767D01*
X125985382Y-72056767D02*
X125085382Y-71773433D01*
X125685382Y-71125815D02*
X125085382Y-71125815D01*
X125685382Y-71490101D02*
X125213954Y-71490101D01*
X125213954Y-71490101D02*
X125128240Y-71449624D01*
X125128240Y-71449624D02*
X125085382Y-71368672D01*
X125085382Y-71368672D02*
X125085382Y-71247243D01*
X125085382Y-71247243D02*
X125128240Y-71166291D01*
X125128240Y-71166291D02*
X125171097Y-71125815D01*
X125085382Y-70356767D02*
X125985382Y-70356767D01*
X125128240Y-70356767D02*
X125085382Y-70437719D01*
X125085382Y-70437719D02*
X125085382Y-70599624D01*
X125085382Y-70599624D02*
X125128240Y-70680576D01*
X125128240Y-70680576D02*
X125171097Y-70721053D01*
X125171097Y-70721053D02*
X125256811Y-70761529D01*
X125256811Y-70761529D02*
X125513954Y-70761529D01*
X125513954Y-70761529D02*
X125599668Y-70721053D01*
X125599668Y-70721053D02*
X125642525Y-70680576D01*
X125642525Y-70680576D02*
X125685382Y-70599624D01*
X125685382Y-70599624D02*
X125685382Y-70437719D01*
X125685382Y-70437719D02*
X125642525Y-70356767D01*
X125085382Y-69952005D02*
X125685382Y-69952005D01*
X125985382Y-69952005D02*
X125942525Y-69992481D01*
X125942525Y-69992481D02*
X125899668Y-69952005D01*
X125899668Y-69952005D02*
X125942525Y-69911528D01*
X125942525Y-69911528D02*
X125985382Y-69952005D01*
X125985382Y-69952005D02*
X125899668Y-69952005D01*
X125085382Y-69425814D02*
X125128240Y-69506766D01*
X125128240Y-69506766D02*
X125171097Y-69547243D01*
X125171097Y-69547243D02*
X125256811Y-69587719D01*
X125256811Y-69587719D02*
X125513954Y-69587719D01*
X125513954Y-69587719D02*
X125599668Y-69547243D01*
X125599668Y-69547243D02*
X125642525Y-69506766D01*
X125642525Y-69506766D02*
X125685382Y-69425814D01*
X125685382Y-69425814D02*
X125685382Y-69304385D01*
X125685382Y-69304385D02*
X125642525Y-69223433D01*
X125642525Y-69223433D02*
X125599668Y-69182957D01*
X125599668Y-69182957D02*
X125513954Y-69142481D01*
X125513954Y-69142481D02*
X125256811Y-69142481D01*
X125256811Y-69142481D02*
X125171097Y-69182957D01*
X125171097Y-69182957D02*
X125128240Y-69223433D01*
X125128240Y-69223433D02*
X125085382Y-69304385D01*
X125085382Y-69304385D02*
X125085382Y-69425814D01*
X125985382Y-67968671D02*
X125985382Y-67806766D01*
X125985382Y-67806766D02*
X125942525Y-67725814D01*
X125942525Y-67725814D02*
X125856811Y-67644861D01*
X125856811Y-67644861D02*
X125685382Y-67604385D01*
X125685382Y-67604385D02*
X125385382Y-67604385D01*
X125385382Y-67604385D02*
X125213954Y-67644861D01*
X125213954Y-67644861D02*
X125128240Y-67725814D01*
X125128240Y-67725814D02*
X125085382Y-67806766D01*
X125085382Y-67806766D02*
X125085382Y-67968671D01*
X125085382Y-67968671D02*
X125128240Y-68049623D01*
X125128240Y-68049623D02*
X125213954Y-68130576D01*
X125213954Y-68130576D02*
X125385382Y-68171052D01*
X125385382Y-68171052D02*
X125685382Y-68171052D01*
X125685382Y-68171052D02*
X125856811Y-68130576D01*
X125856811Y-68130576D02*
X125942525Y-68049623D01*
X125942525Y-68049623D02*
X125985382Y-67968671D01*
X125685382Y-66875814D02*
X125085382Y-66875814D01*
X125685382Y-67240100D02*
X125213954Y-67240100D01*
X125213954Y-67240100D02*
X125128240Y-67199623D01*
X125128240Y-67199623D02*
X125085382Y-67118671D01*
X125085382Y-67118671D02*
X125085382Y-66997242D01*
X125085382Y-66997242D02*
X125128240Y-66916290D01*
X125128240Y-66916290D02*
X125171097Y-66875814D01*
X125685382Y-66592480D02*
X125685382Y-66268671D01*
X125985382Y-66471052D02*
X125213954Y-66471052D01*
X125213954Y-66471052D02*
X125128240Y-66430575D01*
X125128240Y-66430575D02*
X125085382Y-66349623D01*
X125085382Y-66349623D02*
X125085382Y-66268671D01*
X125685382Y-65985338D02*
X124785382Y-65985338D01*
X125642525Y-65985338D02*
X125685382Y-65904385D01*
X125685382Y-65904385D02*
X125685382Y-65742480D01*
X125685382Y-65742480D02*
X125642525Y-65661528D01*
X125642525Y-65661528D02*
X125599668Y-65621052D01*
X125599668Y-65621052D02*
X125513954Y-65580576D01*
X125513954Y-65580576D02*
X125256811Y-65580576D01*
X125256811Y-65580576D02*
X125171097Y-65621052D01*
X125171097Y-65621052D02*
X125128240Y-65661528D01*
X125128240Y-65661528D02*
X125085382Y-65742480D01*
X125085382Y-65742480D02*
X125085382Y-65904385D01*
X125085382Y-65904385D02*
X125128240Y-65985338D01*
X125685382Y-64852004D02*
X125085382Y-64852004D01*
X125685382Y-65216290D02*
X125213954Y-65216290D01*
X125213954Y-65216290D02*
X125128240Y-65175813D01*
X125128240Y-65175813D02*
X125085382Y-65094861D01*
X125085382Y-65094861D02*
X125085382Y-64973432D01*
X125085382Y-64973432D02*
X125128240Y-64892480D01*
X125128240Y-64892480D02*
X125171097Y-64852004D01*
X125685382Y-64568670D02*
X125685382Y-64244861D01*
X125985382Y-64447242D02*
X125213954Y-64447242D01*
X125213954Y-64447242D02*
X125128240Y-64406765D01*
X125128240Y-64406765D02*
X125085382Y-64325813D01*
X125085382Y-64325813D02*
X125085382Y-64244861D01*
D10*
X123467839Y-70456200D02*
X123324982Y-70503819D01*
X123324982Y-70503819D02*
X123086887Y-70503819D01*
X123086887Y-70503819D02*
X122991649Y-70456200D01*
X122991649Y-70456200D02*
X122944030Y-70408580D01*
X122944030Y-70408580D02*
X122896411Y-70313342D01*
X122896411Y-70313342D02*
X122896411Y-70218104D01*
X122896411Y-70218104D02*
X122944030Y-70122866D01*
X122944030Y-70122866D02*
X122991649Y-70075247D01*
X122991649Y-70075247D02*
X123086887Y-70027628D01*
X123086887Y-70027628D02*
X123277363Y-69980009D01*
X123277363Y-69980009D02*
X123372601Y-69932390D01*
X123372601Y-69932390D02*
X123420220Y-69884771D01*
X123420220Y-69884771D02*
X123467839Y-69789533D01*
X123467839Y-69789533D02*
X123467839Y-69694295D01*
X123467839Y-69694295D02*
X123420220Y-69599057D01*
X123420220Y-69599057D02*
X123372601Y-69551438D01*
X123372601Y-69551438D02*
X123277363Y-69503819D01*
X123277363Y-69503819D02*
X123039268Y-69503819D01*
X123039268Y-69503819D02*
X122896411Y-69551438D01*
X122467839Y-70503819D02*
X122467839Y-69837152D01*
X122467839Y-69503819D02*
X122515458Y-69551438D01*
X122515458Y-69551438D02*
X122467839Y-69599057D01*
X122467839Y-69599057D02*
X122420220Y-69551438D01*
X122420220Y-69551438D02*
X122467839Y-69503819D01*
X122467839Y-69503819D02*
X122467839Y-69599057D01*
X121563078Y-69837152D02*
X121563078Y-70646676D01*
X121563078Y-70646676D02*
X121610697Y-70741914D01*
X121610697Y-70741914D02*
X121658316Y-70789533D01*
X121658316Y-70789533D02*
X121753554Y-70837152D01*
X121753554Y-70837152D02*
X121896411Y-70837152D01*
X121896411Y-70837152D02*
X121991649Y-70789533D01*
X121563078Y-70456200D02*
X121658316Y-70503819D01*
X121658316Y-70503819D02*
X121848792Y-70503819D01*
X121848792Y-70503819D02*
X121944030Y-70456200D01*
X121944030Y-70456200D02*
X121991649Y-70408580D01*
X121991649Y-70408580D02*
X122039268Y-70313342D01*
X122039268Y-70313342D02*
X122039268Y-70027628D01*
X122039268Y-70027628D02*
X121991649Y-69932390D01*
X121991649Y-69932390D02*
X121944030Y-69884771D01*
X121944030Y-69884771D02*
X121848792Y-69837152D01*
X121848792Y-69837152D02*
X121658316Y-69837152D01*
X121658316Y-69837152D02*
X121563078Y-69884771D01*
X121086887Y-69837152D02*
X121086887Y-70503819D01*
X121086887Y-69932390D02*
X121039268Y-69884771D01*
X121039268Y-69884771D02*
X120944030Y-69837152D01*
X120944030Y-69837152D02*
X120801173Y-69837152D01*
X120801173Y-69837152D02*
X120705935Y-69884771D01*
X120705935Y-69884771D02*
X120658316Y-69980009D01*
X120658316Y-69980009D02*
X120658316Y-70503819D01*
X119753554Y-70503819D02*
X119753554Y-69980009D01*
X119753554Y-69980009D02*
X119801173Y-69884771D01*
X119801173Y-69884771D02*
X119896411Y-69837152D01*
X119896411Y-69837152D02*
X120086887Y-69837152D01*
X120086887Y-69837152D02*
X120182125Y-69884771D01*
X119753554Y-70456200D02*
X119848792Y-70503819D01*
X119848792Y-70503819D02*
X120086887Y-70503819D01*
X120086887Y-70503819D02*
X120182125Y-70456200D01*
X120182125Y-70456200D02*
X120229744Y-70360961D01*
X120229744Y-70360961D02*
X120229744Y-70265723D01*
X120229744Y-70265723D02*
X120182125Y-70170485D01*
X120182125Y-70170485D02*
X120086887Y-70122866D01*
X120086887Y-70122866D02*
X119848792Y-70122866D01*
X119848792Y-70122866D02*
X119753554Y-70075247D01*
X119134506Y-70503819D02*
X119229744Y-70456200D01*
X119229744Y-70456200D02*
X119277363Y-70360961D01*
X119277363Y-70360961D02*
X119277363Y-69503819D01*
X113539000Y-61832000D02*
X124461000Y-61832000D01*
X124461000Y-72500000D01*
X113539000Y-72500000D01*
X113539000Y-61832000D01*
X113331857Y-75832000D02*
X124253857Y-75832000D01*
X124253857Y-86500000D01*
X113331857Y-86500000D01*
X113331857Y-75832000D01*
X119084866Y-47419779D02*
X119084866Y-48181684D01*
X119465819Y-47800731D02*
X118703914Y-47800731D01*
X119465819Y-48705493D02*
X119465819Y-48895969D01*
X119465819Y-48895969D02*
X119418200Y-48991207D01*
X119418200Y-48991207D02*
X119370580Y-49038826D01*
X119370580Y-49038826D02*
X119227723Y-49134064D01*
X119227723Y-49134064D02*
X119037247Y-49181683D01*
X119037247Y-49181683D02*
X118656295Y-49181683D01*
X118656295Y-49181683D02*
X118561057Y-49134064D01*
X118561057Y-49134064D02*
X118513438Y-49086445D01*
X118513438Y-49086445D02*
X118465819Y-48991207D01*
X118465819Y-48991207D02*
X118465819Y-48800731D01*
X118465819Y-48800731D02*
X118513438Y-48705493D01*
X118513438Y-48705493D02*
X118561057Y-48657874D01*
X118561057Y-48657874D02*
X118656295Y-48610255D01*
X118656295Y-48610255D02*
X118894390Y-48610255D01*
X118894390Y-48610255D02*
X118989628Y-48657874D01*
X118989628Y-48657874D02*
X119037247Y-48705493D01*
X119037247Y-48705493D02*
X119084866Y-48800731D01*
X119084866Y-48800731D02*
X119084866Y-48991207D01*
X119084866Y-48991207D02*
X119037247Y-49086445D01*
X119037247Y-49086445D02*
X118989628Y-49134064D01*
X118989628Y-49134064D02*
X118894390Y-49181683D01*
X118465819Y-49467398D02*
X119465819Y-49800731D01*
X119465819Y-49800731D02*
X118465819Y-50134064D01*
X123260696Y-84456200D02*
X123117839Y-84503819D01*
X123117839Y-84503819D02*
X122879744Y-84503819D01*
X122879744Y-84503819D02*
X122784506Y-84456200D01*
X122784506Y-84456200D02*
X122736887Y-84408580D01*
X122736887Y-84408580D02*
X122689268Y-84313342D01*
X122689268Y-84313342D02*
X122689268Y-84218104D01*
X122689268Y-84218104D02*
X122736887Y-84122866D01*
X122736887Y-84122866D02*
X122784506Y-84075247D01*
X122784506Y-84075247D02*
X122879744Y-84027628D01*
X122879744Y-84027628D02*
X123070220Y-83980009D01*
X123070220Y-83980009D02*
X123165458Y-83932390D01*
X123165458Y-83932390D02*
X123213077Y-83884771D01*
X123213077Y-83884771D02*
X123260696Y-83789533D01*
X123260696Y-83789533D02*
X123260696Y-83694295D01*
X123260696Y-83694295D02*
X123213077Y-83599057D01*
X123213077Y-83599057D02*
X123165458Y-83551438D01*
X123165458Y-83551438D02*
X123070220Y-83503819D01*
X123070220Y-83503819D02*
X122832125Y-83503819D01*
X122832125Y-83503819D02*
X122689268Y-83551438D01*
X122260696Y-84503819D02*
X122260696Y-83837152D01*
X122260696Y-83503819D02*
X122308315Y-83551438D01*
X122308315Y-83551438D02*
X122260696Y-83599057D01*
X122260696Y-83599057D02*
X122213077Y-83551438D01*
X122213077Y-83551438D02*
X122260696Y-83503819D01*
X122260696Y-83503819D02*
X122260696Y-83599057D01*
X121355935Y-83837152D02*
X121355935Y-84646676D01*
X121355935Y-84646676D02*
X121403554Y-84741914D01*
X121403554Y-84741914D02*
X121451173Y-84789533D01*
X121451173Y-84789533D02*
X121546411Y-84837152D01*
X121546411Y-84837152D02*
X121689268Y-84837152D01*
X121689268Y-84837152D02*
X121784506Y-84789533D01*
X121355935Y-84456200D02*
X121451173Y-84503819D01*
X121451173Y-84503819D02*
X121641649Y-84503819D01*
X121641649Y-84503819D02*
X121736887Y-84456200D01*
X121736887Y-84456200D02*
X121784506Y-84408580D01*
X121784506Y-84408580D02*
X121832125Y-84313342D01*
X121832125Y-84313342D02*
X121832125Y-84027628D01*
X121832125Y-84027628D02*
X121784506Y-83932390D01*
X121784506Y-83932390D02*
X121736887Y-83884771D01*
X121736887Y-83884771D02*
X121641649Y-83837152D01*
X121641649Y-83837152D02*
X121451173Y-83837152D01*
X121451173Y-83837152D02*
X121355935Y-83884771D01*
X120879744Y-83837152D02*
X120879744Y-84503819D01*
X120879744Y-83932390D02*
X120832125Y-83884771D01*
X120832125Y-83884771D02*
X120736887Y-83837152D01*
X120736887Y-83837152D02*
X120594030Y-83837152D01*
X120594030Y-83837152D02*
X120498792Y-83884771D01*
X120498792Y-83884771D02*
X120451173Y-83980009D01*
X120451173Y-83980009D02*
X120451173Y-84503819D01*
X119546411Y-84503819D02*
X119546411Y-83980009D01*
X119546411Y-83980009D02*
X119594030Y-83884771D01*
X119594030Y-83884771D02*
X119689268Y-83837152D01*
X119689268Y-83837152D02*
X119879744Y-83837152D01*
X119879744Y-83837152D02*
X119974982Y-83884771D01*
X119546411Y-84456200D02*
X119641649Y-84503819D01*
X119641649Y-84503819D02*
X119879744Y-84503819D01*
X119879744Y-84503819D02*
X119974982Y-84456200D01*
X119974982Y-84456200D02*
X120022601Y-84360961D01*
X120022601Y-84360961D02*
X120022601Y-84265723D01*
X120022601Y-84265723D02*
X119974982Y-84170485D01*
X119974982Y-84170485D02*
X119879744Y-84122866D01*
X119879744Y-84122866D02*
X119641649Y-84122866D01*
X119641649Y-84122866D02*
X119546411Y-84075247D01*
X118927363Y-84503819D02*
X119022601Y-84456200D01*
X119022601Y-84456200D02*
X119070220Y-84360961D01*
X119070220Y-84360961D02*
X119070220Y-83503819D01*
X23707027Y-48127438D02*
X23802265Y-48079819D01*
X23802265Y-48079819D02*
X23945122Y-48079819D01*
X23945122Y-48079819D02*
X24087979Y-48127438D01*
X24087979Y-48127438D02*
X24183217Y-48222676D01*
X24183217Y-48222676D02*
X24230836Y-48317914D01*
X24230836Y-48317914D02*
X24278455Y-48508390D01*
X24278455Y-48508390D02*
X24278455Y-48651247D01*
X24278455Y-48651247D02*
X24230836Y-48841723D01*
X24230836Y-48841723D02*
X24183217Y-48936961D01*
X24183217Y-48936961D02*
X24087979Y-49032200D01*
X24087979Y-49032200D02*
X23945122Y-49079819D01*
X23945122Y-49079819D02*
X23849884Y-49079819D01*
X23849884Y-49079819D02*
X23707027Y-49032200D01*
X23707027Y-49032200D02*
X23659408Y-48984580D01*
X23659408Y-48984580D02*
X23659408Y-48651247D01*
X23659408Y-48651247D02*
X23849884Y-48651247D01*
X23230836Y-49079819D02*
X23230836Y-48079819D01*
X23230836Y-48079819D02*
X22659408Y-49079819D01*
X22659408Y-49079819D02*
X22659408Y-48079819D01*
X22183217Y-49079819D02*
X22183217Y-48079819D01*
X22183217Y-48079819D02*
X21945122Y-48079819D01*
X21945122Y-48079819D02*
X21802265Y-48127438D01*
X21802265Y-48127438D02*
X21707027Y-48222676D01*
X21707027Y-48222676D02*
X21659408Y-48317914D01*
X21659408Y-48317914D02*
X21611789Y-48508390D01*
X21611789Y-48508390D02*
X21611789Y-48651247D01*
X21611789Y-48651247D02*
X21659408Y-48841723D01*
X21659408Y-48841723D02*
X21707027Y-48936961D01*
X21707027Y-48936961D02*
X21802265Y-49032200D01*
X21802265Y-49032200D02*
X21945122Y-49079819D01*
X21945122Y-49079819D02*
X22183217Y-49079819D01*
D11*
X124963954Y-85732957D02*
X124921097Y-85773433D01*
X124921097Y-85773433D02*
X124878239Y-85894862D01*
X124878239Y-85894862D02*
X124878239Y-85975814D01*
X124878239Y-85975814D02*
X124921097Y-86097243D01*
X124921097Y-86097243D02*
X125006811Y-86178195D01*
X125006811Y-86178195D02*
X125092525Y-86218672D01*
X125092525Y-86218672D02*
X125263954Y-86259148D01*
X125263954Y-86259148D02*
X125392525Y-86259148D01*
X125392525Y-86259148D02*
X125563954Y-86218672D01*
X125563954Y-86218672D02*
X125649668Y-86178195D01*
X125649668Y-86178195D02*
X125735382Y-86097243D01*
X125735382Y-86097243D02*
X125778239Y-85975814D01*
X125778239Y-85975814D02*
X125778239Y-85894862D01*
X125778239Y-85894862D02*
X125735382Y-85773433D01*
X125735382Y-85773433D02*
X125692525Y-85732957D01*
X124878239Y-85247243D02*
X124921097Y-85328195D01*
X124921097Y-85328195D02*
X124963954Y-85368672D01*
X124963954Y-85368672D02*
X125049668Y-85409148D01*
X125049668Y-85409148D02*
X125306811Y-85409148D01*
X125306811Y-85409148D02*
X125392525Y-85368672D01*
X125392525Y-85368672D02*
X125435382Y-85328195D01*
X125435382Y-85328195D02*
X125478239Y-85247243D01*
X125478239Y-85247243D02*
X125478239Y-85125814D01*
X125478239Y-85125814D02*
X125435382Y-85044862D01*
X125435382Y-85044862D02*
X125392525Y-85004386D01*
X125392525Y-85004386D02*
X125306811Y-84963910D01*
X125306811Y-84963910D02*
X125049668Y-84963910D01*
X125049668Y-84963910D02*
X124963954Y-85004386D01*
X124963954Y-85004386D02*
X124921097Y-85044862D01*
X124921097Y-85044862D02*
X124878239Y-85125814D01*
X124878239Y-85125814D02*
X124878239Y-85247243D01*
X124878239Y-84599624D02*
X125478239Y-84599624D01*
X125392525Y-84599624D02*
X125435382Y-84559147D01*
X125435382Y-84559147D02*
X125478239Y-84478195D01*
X125478239Y-84478195D02*
X125478239Y-84356766D01*
X125478239Y-84356766D02*
X125435382Y-84275814D01*
X125435382Y-84275814D02*
X125349668Y-84235338D01*
X125349668Y-84235338D02*
X124878239Y-84235338D01*
X125349668Y-84235338D02*
X125435382Y-84194862D01*
X125435382Y-84194862D02*
X125478239Y-84113909D01*
X125478239Y-84113909D02*
X125478239Y-83992481D01*
X125478239Y-83992481D02*
X125435382Y-83911528D01*
X125435382Y-83911528D02*
X125349668Y-83871052D01*
X125349668Y-83871052D02*
X124878239Y-83871052D01*
X125478239Y-83466291D02*
X124578239Y-83466291D01*
X125435382Y-83466291D02*
X125478239Y-83385338D01*
X125478239Y-83385338D02*
X125478239Y-83223433D01*
X125478239Y-83223433D02*
X125435382Y-83142481D01*
X125435382Y-83142481D02*
X125392525Y-83102005D01*
X125392525Y-83102005D02*
X125306811Y-83061529D01*
X125306811Y-83061529D02*
X125049668Y-83061529D01*
X125049668Y-83061529D02*
X124963954Y-83102005D01*
X124963954Y-83102005D02*
X124921097Y-83142481D01*
X124921097Y-83142481D02*
X124878239Y-83223433D01*
X124878239Y-83223433D02*
X124878239Y-83385338D01*
X124878239Y-83385338D02*
X124921097Y-83466291D01*
X124878239Y-82575814D02*
X124921097Y-82656766D01*
X124921097Y-82656766D02*
X124963954Y-82697243D01*
X124963954Y-82697243D02*
X125049668Y-82737719D01*
X125049668Y-82737719D02*
X125306811Y-82737719D01*
X125306811Y-82737719D02*
X125392525Y-82697243D01*
X125392525Y-82697243D02*
X125435382Y-82656766D01*
X125435382Y-82656766D02*
X125478239Y-82575814D01*
X125478239Y-82575814D02*
X125478239Y-82454385D01*
X125478239Y-82454385D02*
X125435382Y-82373433D01*
X125435382Y-82373433D02*
X125392525Y-82332957D01*
X125392525Y-82332957D02*
X125306811Y-82292481D01*
X125306811Y-82292481D02*
X125049668Y-82292481D01*
X125049668Y-82292481D02*
X124963954Y-82332957D01*
X124963954Y-82332957D02*
X124921097Y-82373433D01*
X124921097Y-82373433D02*
X124878239Y-82454385D01*
X124878239Y-82454385D02*
X124878239Y-82575814D01*
X124921097Y-81968671D02*
X124878239Y-81887718D01*
X124878239Y-81887718D02*
X124878239Y-81725814D01*
X124878239Y-81725814D02*
X124921097Y-81644861D01*
X124921097Y-81644861D02*
X125006811Y-81604385D01*
X125006811Y-81604385D02*
X125049668Y-81604385D01*
X125049668Y-81604385D02*
X125135382Y-81644861D01*
X125135382Y-81644861D02*
X125178239Y-81725814D01*
X125178239Y-81725814D02*
X125178239Y-81847242D01*
X125178239Y-81847242D02*
X125221097Y-81928195D01*
X125221097Y-81928195D02*
X125306811Y-81968671D01*
X125306811Y-81968671D02*
X125349668Y-81968671D01*
X125349668Y-81968671D02*
X125435382Y-81928195D01*
X125435382Y-81928195D02*
X125478239Y-81847242D01*
X125478239Y-81847242D02*
X125478239Y-81725814D01*
X125478239Y-81725814D02*
X125435382Y-81644861D01*
X124878239Y-81240100D02*
X125478239Y-81240100D01*
X125778239Y-81240100D02*
X125735382Y-81280576D01*
X125735382Y-81280576D02*
X125692525Y-81240100D01*
X125692525Y-81240100D02*
X125735382Y-81199623D01*
X125735382Y-81199623D02*
X125778239Y-81240100D01*
X125778239Y-81240100D02*
X125692525Y-81240100D01*
X125478239Y-80956766D02*
X125478239Y-80632957D01*
X125778239Y-80835338D02*
X125006811Y-80835338D01*
X125006811Y-80835338D02*
X124921097Y-80794861D01*
X124921097Y-80794861D02*
X124878239Y-80713909D01*
X124878239Y-80713909D02*
X124878239Y-80632957D01*
X124921097Y-80025814D02*
X124878239Y-80106766D01*
X124878239Y-80106766D02*
X124878239Y-80268671D01*
X124878239Y-80268671D02*
X124921097Y-80349624D01*
X124921097Y-80349624D02*
X125006811Y-80390100D01*
X125006811Y-80390100D02*
X125349668Y-80390100D01*
X125349668Y-80390100D02*
X125435382Y-80349624D01*
X125435382Y-80349624D02*
X125478239Y-80268671D01*
X125478239Y-80268671D02*
X125478239Y-80106766D01*
X125478239Y-80106766D02*
X125435382Y-80025814D01*
X125435382Y-80025814D02*
X125349668Y-79985338D01*
X125349668Y-79985338D02*
X125263954Y-79985338D01*
X125263954Y-79985338D02*
X125178239Y-80390100D01*
X125778239Y-79094862D02*
X124878239Y-78811529D01*
X124878239Y-78811529D02*
X125778239Y-78528195D01*
X124878239Y-78244863D02*
X125478239Y-78244863D01*
X125778239Y-78244863D02*
X125735382Y-78285339D01*
X125735382Y-78285339D02*
X125692525Y-78244863D01*
X125692525Y-78244863D02*
X125735382Y-78204386D01*
X125735382Y-78204386D02*
X125778239Y-78244863D01*
X125778239Y-78244863D02*
X125692525Y-78244863D01*
X124878239Y-77475815D02*
X125778239Y-77475815D01*
X124921097Y-77475815D02*
X124878239Y-77556767D01*
X124878239Y-77556767D02*
X124878239Y-77718672D01*
X124878239Y-77718672D02*
X124921097Y-77799624D01*
X124921097Y-77799624D02*
X124963954Y-77840101D01*
X124963954Y-77840101D02*
X125049668Y-77880577D01*
X125049668Y-77880577D02*
X125306811Y-77880577D01*
X125306811Y-77880577D02*
X125392525Y-77840101D01*
X125392525Y-77840101D02*
X125435382Y-77799624D01*
X125435382Y-77799624D02*
X125478239Y-77718672D01*
X125478239Y-77718672D02*
X125478239Y-77556767D01*
X125478239Y-77556767D02*
X125435382Y-77475815D01*
X124921097Y-76747243D02*
X124878239Y-76828195D01*
X124878239Y-76828195D02*
X124878239Y-76990100D01*
X124878239Y-76990100D02*
X124921097Y-77071053D01*
X124921097Y-77071053D02*
X125006811Y-77111529D01*
X125006811Y-77111529D02*
X125349668Y-77111529D01*
X125349668Y-77111529D02*
X125435382Y-77071053D01*
X125435382Y-77071053D02*
X125478239Y-76990100D01*
X125478239Y-76990100D02*
X125478239Y-76828195D01*
X125478239Y-76828195D02*
X125435382Y-76747243D01*
X125435382Y-76747243D02*
X125349668Y-76706767D01*
X125349668Y-76706767D02*
X125263954Y-76706767D01*
X125263954Y-76706767D02*
X125178239Y-77111529D01*
X124878239Y-76221053D02*
X124921097Y-76302005D01*
X124921097Y-76302005D02*
X124963954Y-76342482D01*
X124963954Y-76342482D02*
X125049668Y-76382958D01*
X125049668Y-76382958D02*
X125306811Y-76382958D01*
X125306811Y-76382958D02*
X125392525Y-76342482D01*
X125392525Y-76342482D02*
X125435382Y-76302005D01*
X125435382Y-76302005D02*
X125478239Y-76221053D01*
X125478239Y-76221053D02*
X125478239Y-76099624D01*
X125478239Y-76099624D02*
X125435382Y-76018672D01*
X125435382Y-76018672D02*
X125392525Y-75978196D01*
X125392525Y-75978196D02*
X125306811Y-75937720D01*
X125306811Y-75937720D02*
X125049668Y-75937720D01*
X125049668Y-75937720D02*
X124963954Y-75978196D01*
X124963954Y-75978196D02*
X124921097Y-76018672D01*
X124921097Y-76018672D02*
X124878239Y-76099624D01*
X124878239Y-76099624D02*
X124878239Y-76221053D01*
D10*
X24484836Y-51492866D02*
X23722932Y-51492866D01*
X24103884Y-51873819D02*
X24103884Y-51111914D01*
X22770551Y-50873819D02*
X23246741Y-50873819D01*
X23246741Y-50873819D02*
X23294360Y-51350009D01*
X23294360Y-51350009D02*
X23246741Y-51302390D01*
X23246741Y-51302390D02*
X23151503Y-51254771D01*
X23151503Y-51254771D02*
X22913408Y-51254771D01*
X22913408Y-51254771D02*
X22818170Y-51302390D01*
X22818170Y-51302390D02*
X22770551Y-51350009D01*
X22770551Y-51350009D02*
X22722932Y-51445247D01*
X22722932Y-51445247D02*
X22722932Y-51683342D01*
X22722932Y-51683342D02*
X22770551Y-51778580D01*
X22770551Y-51778580D02*
X22818170Y-51826200D01*
X22818170Y-51826200D02*
X22913408Y-51873819D01*
X22913408Y-51873819D02*
X23151503Y-51873819D01*
X23151503Y-51873819D02*
X23246741Y-51826200D01*
X23246741Y-51826200D02*
X23294360Y-51778580D01*
X22437217Y-50873819D02*
X22103884Y-51873819D01*
X22103884Y-51873819D02*
X21770551Y-50873819D01*
X118189268Y-76551438D02*
X118284506Y-76503819D01*
X118284506Y-76503819D02*
X118427363Y-76503819D01*
X118427363Y-76503819D02*
X118570220Y-76551438D01*
X118570220Y-76551438D02*
X118665458Y-76646676D01*
X118665458Y-76646676D02*
X118713077Y-76741914D01*
X118713077Y-76741914D02*
X118760696Y-76932390D01*
X118760696Y-76932390D02*
X118760696Y-77075247D01*
X118760696Y-77075247D02*
X118713077Y-77265723D01*
X118713077Y-77265723D02*
X118665458Y-77360961D01*
X118665458Y-77360961D02*
X118570220Y-77456200D01*
X118570220Y-77456200D02*
X118427363Y-77503819D01*
X118427363Y-77503819D02*
X118332125Y-77503819D01*
X118332125Y-77503819D02*
X118189268Y-77456200D01*
X118189268Y-77456200D02*
X118141649Y-77408580D01*
X118141649Y-77408580D02*
X118141649Y-77075247D01*
X118141649Y-77075247D02*
X118332125Y-77075247D01*
X117713077Y-77503819D02*
X117713077Y-76503819D01*
X117713077Y-76503819D02*
X117141649Y-77503819D01*
X117141649Y-77503819D02*
X117141649Y-76503819D01*
X116665458Y-77503819D02*
X116665458Y-76503819D01*
X116665458Y-76503819D02*
X116427363Y-76503819D01*
X116427363Y-76503819D02*
X116284506Y-76551438D01*
X116284506Y-76551438D02*
X116189268Y-76646676D01*
X116189268Y-76646676D02*
X116141649Y-76741914D01*
X116141649Y-76741914D02*
X116094030Y-76932390D01*
X116094030Y-76932390D02*
X116094030Y-77075247D01*
X116094030Y-77075247D02*
X116141649Y-77265723D01*
X116141649Y-77265723D02*
X116189268Y-77360961D01*
X116189268Y-77360961D02*
X116284506Y-77456200D01*
X116284506Y-77456200D02*
X116427363Y-77503819D01*
X116427363Y-77503819D02*
X116665458Y-77503819D01*
X124164866Y-47419779D02*
X124164866Y-48181684D01*
X124545819Y-47800731D02*
X123783914Y-47800731D01*
X123545819Y-49134064D02*
X123545819Y-48657874D01*
X123545819Y-48657874D02*
X124022009Y-48610255D01*
X124022009Y-48610255D02*
X123974390Y-48657874D01*
X123974390Y-48657874D02*
X123926771Y-48753112D01*
X123926771Y-48753112D02*
X123926771Y-48991207D01*
X123926771Y-48991207D02*
X123974390Y-49086445D01*
X123974390Y-49086445D02*
X124022009Y-49134064D01*
X124022009Y-49134064D02*
X124117247Y-49181683D01*
X124117247Y-49181683D02*
X124355342Y-49181683D01*
X124355342Y-49181683D02*
X124450580Y-49134064D01*
X124450580Y-49134064D02*
X124498200Y-49086445D01*
X124498200Y-49086445D02*
X124545819Y-48991207D01*
X124545819Y-48991207D02*
X124545819Y-48753112D01*
X124545819Y-48753112D02*
X124498200Y-48657874D01*
X124498200Y-48657874D02*
X124450580Y-48610255D01*
X123545819Y-49467398D02*
X124545819Y-49800731D01*
X124545819Y-49800731D02*
X123545819Y-50134064D01*
X242294200Y-75705160D02*
X242341819Y-75848017D01*
X242341819Y-75848017D02*
X242341819Y-76086112D01*
X242341819Y-76086112D02*
X242294200Y-76181350D01*
X242294200Y-76181350D02*
X242246580Y-76228969D01*
X242246580Y-76228969D02*
X242151342Y-76276588D01*
X242151342Y-76276588D02*
X242056104Y-76276588D01*
X242056104Y-76276588D02*
X241960866Y-76228969D01*
X241960866Y-76228969D02*
X241913247Y-76181350D01*
X241913247Y-76181350D02*
X241865628Y-76086112D01*
X241865628Y-76086112D02*
X241818009Y-75895636D01*
X241818009Y-75895636D02*
X241770390Y-75800398D01*
X241770390Y-75800398D02*
X241722771Y-75752779D01*
X241722771Y-75752779D02*
X241627533Y-75705160D01*
X241627533Y-75705160D02*
X241532295Y-75705160D01*
X241532295Y-75705160D02*
X241437057Y-75752779D01*
X241437057Y-75752779D02*
X241389438Y-75800398D01*
X241389438Y-75800398D02*
X241341819Y-75895636D01*
X241341819Y-75895636D02*
X241341819Y-76133731D01*
X241341819Y-76133731D02*
X241389438Y-76276588D01*
X241675152Y-76705160D02*
X242675152Y-76705160D01*
X241722771Y-76705160D02*
X241675152Y-76800398D01*
X241675152Y-76800398D02*
X241675152Y-76990874D01*
X241675152Y-76990874D02*
X241722771Y-77086112D01*
X241722771Y-77086112D02*
X241770390Y-77133731D01*
X241770390Y-77133731D02*
X241865628Y-77181350D01*
X241865628Y-77181350D02*
X242151342Y-77181350D01*
X242151342Y-77181350D02*
X242246580Y-77133731D01*
X242246580Y-77133731D02*
X242294200Y-77086112D01*
X242294200Y-77086112D02*
X242341819Y-76990874D01*
X242341819Y-76990874D02*
X242341819Y-76800398D01*
X242341819Y-76800398D02*
X242294200Y-76705160D01*
X242294200Y-77990874D02*
X242341819Y-77895636D01*
X242341819Y-77895636D02*
X242341819Y-77705160D01*
X242341819Y-77705160D02*
X242294200Y-77609922D01*
X242294200Y-77609922D02*
X242198961Y-77562303D01*
X242198961Y-77562303D02*
X241818009Y-77562303D01*
X241818009Y-77562303D02*
X241722771Y-77609922D01*
X241722771Y-77609922D02*
X241675152Y-77705160D01*
X241675152Y-77705160D02*
X241675152Y-77895636D01*
X241675152Y-77895636D02*
X241722771Y-77990874D01*
X241722771Y-77990874D02*
X241818009Y-78038493D01*
X241818009Y-78038493D02*
X241913247Y-78038493D01*
X241913247Y-78038493D02*
X242008485Y-77562303D01*
X242341819Y-78895636D02*
X241818009Y-78895636D01*
X241818009Y-78895636D02*
X241722771Y-78848017D01*
X241722771Y-78848017D02*
X241675152Y-78752779D01*
X241675152Y-78752779D02*
X241675152Y-78562303D01*
X241675152Y-78562303D02*
X241722771Y-78467065D01*
X242294200Y-78895636D02*
X242341819Y-78800398D01*
X242341819Y-78800398D02*
X242341819Y-78562303D01*
X242341819Y-78562303D02*
X242294200Y-78467065D01*
X242294200Y-78467065D02*
X242198961Y-78419446D01*
X242198961Y-78419446D02*
X242103723Y-78419446D01*
X242103723Y-78419446D02*
X242008485Y-78467065D01*
X242008485Y-78467065D02*
X241960866Y-78562303D01*
X241960866Y-78562303D02*
X241960866Y-78800398D01*
X241960866Y-78800398D02*
X241913247Y-78895636D01*
X242341819Y-79371827D02*
X241341819Y-79371827D01*
X241960866Y-79467065D02*
X242341819Y-79752779D01*
X241675152Y-79752779D02*
X242056104Y-79371827D01*
X242294200Y-80562303D02*
X242341819Y-80467065D01*
X242341819Y-80467065D02*
X242341819Y-80276589D01*
X242341819Y-80276589D02*
X242294200Y-80181351D01*
X242294200Y-80181351D02*
X242198961Y-80133732D01*
X242198961Y-80133732D02*
X241818009Y-80133732D01*
X241818009Y-80133732D02*
X241722771Y-80181351D01*
X241722771Y-80181351D02*
X241675152Y-80276589D01*
X241675152Y-80276589D02*
X241675152Y-80467065D01*
X241675152Y-80467065D02*
X241722771Y-80562303D01*
X241722771Y-80562303D02*
X241818009Y-80609922D01*
X241818009Y-80609922D02*
X241913247Y-80609922D01*
X241913247Y-80609922D02*
X242008485Y-80133732D01*
X242341819Y-81038494D02*
X241675152Y-81038494D01*
X241865628Y-81038494D02*
X241770390Y-81086113D01*
X241770390Y-81086113D02*
X241722771Y-81133732D01*
X241722771Y-81133732D02*
X241675152Y-81228970D01*
X241675152Y-81228970D02*
X241675152Y-81324208D01*
D12*
X212154422Y-24244838D02*
X211821088Y-24244838D01*
X211821088Y-24244838D02*
X211654422Y-24149600D01*
X211654422Y-24149600D02*
X211571088Y-24054361D01*
X211571088Y-24054361D02*
X211404422Y-23768647D01*
X211404422Y-23768647D02*
X211321088Y-23387695D01*
X211321088Y-23387695D02*
X211321088Y-22625790D01*
X211321088Y-22625790D02*
X211404422Y-22435314D01*
X211404422Y-22435314D02*
X211487755Y-22340076D01*
X211487755Y-22340076D02*
X211654422Y-22244838D01*
X211654422Y-22244838D02*
X211987755Y-22244838D01*
X211987755Y-22244838D02*
X212154422Y-22340076D01*
X212154422Y-22340076D02*
X212237755Y-22435314D01*
X212237755Y-22435314D02*
X212321088Y-22625790D01*
X212321088Y-22625790D02*
X212321088Y-23101980D01*
X212321088Y-23101980D02*
X212237755Y-23292457D01*
X212237755Y-23292457D02*
X212154422Y-23387695D01*
X212154422Y-23387695D02*
X211987755Y-23482933D01*
X211987755Y-23482933D02*
X211654422Y-23482933D01*
X211654422Y-23482933D02*
X211487755Y-23387695D01*
X211487755Y-23387695D02*
X211404422Y-23292457D01*
X211404422Y-23292457D02*
X211321088Y-23101980D01*
X210821088Y-22244838D02*
X210237755Y-24244838D01*
X210237755Y-24244838D02*
X209654421Y-22244838D01*
X206487755Y-22149600D02*
X207987755Y-24721028D01*
X203654422Y-24244838D02*
X204654422Y-24244838D01*
X204154422Y-24244838D02*
X204154422Y-22244838D01*
X204154422Y-22244838D02*
X204321089Y-22530552D01*
X204321089Y-22530552D02*
X204487756Y-22721028D01*
X204487756Y-22721028D02*
X204654422Y-22816266D01*
X202987755Y-23673409D02*
X202154422Y-23673409D01*
X203154422Y-24244838D02*
X202571089Y-22244838D01*
X202571089Y-22244838D02*
X201987755Y-24244838D01*
D10*
X121053438Y-47943588D02*
X121005819Y-47848350D01*
X121005819Y-47848350D02*
X121005819Y-47705493D01*
X121005819Y-47705493D02*
X121053438Y-47562636D01*
X121053438Y-47562636D02*
X121148676Y-47467398D01*
X121148676Y-47467398D02*
X121243914Y-47419779D01*
X121243914Y-47419779D02*
X121434390Y-47372160D01*
X121434390Y-47372160D02*
X121577247Y-47372160D01*
X121577247Y-47372160D02*
X121767723Y-47419779D01*
X121767723Y-47419779D02*
X121862961Y-47467398D01*
X121862961Y-47467398D02*
X121958200Y-47562636D01*
X121958200Y-47562636D02*
X122005819Y-47705493D01*
X122005819Y-47705493D02*
X122005819Y-47800731D01*
X122005819Y-47800731D02*
X121958200Y-47943588D01*
X121958200Y-47943588D02*
X121910580Y-47991207D01*
X121910580Y-47991207D02*
X121577247Y-47991207D01*
X121577247Y-47991207D02*
X121577247Y-47800731D01*
X122005819Y-48419779D02*
X121005819Y-48419779D01*
X121005819Y-48419779D02*
X122005819Y-48991207D01*
X122005819Y-48991207D02*
X121005819Y-48991207D01*
X122005819Y-49467398D02*
X121005819Y-49467398D01*
X121005819Y-49467398D02*
X121005819Y-49705493D01*
X121005819Y-49705493D02*
X121053438Y-49848350D01*
X121053438Y-49848350D02*
X121148676Y-49943588D01*
X121148676Y-49943588D02*
X121243914Y-49991207D01*
X121243914Y-49991207D02*
X121434390Y-50038826D01*
X121434390Y-50038826D02*
X121577247Y-50038826D01*
X121577247Y-50038826D02*
X121767723Y-49991207D01*
X121767723Y-49991207D02*
X121862961Y-49943588D01*
X121862961Y-49943588D02*
X121958200Y-49848350D01*
X121958200Y-49848350D02*
X122005819Y-49705493D01*
X122005819Y-49705493D02*
X122005819Y-49467398D01*
X196743332Y-72267200D02*
X196600475Y-72314819D01*
X196600475Y-72314819D02*
X196362380Y-72314819D01*
X196362380Y-72314819D02*
X196267142Y-72267200D01*
X196267142Y-72267200D02*
X196219523Y-72219580D01*
X196219523Y-72219580D02*
X196171904Y-72124342D01*
X196171904Y-72124342D02*
X196171904Y-72029104D01*
X196171904Y-72029104D02*
X196219523Y-71933866D01*
X196219523Y-71933866D02*
X196267142Y-71886247D01*
X196267142Y-71886247D02*
X196362380Y-71838628D01*
X196362380Y-71838628D02*
X196552856Y-71791009D01*
X196552856Y-71791009D02*
X196648094Y-71743390D01*
X196648094Y-71743390D02*
X196695713Y-71695771D01*
X196695713Y-71695771D02*
X196743332Y-71600533D01*
X196743332Y-71600533D02*
X196743332Y-71505295D01*
X196743332Y-71505295D02*
X196695713Y-71410057D01*
X196695713Y-71410057D02*
X196648094Y-71362438D01*
X196648094Y-71362438D02*
X196552856Y-71314819D01*
X196552856Y-71314819D02*
X196314761Y-71314819D01*
X196314761Y-71314819D02*
X196171904Y-71362438D01*
X195838570Y-71314819D02*
X195600475Y-72314819D01*
X195600475Y-72314819D02*
X195409999Y-71600533D01*
X195409999Y-71600533D02*
X195219523Y-72314819D01*
X195219523Y-72314819D02*
X194981428Y-71314819D01*
X194124285Y-71314819D02*
X194600475Y-71314819D01*
X194600475Y-71314819D02*
X194648094Y-71791009D01*
X194648094Y-71791009D02*
X194600475Y-71743390D01*
X194600475Y-71743390D02*
X194505237Y-71695771D01*
X194505237Y-71695771D02*
X194267142Y-71695771D01*
X194267142Y-71695771D02*
X194171904Y-71743390D01*
X194171904Y-71743390D02*
X194124285Y-71791009D01*
X194124285Y-71791009D02*
X194076666Y-71886247D01*
X194076666Y-71886247D02*
X194076666Y-72124342D01*
X194076666Y-72124342D02*
X194124285Y-72219580D01*
X194124285Y-72219580D02*
X194171904Y-72267200D01*
X194171904Y-72267200D02*
X194267142Y-72314819D01*
X194267142Y-72314819D02*
X194505237Y-72314819D01*
X194505237Y-72314819D02*
X194600475Y-72267200D01*
X194600475Y-72267200D02*
X194648094Y-72219580D01*
%TO.C,REF2*%
D13*
X217181248Y-28588218D02*
X218388377Y-28588218D01*
X218388377Y-29191782D01*
X217181248Y-29191782D01*
X217181248Y-30398911D01*
X216577927Y-30398911D01*
X216574662Y-29798490D01*
X216571396Y-29198069D01*
X215970976Y-29194804D01*
X215370555Y-29191538D01*
X215370555Y-28588218D01*
X216577684Y-28588218D01*
X216577684Y-27381089D01*
X217181248Y-27381089D01*
X217181248Y-28588218D01*
G36*
X217181248Y-28588218D02*
G01*
X218388377Y-28588218D01*
X218388377Y-29191782D01*
X217181248Y-29191782D01*
X217181248Y-30398911D01*
X216577927Y-30398911D01*
X216574662Y-29798490D01*
X216571396Y-29198069D01*
X215970976Y-29194804D01*
X215370555Y-29191538D01*
X215370555Y-28588218D01*
X216577684Y-28588218D01*
X216577684Y-27381089D01*
X217181248Y-27381089D01*
X217181248Y-28588218D01*
G37*
X200294020Y-29191782D02*
X197276198Y-29191782D01*
X197276198Y-28588218D01*
X200294020Y-28588218D01*
X200294020Y-29191782D01*
G36*
X200294020Y-29191782D02*
G01*
X197276198Y-29191782D01*
X197276198Y-28588218D01*
X200294020Y-28588218D01*
X200294020Y-29191782D01*
G37*
X216834007Y-25876255D02*
X216920804Y-25878516D01*
X217013807Y-25882386D01*
X217107678Y-25887627D01*
X217197077Y-25893997D01*
X217276666Y-25901257D01*
X217341107Y-25909166D01*
X217597434Y-25957426D01*
X217861374Y-26030645D01*
X218114075Y-26126213D01*
X218356064Y-26244329D01*
X218587866Y-26385196D01*
X218676420Y-26447020D01*
X218886332Y-26614630D01*
X219078403Y-26799499D01*
X219252002Y-27000689D01*
X219406501Y-27217265D01*
X219541269Y-27448290D01*
X219655676Y-27692827D01*
X219749092Y-27949938D01*
X219820887Y-28218689D01*
X219852950Y-28388743D01*
X219881970Y-28644943D01*
X219890157Y-28907474D01*
X219877602Y-29171875D01*
X219844398Y-29433687D01*
X219790636Y-29688451D01*
X219727380Y-29902131D01*
X219629468Y-30154377D01*
X219509755Y-30395162D01*
X219369021Y-30623246D01*
X219208043Y-30837388D01*
X219027601Y-31036350D01*
X218828476Y-31218892D01*
X218652630Y-31353993D01*
X218431855Y-31495224D01*
X218197103Y-31617346D01*
X217950621Y-31719446D01*
X217694658Y-31800608D01*
X217431462Y-31859918D01*
X217163281Y-31896461D01*
X217110024Y-31900439D01*
X217000857Y-31904648D01*
X216879302Y-31905380D01*
X216752840Y-31902825D01*
X216628953Y-31897176D01*
X216515124Y-31888626D01*
X216418836Y-31877365D01*
X216266005Y-31851027D01*
X215998993Y-31786112D01*
X215742573Y-31699276D01*
X215497783Y-31591326D01*
X215265665Y-31463070D01*
X215047259Y-31315314D01*
X214843603Y-31148866D01*
X214655739Y-30964532D01*
X214484707Y-30763121D01*
X214331546Y-30545440D01*
X214197297Y-30312295D01*
X214083000Y-30064493D01*
X214034371Y-29934190D01*
X213982755Y-29769114D01*
X213938328Y-29597353D01*
X213903423Y-29428056D01*
X213880377Y-29270371D01*
X213871749Y-29191782D01*
X211501757Y-29191782D01*
X211210281Y-29191821D01*
X210942930Y-29191924D01*
X210698794Y-29192100D01*
X210476965Y-29192353D01*
X210276533Y-29192690D01*
X210096588Y-29193118D01*
X209936222Y-29193641D01*
X209794524Y-29194267D01*
X209670585Y-29195002D01*
X209563496Y-29195850D01*
X209472348Y-29196820D01*
X209396231Y-29197916D01*
X209334236Y-29199146D01*
X209285453Y-29200514D01*
X209248974Y-29202027D01*
X209223888Y-29203692D01*
X209209286Y-29205514D01*
X209204259Y-29207500D01*
X209155734Y-29367568D01*
X209092541Y-29522132D01*
X209016296Y-29660545D01*
X208924871Y-29786630D01*
X208816135Y-29904209D01*
X208783473Y-29934970D01*
X208729937Y-29982358D01*
X208678564Y-30024713D01*
X208637040Y-30055539D01*
X208498698Y-30137369D01*
X208331996Y-30210272D01*
X208158372Y-30261363D01*
X207980362Y-30290708D01*
X207800502Y-30298370D01*
X207621329Y-30284412D01*
X207445377Y-30248897D01*
X207275182Y-30191889D01*
X207113282Y-30113451D01*
X206962211Y-30013647D01*
X206850445Y-29918174D01*
X206729705Y-29786437D01*
X206627932Y-29640892D01*
X206545756Y-29483704D01*
X206483804Y-29317039D01*
X206442705Y-29143064D01*
X206423085Y-28963943D01*
X206424155Y-28885656D01*
X214528080Y-28885656D01*
X214528192Y-28912684D01*
X214529657Y-28992894D01*
X214532549Y-29071414D01*
X214536532Y-29140426D01*
X214541270Y-29192112D01*
X214545617Y-29225418D01*
X214590556Y-29465363D01*
X214657612Y-29695299D01*
X214745836Y-29914053D01*
X214854281Y-30120451D01*
X214981996Y-30313319D01*
X215128034Y-30491483D01*
X215291446Y-30653769D01*
X215471283Y-30799004D01*
X215666598Y-30926014D01*
X215876440Y-31033625D01*
X216099862Y-31120663D01*
X216191598Y-31148993D01*
X216418478Y-31201847D01*
X216650137Y-31232726D01*
X216883977Y-31241952D01*
X217117396Y-31229851D01*
X217347795Y-31196745D01*
X217572574Y-31142959D01*
X217789132Y-31068815D01*
X217994870Y-30974639D01*
X218187188Y-30860754D01*
X218270545Y-30802517D01*
X218459549Y-30649712D01*
X218628769Y-30481613D01*
X218777808Y-30298874D01*
X218906266Y-30102147D01*
X219013746Y-29892085D01*
X219099850Y-29669343D01*
X219164179Y-29434573D01*
X219206336Y-29188428D01*
X219214335Y-29095073D01*
X219218031Y-28980970D01*
X219217244Y-28856805D01*
X219212253Y-28729582D01*
X219203338Y-28606304D01*
X219190778Y-28493977D01*
X219174853Y-28399604D01*
X219122831Y-28195035D01*
X219042199Y-27967058D01*
X218941328Y-27752658D01*
X218821243Y-27552726D01*
X218682970Y-27368151D01*
X218527534Y-27199824D01*
X218355962Y-27048634D01*
X218169278Y-26915472D01*
X217968509Y-26801228D01*
X217754679Y-26706791D01*
X217528815Y-26633053D01*
X217291942Y-26580903D01*
X217045086Y-26551231D01*
X217030695Y-26550208D01*
X216965817Y-26545979D01*
X216908896Y-26542853D01*
X216865636Y-26541115D01*
X216841743Y-26541050D01*
X216826104Y-26542080D01*
X216786493Y-26544474D01*
X216741149Y-26547038D01*
X216600885Y-26558612D01*
X216362185Y-26596906D01*
X216132093Y-26657480D01*
X215911940Y-26739467D01*
X215703053Y-26841998D01*
X215506761Y-26964206D01*
X215324393Y-27105225D01*
X215157277Y-27264186D01*
X215006742Y-27440222D01*
X214874116Y-27632465D01*
X214760728Y-27840049D01*
X214703694Y-27967703D01*
X214625980Y-28186077D01*
X214571199Y-28410098D01*
X214538761Y-28642410D01*
X214528080Y-28885656D01*
X206424155Y-28885656D01*
X206425573Y-28781842D01*
X206450798Y-28598927D01*
X206499386Y-28417364D01*
X206530733Y-28333393D01*
X206607725Y-28177708D01*
X206706539Y-28031739D01*
X206828553Y-27893295D01*
X206911445Y-27816375D01*
X207054283Y-27710171D01*
X207207907Y-27624497D01*
X207370023Y-27559350D01*
X207538336Y-27514725D01*
X207710550Y-27490621D01*
X207884372Y-27487034D01*
X208057506Y-27503960D01*
X208227658Y-27541396D01*
X208392533Y-27599339D01*
X208549836Y-27677785D01*
X208697272Y-27776732D01*
X208832547Y-27896175D01*
X208871915Y-27937340D01*
X208958957Y-28041522D01*
X209033193Y-28152609D01*
X209097105Y-28275122D01*
X209153173Y-28413579D01*
X209203880Y-28572500D01*
X209204011Y-28572744D01*
X209210176Y-28574710D01*
X209226026Y-28576514D01*
X209252471Y-28578160D01*
X209290421Y-28579657D01*
X209340785Y-28581008D01*
X209404473Y-28582222D01*
X209482394Y-28583303D01*
X209575459Y-28584258D01*
X209684576Y-28585093D01*
X209810655Y-28585814D01*
X209954606Y-28586427D01*
X210117339Y-28586939D01*
X210299762Y-28587355D01*
X210502786Y-28587682D01*
X210727320Y-28587925D01*
X210974274Y-28588092D01*
X211244557Y-28588187D01*
X211539079Y-28588218D01*
X213869778Y-28588218D01*
X213892417Y-28434183D01*
X213903036Y-28367118D01*
X213957813Y-28110380D01*
X214033511Y-27859453D01*
X214128872Y-27617265D01*
X214242636Y-27386745D01*
X214373547Y-27170822D01*
X214520346Y-26972425D01*
X214528885Y-26962079D01*
X214601407Y-26879405D01*
X214686509Y-26789592D01*
X214777395Y-26699415D01*
X214867263Y-26615646D01*
X214949317Y-26545059D01*
X215077985Y-26446731D01*
X215292304Y-26306904D01*
X215520629Y-26184445D01*
X215759372Y-26080846D01*
X216004947Y-25997603D01*
X216253765Y-25936211D01*
X216502238Y-25898163D01*
X216540451Y-25894146D01*
X216598553Y-25887981D01*
X216647066Y-25882767D01*
X216678278Y-25879330D01*
X216700386Y-25877526D01*
X216758755Y-25875845D01*
X216834007Y-25876255D01*
G36*
X216834007Y-25876255D02*
G01*
X216920804Y-25878516D01*
X217013807Y-25882386D01*
X217107678Y-25887627D01*
X217197077Y-25893997D01*
X217276666Y-25901257D01*
X217341107Y-25909166D01*
X217597434Y-25957426D01*
X217861374Y-26030645D01*
X218114075Y-26126213D01*
X218356064Y-26244329D01*
X218587866Y-26385196D01*
X218676420Y-26447020D01*
X218886332Y-26614630D01*
X219078403Y-26799499D01*
X219252002Y-27000689D01*
X219406501Y-27217265D01*
X219541269Y-27448290D01*
X219655676Y-27692827D01*
X219749092Y-27949938D01*
X219820887Y-28218689D01*
X219852950Y-28388743D01*
X219881970Y-28644943D01*
X219890157Y-28907474D01*
X219877602Y-29171875D01*
X219844398Y-29433687D01*
X219790636Y-29688451D01*
X219727380Y-29902131D01*
X219629468Y-30154377D01*
X219509755Y-30395162D01*
X219369021Y-30623246D01*
X219208043Y-30837388D01*
X219027601Y-31036350D01*
X218828476Y-31218892D01*
X218652630Y-31353993D01*
X218431855Y-31495224D01*
X218197103Y-31617346D01*
X217950621Y-31719446D01*
X217694658Y-31800608D01*
X217431462Y-31859918D01*
X217163281Y-31896461D01*
X217110024Y-31900439D01*
X217000857Y-31904648D01*
X216879302Y-31905380D01*
X216752840Y-31902825D01*
X216628953Y-31897176D01*
X216515124Y-31888626D01*
X216418836Y-31877365D01*
X216266005Y-31851027D01*
X215998993Y-31786112D01*
X215742573Y-31699276D01*
X215497783Y-31591326D01*
X215265665Y-31463070D01*
X215047259Y-31315314D01*
X214843603Y-31148866D01*
X214655739Y-30964532D01*
X214484707Y-30763121D01*
X214331546Y-30545440D01*
X214197297Y-30312295D01*
X214083000Y-30064493D01*
X214034371Y-29934190D01*
X213982755Y-29769114D01*
X213938328Y-29597353D01*
X213903423Y-29428056D01*
X213880377Y-29270371D01*
X213871749Y-29191782D01*
X211501757Y-29191782D01*
X211210281Y-29191821D01*
X210942930Y-29191924D01*
X210698794Y-29192100D01*
X210476965Y-29192353D01*
X210276533Y-29192690D01*
X210096588Y-29193118D01*
X209936222Y-29193641D01*
X209794524Y-29194267D01*
X209670585Y-29195002D01*
X209563496Y-29195850D01*
X209472348Y-29196820D01*
X209396231Y-29197916D01*
X209334236Y-29199146D01*
X209285453Y-29200514D01*
X209248974Y-29202027D01*
X209223888Y-29203692D01*
X209209286Y-29205514D01*
X209204259Y-29207500D01*
X209155734Y-29367568D01*
X209092541Y-29522132D01*
X209016296Y-29660545D01*
X208924871Y-29786630D01*
X208816135Y-29904209D01*
X208783473Y-29934970D01*
X208729937Y-29982358D01*
X208678564Y-30024713D01*
X208637040Y-30055539D01*
X208498698Y-30137369D01*
X208331996Y-30210272D01*
X208158372Y-30261363D01*
X207980362Y-30290708D01*
X207800502Y-30298370D01*
X207621329Y-30284412D01*
X207445377Y-30248897D01*
X207275182Y-30191889D01*
X207113282Y-30113451D01*
X206962211Y-30013647D01*
X206850445Y-29918174D01*
X206729705Y-29786437D01*
X206627932Y-29640892D01*
X206545756Y-29483704D01*
X206483804Y-29317039D01*
X206442705Y-29143064D01*
X206423085Y-28963943D01*
X206424155Y-28885656D01*
X214528080Y-28885656D01*
X214528192Y-28912684D01*
X214529657Y-28992894D01*
X214532549Y-29071414D01*
X214536532Y-29140426D01*
X214541270Y-29192112D01*
X214545617Y-29225418D01*
X214590556Y-29465363D01*
X214657612Y-29695299D01*
X214745836Y-29914053D01*
X214854281Y-30120451D01*
X214981996Y-30313319D01*
X215128034Y-30491483D01*
X215291446Y-30653769D01*
X215471283Y-30799004D01*
X215666598Y-30926014D01*
X215876440Y-31033625D01*
X216099862Y-31120663D01*
X216191598Y-31148993D01*
X216418478Y-31201847D01*
X216650137Y-31232726D01*
X216883977Y-31241952D01*
X217117396Y-31229851D01*
X217347795Y-31196745D01*
X217572574Y-31142959D01*
X217789132Y-31068815D01*
X217994870Y-30974639D01*
X218187188Y-30860754D01*
X218270545Y-30802517D01*
X218459549Y-30649712D01*
X218628769Y-30481613D01*
X218777808Y-30298874D01*
X218906266Y-30102147D01*
X219013746Y-29892085D01*
X219099850Y-29669343D01*
X219164179Y-29434573D01*
X219206336Y-29188428D01*
X219214335Y-29095073D01*
X219218031Y-28980970D01*
X219217244Y-28856805D01*
X219212253Y-28729582D01*
X219203338Y-28606304D01*
X219190778Y-28493977D01*
X219174853Y-28399604D01*
X219122831Y-28195035D01*
X219042199Y-27967058D01*
X218941328Y-27752658D01*
X218821243Y-27552726D01*
X218682970Y-27368151D01*
X218527534Y-27199824D01*
X218355962Y-27048634D01*
X218169278Y-26915472D01*
X217968509Y-26801228D01*
X217754679Y-26706791D01*
X217528815Y-26633053D01*
X217291942Y-26580903D01*
X217045086Y-26551231D01*
X217030695Y-26550208D01*
X216965817Y-26545979D01*
X216908896Y-26542853D01*
X216865636Y-26541115D01*
X216841743Y-26541050D01*
X216826104Y-26542080D01*
X216786493Y-26544474D01*
X216741149Y-26547038D01*
X216600885Y-26558612D01*
X216362185Y-26596906D01*
X216132093Y-26657480D01*
X215911940Y-26739467D01*
X215703053Y-26841998D01*
X215506761Y-26964206D01*
X215324393Y-27105225D01*
X215157277Y-27264186D01*
X215006742Y-27440222D01*
X214874116Y-27632465D01*
X214760728Y-27840049D01*
X214703694Y-27967703D01*
X214625980Y-28186077D01*
X214571199Y-28410098D01*
X214538761Y-28642410D01*
X214528080Y-28885656D01*
X206424155Y-28885656D01*
X206425573Y-28781842D01*
X206450798Y-28598927D01*
X206499386Y-28417364D01*
X206530733Y-28333393D01*
X206607725Y-28177708D01*
X206706539Y-28031739D01*
X206828553Y-27893295D01*
X206911445Y-27816375D01*
X207054283Y-27710171D01*
X207207907Y-27624497D01*
X207370023Y-27559350D01*
X207538336Y-27514725D01*
X207710550Y-27490621D01*
X207884372Y-27487034D01*
X208057506Y-27503960D01*
X208227658Y-27541396D01*
X208392533Y-27599339D01*
X208549836Y-27677785D01*
X208697272Y-27776732D01*
X208832547Y-27896175D01*
X208871915Y-27937340D01*
X208958957Y-28041522D01*
X209033193Y-28152609D01*
X209097105Y-28275122D01*
X209153173Y-28413579D01*
X209203880Y-28572500D01*
X209204011Y-28572744D01*
X209210176Y-28574710D01*
X209226026Y-28576514D01*
X209252471Y-28578160D01*
X209290421Y-28579657D01*
X209340785Y-28581008D01*
X209404473Y-28582222D01*
X209482394Y-28583303D01*
X209575459Y-28584258D01*
X209684576Y-28585093D01*
X209810655Y-28585814D01*
X209954606Y-28586427D01*
X210117339Y-28586939D01*
X210299762Y-28587355D01*
X210502786Y-28587682D01*
X210727320Y-28587925D01*
X210974274Y-28588092D01*
X211244557Y-28588187D01*
X211539079Y-28588218D01*
X213869778Y-28588218D01*
X213892417Y-28434183D01*
X213903036Y-28367118D01*
X213957813Y-28110380D01*
X214033511Y-27859453D01*
X214128872Y-27617265D01*
X214242636Y-27386745D01*
X214373547Y-27170822D01*
X214520346Y-26972425D01*
X214528885Y-26962079D01*
X214601407Y-26879405D01*
X214686509Y-26789592D01*
X214777395Y-26699415D01*
X214867263Y-26615646D01*
X214949317Y-26545059D01*
X215077985Y-26446731D01*
X215292304Y-26306904D01*
X215520629Y-26184445D01*
X215759372Y-26080846D01*
X216004947Y-25997603D01*
X216253765Y-25936211D01*
X216502238Y-25898163D01*
X216540451Y-25894146D01*
X216598553Y-25887981D01*
X216647066Y-25882767D01*
X216678278Y-25879330D01*
X216700386Y-25877526D01*
X216758755Y-25875845D01*
X216834007Y-25876255D01*
G37*
X198777453Y-25878185D02*
X198854268Y-25879551D01*
X198912156Y-25881308D01*
X199195336Y-25904039D01*
X199468990Y-25950027D01*
X199733071Y-26019256D01*
X199987535Y-26111711D01*
X200232336Y-26227374D01*
X200467429Y-26366230D01*
X200692768Y-26528263D01*
X200751999Y-26576944D01*
X200876139Y-26690742D01*
X201001212Y-26819845D01*
X201122191Y-26958631D01*
X201234049Y-27101480D01*
X201331760Y-27242772D01*
X201435518Y-27420766D01*
X201533986Y-27624951D01*
X201619244Y-27840343D01*
X201689173Y-28060958D01*
X201741654Y-28280809D01*
X201774568Y-28493911D01*
X201784070Y-28581930D01*
X204827508Y-28588318D01*
X204855707Y-28412893D01*
X204881904Y-28270933D01*
X204947795Y-28013606D01*
X205036773Y-27763051D01*
X205149865Y-27516132D01*
X205284820Y-27278794D01*
X205439973Y-27055867D01*
X205614117Y-26848597D01*
X205806096Y-26658133D01*
X206014752Y-26485622D01*
X206238927Y-26332212D01*
X206477466Y-26199051D01*
X206650741Y-26118017D01*
X206878532Y-26029599D01*
X207106746Y-25962634D01*
X207339847Y-25916075D01*
X207582301Y-25888877D01*
X207838575Y-25879991D01*
X208040011Y-25886406D01*
X208312016Y-25916196D01*
X208577181Y-25969899D01*
X208834539Y-26047111D01*
X209083126Y-26147430D01*
X209321976Y-26270450D01*
X209550123Y-26415767D01*
X209766602Y-26582979D01*
X209970448Y-26771681D01*
X209988320Y-26790012D01*
X210035995Y-26840957D01*
X210086514Y-26897323D01*
X210137043Y-26955689D01*
X210184744Y-27012636D01*
X210226782Y-27064741D01*
X210260321Y-27108584D01*
X210282524Y-27140743D01*
X210290555Y-27157798D01*
X210290303Y-27158360D01*
X210277487Y-27169590D01*
X210247541Y-27192382D01*
X210203595Y-27224448D01*
X210148780Y-27263499D01*
X210086223Y-27307246D01*
X210018965Y-27353942D01*
X209954479Y-27398834D01*
X209897390Y-27438692D01*
X209852126Y-27470425D01*
X209823116Y-27490942D01*
X209764340Y-27532971D01*
X209670939Y-27416164D01*
X209567389Y-27295259D01*
X209395263Y-27125839D01*
X209207155Y-26975283D01*
X209004452Y-26844554D01*
X208788539Y-26734612D01*
X208560803Y-26646419D01*
X208344361Y-26586283D01*
X208109431Y-26545510D01*
X207873023Y-26528985D01*
X207636829Y-26536477D01*
X207402540Y-26567753D01*
X207171849Y-26622583D01*
X206946446Y-26700734D01*
X206728025Y-26801975D01*
X206518278Y-26926074D01*
X206469959Y-26958904D01*
X206281362Y-27105601D01*
X206110095Y-27269839D01*
X205956965Y-27450342D01*
X205822776Y-27645836D01*
X205708333Y-27855044D01*
X205614441Y-28076693D01*
X205541905Y-28309507D01*
X205491531Y-28552211D01*
X205490057Y-28561874D01*
X205479278Y-28660616D01*
X205472930Y-28775138D01*
X205471009Y-28897364D01*
X205473514Y-29019217D01*
X205480441Y-29132621D01*
X205491787Y-29229501D01*
X205501734Y-29288390D01*
X205557562Y-29531320D01*
X205635286Y-29761892D01*
X205734951Y-29980198D01*
X205856605Y-30186329D01*
X206000294Y-30380376D01*
X206166063Y-30562432D01*
X206283789Y-30671852D01*
X206471605Y-30818576D01*
X206672006Y-30944584D01*
X206883283Y-31049358D01*
X207103730Y-31132382D01*
X207331637Y-31193139D01*
X207565295Y-31231111D01*
X207802998Y-31245783D01*
X208043037Y-31236637D01*
X208283703Y-31203156D01*
X208393698Y-31179030D01*
X208609496Y-31113543D01*
X208820655Y-31025971D01*
X209024171Y-30918182D01*
X209217036Y-30792042D01*
X209396246Y-30649421D01*
X209558794Y-30492184D01*
X209701675Y-30322200D01*
X209729123Y-30288303D01*
X209752901Y-30263699D01*
X209767402Y-30254307D01*
X209777304Y-30258908D01*
X209805790Y-30276167D01*
X209849498Y-30304402D01*
X209905485Y-30341675D01*
X209970808Y-30386046D01*
X210042524Y-30435576D01*
X210302932Y-30616844D01*
X210269478Y-30661912D01*
X210174858Y-30783091D01*
X209989266Y-30989751D01*
X209787189Y-31178042D01*
X209569838Y-31347061D01*
X209338420Y-31495906D01*
X209094147Y-31623675D01*
X208838228Y-31729465D01*
X208633122Y-31795090D01*
X208373425Y-31855017D01*
X208110256Y-31891128D01*
X207845378Y-31903667D01*
X207580553Y-31892875D01*
X207317545Y-31858994D01*
X207058117Y-31802268D01*
X206804030Y-31722938D01*
X206557049Y-31621248D01*
X206318935Y-31497438D01*
X206091451Y-31351753D01*
X205894219Y-31199152D01*
X205699248Y-31019117D01*
X205520143Y-30822303D01*
X205358399Y-30610861D01*
X205215515Y-30386942D01*
X205092987Y-30152697D01*
X204992313Y-29910275D01*
X204914990Y-29661829D01*
X204912165Y-29650779D01*
X204897466Y-29588553D01*
X204882185Y-29517322D01*
X204867359Y-29442671D01*
X204854024Y-29370187D01*
X204843217Y-29305455D01*
X204835972Y-29254060D01*
X204833327Y-29221589D01*
X204833327Y-29191782D01*
X201790836Y-29191782D01*
X201785000Y-29220074D01*
X201783988Y-29225397D01*
X201778950Y-29256637D01*
X201772249Y-29302554D01*
X201765051Y-29355247D01*
X201754024Y-29430146D01*
X201702211Y-29676335D01*
X201627484Y-29921408D01*
X201531369Y-30161846D01*
X201415391Y-30394129D01*
X201281077Y-30614736D01*
X201129953Y-30820148D01*
X201110044Y-30844270D01*
X201029767Y-30934595D01*
X200936902Y-31030592D01*
X200837970Y-31125914D01*
X200739494Y-31214214D01*
X200647993Y-31289149D01*
X200455638Y-31424331D01*
X200234594Y-31553026D01*
X200000965Y-31664094D01*
X199759177Y-31755442D01*
X199513655Y-31824981D01*
X199442871Y-31841138D01*
X199339507Y-31862148D01*
X199242415Y-31877876D01*
X199145327Y-31888985D01*
X199041973Y-31896137D01*
X198926086Y-31899991D01*
X198791396Y-31901212D01*
X198763368Y-31901206D01*
X198641922Y-31900200D01*
X198538392Y-31897132D01*
X198446820Y-31891407D01*
X198361249Y-31882425D01*
X198275719Y-31869590D01*
X198184272Y-31852304D01*
X198080951Y-31829970D01*
X197961074Y-31800424D01*
X197702524Y-31718597D01*
X197455568Y-31615287D01*
X197221240Y-31491516D01*
X197000575Y-31348307D01*
X196794605Y-31186684D01*
X196604368Y-31007667D01*
X196430895Y-30812281D01*
X196275223Y-30601548D01*
X196138385Y-30376489D01*
X196021416Y-30138129D01*
X195925349Y-29887490D01*
X195851221Y-29625594D01*
X195829925Y-29531180D01*
X195810155Y-29430869D01*
X195795421Y-29336106D01*
X195785081Y-29240763D01*
X195778491Y-29138714D01*
X195775009Y-29023835D01*
X195774039Y-28896287D01*
X196433723Y-28896287D01*
X196433930Y-28929179D01*
X196448784Y-29174521D01*
X196486562Y-29412348D01*
X196546499Y-29641413D01*
X196627829Y-29860470D01*
X196729784Y-30068269D01*
X196851598Y-30263564D01*
X196992505Y-30445108D01*
X197151739Y-30611652D01*
X197328531Y-30761949D01*
X197522117Y-30894752D01*
X197731729Y-31008812D01*
X197777506Y-31030152D01*
X197999905Y-31117366D01*
X198229926Y-31181748D01*
X198465264Y-31223315D01*
X198703615Y-31242081D01*
X198942677Y-31238062D01*
X199180145Y-31211274D01*
X199413714Y-31161733D01*
X199641083Y-31089453D01*
X199859946Y-30994451D01*
X200013967Y-30910519D01*
X200209764Y-30780004D01*
X200388626Y-30632031D01*
X200549860Y-30467848D01*
X200692776Y-30288700D01*
X200816682Y-30095831D01*
X200920887Y-29890488D01*
X201004700Y-29673916D01*
X201067429Y-29447360D01*
X201108383Y-29212066D01*
X201126871Y-28969280D01*
X201122201Y-28720247D01*
X201114031Y-28623843D01*
X201077149Y-28384518D01*
X201018019Y-28155051D01*
X200937689Y-27936489D01*
X200837206Y-27729880D01*
X200717616Y-27536270D01*
X200579965Y-27356706D01*
X200425300Y-27192235D01*
X200254668Y-27043904D01*
X200069114Y-26912759D01*
X199869686Y-26799848D01*
X199657430Y-26706217D01*
X199433392Y-26632914D01*
X199198620Y-26580984D01*
X198954159Y-26551476D01*
X198935626Y-26550159D01*
X198871383Y-26545901D01*
X198816051Y-26542689D01*
X198775019Y-26540816D01*
X198753674Y-26540573D01*
X198738000Y-26541652D01*
X198700391Y-26544231D01*
X198649007Y-26547752D01*
X198590208Y-26551777D01*
X198496429Y-26560076D01*
X198260505Y-26597898D01*
X198031545Y-26658871D01*
X197811217Y-26742099D01*
X197601188Y-26846687D01*
X197403128Y-26971739D01*
X197218704Y-27116359D01*
X197049584Y-27279651D01*
X196897438Y-27460719D01*
X196844451Y-27533960D01*
X196720347Y-27734829D01*
X196618055Y-27947556D01*
X196537912Y-28171101D01*
X196480253Y-28404430D01*
X196445411Y-28646504D01*
X196433723Y-28896287D01*
X195774039Y-28896287D01*
X195773992Y-28890000D01*
X195775007Y-28756042D01*
X195778501Y-28641034D01*
X195785140Y-28538948D01*
X195795592Y-28443705D01*
X195810524Y-28349223D01*
X195830604Y-28249421D01*
X195856499Y-28138217D01*
X195873099Y-28073308D01*
X195954658Y-27815311D01*
X196057812Y-27568471D01*
X196181515Y-27333927D01*
X196324723Y-27112817D01*
X196486388Y-26906282D01*
X196665467Y-26715459D01*
X196860913Y-26541488D01*
X197071680Y-26385509D01*
X197296723Y-26248659D01*
X197534997Y-26132078D01*
X197785456Y-26036905D01*
X197850213Y-26016264D01*
X197983313Y-25978217D01*
X198116303Y-25946773D01*
X198255485Y-25920680D01*
X198407162Y-25898687D01*
X198577634Y-25879541D01*
X198599301Y-25878385D01*
X198644741Y-25877602D01*
X198705867Y-25877535D01*
X198777453Y-25878185D01*
G36*
X198777453Y-25878185D02*
G01*
X198854268Y-25879551D01*
X198912156Y-25881308D01*
X199195336Y-25904039D01*
X199468990Y-25950027D01*
X199733071Y-26019256D01*
X199987535Y-26111711D01*
X200232336Y-26227374D01*
X200467429Y-26366230D01*
X200692768Y-26528263D01*
X200751999Y-26576944D01*
X200876139Y-26690742D01*
X201001212Y-26819845D01*
X201122191Y-26958631D01*
X201234049Y-27101480D01*
X201331760Y-27242772D01*
X201435518Y-27420766D01*
X201533986Y-27624951D01*
X201619244Y-27840343D01*
X201689173Y-28060958D01*
X201741654Y-28280809D01*
X201774568Y-28493911D01*
X201784070Y-28581930D01*
X204827508Y-28588318D01*
X204855707Y-28412893D01*
X204881904Y-28270933D01*
X204947795Y-28013606D01*
X205036773Y-27763051D01*
X205149865Y-27516132D01*
X205284820Y-27278794D01*
X205439973Y-27055867D01*
X205614117Y-26848597D01*
X205806096Y-26658133D01*
X206014752Y-26485622D01*
X206238927Y-26332212D01*
X206477466Y-26199051D01*
X206650741Y-26118017D01*
X206878532Y-26029599D01*
X207106746Y-25962634D01*
X207339847Y-25916075D01*
X207582301Y-25888877D01*
X207838575Y-25879991D01*
X208040011Y-25886406D01*
X208312016Y-25916196D01*
X208577181Y-25969899D01*
X208834539Y-26047111D01*
X209083126Y-26147430D01*
X209321976Y-26270450D01*
X209550123Y-26415767D01*
X209766602Y-26582979D01*
X209970448Y-26771681D01*
X209988320Y-26790012D01*
X210035995Y-26840957D01*
X210086514Y-26897323D01*
X210137043Y-26955689D01*
X210184744Y-27012636D01*
X210226782Y-27064741D01*
X210260321Y-27108584D01*
X210282524Y-27140743D01*
X210290555Y-27157798D01*
X210290303Y-27158360D01*
X210277487Y-27169590D01*
X210247541Y-27192382D01*
X210203595Y-27224448D01*
X210148780Y-27263499D01*
X210086223Y-27307246D01*
X210018965Y-27353942D01*
X209954479Y-27398834D01*
X209897390Y-27438692D01*
X209852126Y-27470425D01*
X209823116Y-27490942D01*
X209764340Y-27532971D01*
X209670939Y-27416164D01*
X209567389Y-27295259D01*
X209395263Y-27125839D01*
X209207155Y-26975283D01*
X209004452Y-26844554D01*
X208788539Y-26734612D01*
X208560803Y-26646419D01*
X208344361Y-26586283D01*
X208109431Y-26545510D01*
X207873023Y-26528985D01*
X207636829Y-26536477D01*
X207402540Y-26567753D01*
X207171849Y-26622583D01*
X206946446Y-26700734D01*
X206728025Y-26801975D01*
X206518278Y-26926074D01*
X206469959Y-26958904D01*
X206281362Y-27105601D01*
X206110095Y-27269839D01*
X205956965Y-27450342D01*
X205822776Y-27645836D01*
X205708333Y-27855044D01*
X205614441Y-28076693D01*
X205541905Y-28309507D01*
X205491531Y-28552211D01*
X205490057Y-28561874D01*
X205479278Y-28660616D01*
X205472930Y-28775138D01*
X205471009Y-28897364D01*
X205473514Y-29019217D01*
X205480441Y-29132621D01*
X205491787Y-29229501D01*
X205501734Y-29288390D01*
X205557562Y-29531320D01*
X205635286Y-29761892D01*
X205734951Y-29980198D01*
X205856605Y-30186329D01*
X206000294Y-30380376D01*
X206166063Y-30562432D01*
X206283789Y-30671852D01*
X206471605Y-30818576D01*
X206672006Y-30944584D01*
X206883283Y-31049358D01*
X207103730Y-31132382D01*
X207331637Y-31193139D01*
X207565295Y-31231111D01*
X207802998Y-31245783D01*
X208043037Y-31236637D01*
X208283703Y-31203156D01*
X208393698Y-31179030D01*
X208609496Y-31113543D01*
X208820655Y-31025971D01*
X209024171Y-30918182D01*
X209217036Y-30792042D01*
X209396246Y-30649421D01*
X209558794Y-30492184D01*
X209701675Y-30322200D01*
X209729123Y-30288303D01*
X209752901Y-30263699D01*
X209767402Y-30254307D01*
X209777304Y-30258908D01*
X209805790Y-30276167D01*
X209849498Y-30304402D01*
X209905485Y-30341675D01*
X209970808Y-30386046D01*
X210042524Y-30435576D01*
X210302932Y-30616844D01*
X210269478Y-30661912D01*
X210174858Y-30783091D01*
X209989266Y-30989751D01*
X209787189Y-31178042D01*
X209569838Y-31347061D01*
X209338420Y-31495906D01*
X209094147Y-31623675D01*
X208838228Y-31729465D01*
X208633122Y-31795090D01*
X208373425Y-31855017D01*
X208110256Y-31891128D01*
X207845378Y-31903667D01*
X207580553Y-31892875D01*
X207317545Y-31858994D01*
X207058117Y-31802268D01*
X206804030Y-31722938D01*
X206557049Y-31621248D01*
X206318935Y-31497438D01*
X206091451Y-31351753D01*
X205894219Y-31199152D01*
X205699248Y-31019117D01*
X205520143Y-30822303D01*
X205358399Y-30610861D01*
X205215515Y-30386942D01*
X205092987Y-30152697D01*
X204992313Y-29910275D01*
X204914990Y-29661829D01*
X204912165Y-29650779D01*
X204897466Y-29588553D01*
X204882185Y-29517322D01*
X204867359Y-29442671D01*
X204854024Y-29370187D01*
X204843217Y-29305455D01*
X204835972Y-29254060D01*
X204833327Y-29221589D01*
X204833327Y-29191782D01*
X201790836Y-29191782D01*
X201785000Y-29220074D01*
X201783988Y-29225397D01*
X201778950Y-29256637D01*
X201772249Y-29302554D01*
X201765051Y-29355247D01*
X201754024Y-29430146D01*
X201702211Y-29676335D01*
X201627484Y-29921408D01*
X201531369Y-30161846D01*
X201415391Y-30394129D01*
X201281077Y-30614736D01*
X201129953Y-30820148D01*
X201110044Y-30844270D01*
X201029767Y-30934595D01*
X200936902Y-31030592D01*
X200837970Y-31125914D01*
X200739494Y-31214214D01*
X200647993Y-31289149D01*
X200455638Y-31424331D01*
X200234594Y-31553026D01*
X200000965Y-31664094D01*
X199759177Y-31755442D01*
X199513655Y-31824981D01*
X199442871Y-31841138D01*
X199339507Y-31862148D01*
X199242415Y-31877876D01*
X199145327Y-31888985D01*
X199041973Y-31896137D01*
X198926086Y-31899991D01*
X198791396Y-31901212D01*
X198763368Y-31901206D01*
X198641922Y-31900200D01*
X198538392Y-31897132D01*
X198446820Y-31891407D01*
X198361249Y-31882425D01*
X198275719Y-31869590D01*
X198184272Y-31852304D01*
X198080951Y-31829970D01*
X197961074Y-31800424D01*
X197702524Y-31718597D01*
X197455568Y-31615287D01*
X197221240Y-31491516D01*
X197000575Y-31348307D01*
X196794605Y-31186684D01*
X196604368Y-31007667D01*
X196430895Y-30812281D01*
X196275223Y-30601548D01*
X196138385Y-30376489D01*
X196021416Y-30138129D01*
X195925349Y-29887490D01*
X195851221Y-29625594D01*
X195829925Y-29531180D01*
X195810155Y-29430869D01*
X195795421Y-29336106D01*
X195785081Y-29240763D01*
X195778491Y-29138714D01*
X195775009Y-29023835D01*
X195774039Y-28896287D01*
X196433723Y-28896287D01*
X196433930Y-28929179D01*
X196448784Y-29174521D01*
X196486562Y-29412348D01*
X196546499Y-29641413D01*
X196627829Y-29860470D01*
X196729784Y-30068269D01*
X196851598Y-30263564D01*
X196992505Y-30445108D01*
X197151739Y-30611652D01*
X197328531Y-30761949D01*
X197522117Y-30894752D01*
X197731729Y-31008812D01*
X197777506Y-31030152D01*
X197999905Y-31117366D01*
X198229926Y-31181748D01*
X198465264Y-31223315D01*
X198703615Y-31242081D01*
X198942677Y-31238062D01*
X199180145Y-31211274D01*
X199413714Y-31161733D01*
X199641083Y-31089453D01*
X199859946Y-30994451D01*
X200013967Y-30910519D01*
X200209764Y-30780004D01*
X200388626Y-30632031D01*
X200549860Y-30467848D01*
X200692776Y-30288700D01*
X200816682Y-30095831D01*
X200920887Y-29890488D01*
X201004700Y-29673916D01*
X201067429Y-29447360D01*
X201108383Y-29212066D01*
X201126871Y-28969280D01*
X201122201Y-28720247D01*
X201114031Y-28623843D01*
X201077149Y-28384518D01*
X201018019Y-28155051D01*
X200937689Y-27936489D01*
X200837206Y-27729880D01*
X200717616Y-27536270D01*
X200579965Y-27356706D01*
X200425300Y-27192235D01*
X200254668Y-27043904D01*
X200069114Y-26912759D01*
X199869686Y-26799848D01*
X199657430Y-26706217D01*
X199433392Y-26632914D01*
X199198620Y-26580984D01*
X198954159Y-26551476D01*
X198935626Y-26550159D01*
X198871383Y-26545901D01*
X198816051Y-26542689D01*
X198775019Y-26540816D01*
X198753674Y-26540573D01*
X198738000Y-26541652D01*
X198700391Y-26544231D01*
X198649007Y-26547752D01*
X198590208Y-26551777D01*
X198496429Y-26560076D01*
X198260505Y-26597898D01*
X198031545Y-26658871D01*
X197811217Y-26742099D01*
X197601188Y-26846687D01*
X197403128Y-26971739D01*
X197218704Y-27116359D01*
X197049584Y-27279651D01*
X196897438Y-27460719D01*
X196844451Y-27533960D01*
X196720347Y-27734829D01*
X196618055Y-27947556D01*
X196537912Y-28171101D01*
X196480253Y-28404430D01*
X196445411Y-28646504D01*
X196433723Y-28896287D01*
X195774039Y-28896287D01*
X195773992Y-28890000D01*
X195775007Y-28756042D01*
X195778501Y-28641034D01*
X195785140Y-28538948D01*
X195795592Y-28443705D01*
X195810524Y-28349223D01*
X195830604Y-28249421D01*
X195856499Y-28138217D01*
X195873099Y-28073308D01*
X195954658Y-27815311D01*
X196057812Y-27568471D01*
X196181515Y-27333927D01*
X196324723Y-27112817D01*
X196486388Y-26906282D01*
X196665467Y-26715459D01*
X196860913Y-26541488D01*
X197071680Y-26385509D01*
X197296723Y-26248659D01*
X197534997Y-26132078D01*
X197785456Y-26036905D01*
X197850213Y-26016264D01*
X197983313Y-25978217D01*
X198116303Y-25946773D01*
X198255485Y-25920680D01*
X198407162Y-25898687D01*
X198577634Y-25879541D01*
X198599301Y-25878385D01*
X198644741Y-25877602D01*
X198705867Y-25877535D01*
X198777453Y-25878185D01*
G37*
D11*
%TO.C,SW5*%
X192000000Y-67950000D02*
X192000000Y-67010000D01*
X193600000Y-66605000D02*
X194806667Y-66605000D01*
X193600000Y-68785000D02*
X194806667Y-68785000D01*
X193600000Y-65765000D02*
X194806667Y-65765000D01*
X193600000Y-66485000D02*
X194806667Y-66485000D01*
X194806667Y-66845000D02*
X194806667Y-65575000D01*
X198820000Y-65410000D02*
X198820000Y-64100000D01*
X197220000Y-68115000D02*
X197220000Y-69385000D01*
X191760000Y-71100000D02*
X191760000Y-69717000D01*
X192000000Y-70860000D02*
X198820000Y-70860000D01*
X198820000Y-67950000D02*
X198820000Y-67010000D01*
X192000000Y-64100000D02*
X198820000Y-64100000D01*
X193600000Y-69025000D02*
X194806667Y-69025000D01*
X193600000Y-68425000D02*
X194806667Y-68425000D01*
X193600000Y-66125000D02*
X194806667Y-66125000D01*
X193600000Y-65645000D02*
X194806667Y-65645000D01*
X193600000Y-68115000D02*
X197220000Y-68115000D01*
X198820000Y-70860000D02*
X198820000Y-69550000D01*
X193600000Y-66365000D02*
X194806667Y-66365000D01*
X193600000Y-69145000D02*
X194806667Y-69145000D01*
X191760000Y-71100000D02*
X193143000Y-71100000D01*
X193600000Y-68305000D02*
X194806667Y-68305000D01*
X197220000Y-65575000D02*
X197220000Y-66845000D01*
X197220000Y-69385000D02*
X193600000Y-69385000D01*
X193600000Y-68545000D02*
X194806667Y-68545000D01*
X192000000Y-65410000D02*
X192000000Y-64100000D01*
X193600000Y-69265000D02*
X194806667Y-69265000D01*
X197220000Y-66845000D02*
X193600000Y-66845000D01*
X193600000Y-68905000D02*
X194806667Y-68905000D01*
X192000000Y-70860000D02*
X192000000Y-69550000D01*
X193600000Y-68665000D02*
X194806667Y-68665000D01*
X193600000Y-66725000D02*
X194806667Y-66725000D01*
X194806667Y-69385000D02*
X194806667Y-68115000D01*
X193600000Y-68185000D02*
X194806667Y-68185000D01*
X193600000Y-65885000D02*
X194806667Y-65885000D01*
X193600000Y-66845000D02*
X193600000Y-65575000D01*
X193600000Y-66245000D02*
X194806667Y-66245000D01*
X193600000Y-66005000D02*
X194806667Y-66005000D01*
X193600000Y-69385000D02*
X193600000Y-68115000D01*
X193600000Y-65575000D02*
X197220000Y-65575000D01*
%TD*%
M02*
