%TF.GenerationSoftware,KiCad,Pcbnew,7.0.10*%
%TF.CreationDate,2024-02-29T16:26:42-05:00*%
%TF.ProjectId,Telstar Alpha,54656c73-7461-4722-9041-6c7068612e6b,0.1*%
%TF.SameCoordinates,Original*%
%TF.FileFunction,Soldermask,Bot*%
%TF.FilePolarity,Negative*%
%FSLAX46Y46*%
G04 Gerber Fmt 4.6, Leading zero omitted, Abs format (unit mm)*
G04 Created by KiCad (PCBNEW 7.0.10) date 2024-02-29 16:26:42*
%MOMM*%
%LPD*%
G01*
G04 APERTURE LIST*
G04 Aperture macros list*
%AMRoundRect*
0 Rectangle with rounded corners*
0 $1 Rounding radius*
0 $2 $3 $4 $5 $6 $7 $8 $9 X,Y pos of 4 corners*
0 Add a 4 corners polygon primitive as box body*
4,1,4,$2,$3,$4,$5,$6,$7,$8,$9,$2,$3,0*
0 Add four circle primitives for the rounded corners*
1,1,$1+$1,$2,$3*
1,1,$1+$1,$4,$5*
1,1,$1+$1,$6,$7*
1,1,$1+$1,$8,$9*
0 Add four rect primitives between the rounded corners*
20,1,$1+$1,$2,$3,$4,$5,0*
20,1,$1+$1,$4,$5,$6,$7,0*
20,1,$1+$1,$6,$7,$8,$9,0*
20,1,$1+$1,$8,$9,$2,$3,0*%
G04 Aperture macros list end*
%ADD10C,0.150000*%
%ADD11C,2.865000*%
%ADD12R,2.160000X1.120000*%
%ADD13C,1.600000*%
%ADD14O,1.600000X1.600000*%
%ADD15O,2.154000X4.104000*%
%ADD16O,3.604000X1.904000*%
%ADD17R,3.500000X3.500000*%
%ADD18RoundRect,0.750000X-1.000000X0.750000X-1.000000X-0.750000X1.000000X-0.750000X1.000000X0.750000X0*%
%ADD19RoundRect,0.750000X-0.750000X1.000000X-0.750000X-1.000000X0.750000X-1.000000X0.750000X1.000000X0*%
%ADD20O,3.500000X3.500000*%
%ADD21R,1.905000X2.000000*%
%ADD22O,1.905000X2.000000*%
%ADD23R,2.400000X1.600000*%
%ADD24O,2.400000X1.600000*%
%ADD25C,2.000000*%
%ADD26O,2.200000X2.200000*%
%ADD27R,2.200000X2.200000*%
%ADD28RoundRect,1.000000X-2.828427X1.414214X1.414214X-2.828427X2.828427X-1.414214X-1.414214X2.828427X0*%
%ADD29RoundRect,0.562500X-0.176777X-0.972272X0.972272X0.176777X0.176777X0.972272X-0.972272X-0.176777X0*%
%ADD30R,1.500000X1.500000*%
%ADD31C,1.500000*%
%ADD32RoundRect,0.250001X-0.899999X-0.899999X0.899999X-0.899999X0.899999X0.899999X-0.899999X0.899999X0*%
%ADD33R,1.600000X1.600000*%
%ADD34R,1.700000X1.700000*%
%ADD35O,1.700000X1.700000*%
%ADD36C,4.000000*%
%ADD37RoundRect,0.400000X-0.600000X-2.100000X0.600000X-2.100000X0.600000X2.100000X-0.600000X2.100000X0*%
%ADD38RoundRect,0.562500X-0.972272X0.176777X0.176777X-0.972272X0.972272X-0.176777X-0.176777X0.972272X0*%
%ADD39RoundRect,1.000000X1.414214X2.828427X-2.828427X-1.414214X-1.414214X-2.828427X2.828427X1.414214X0*%
G04 APERTURE END LIST*
D10*
X116720000Y-32713000D02*
X126320000Y-32713000D01*
X126320000Y-38713000D01*
X116720000Y-38713000D01*
X116720000Y-32713000D01*
G36*
X116720000Y-32713000D02*
G01*
X126320000Y-32713000D01*
X126320000Y-38713000D01*
X116720000Y-38713000D01*
X116720000Y-32713000D01*
G37*
D11*
%TO.C,SW2*%
X121250000Y-134390000D03*
X129170000Y-134390000D03*
X137090000Y-134390000D03*
X145010000Y-134390000D03*
X121250000Y-125750000D03*
X129170000Y-125750000D03*
X137090000Y-125750000D03*
X145010000Y-125750000D03*
%TD*%
%TO.C,SW3*%
X117320000Y-107390000D03*
X125240000Y-107390000D03*
X133160000Y-107390000D03*
X141080000Y-107390000D03*
X149000000Y-107390000D03*
X117320000Y-98750000D03*
X125240000Y-98750000D03*
X133160000Y-98750000D03*
X141080000Y-98750000D03*
X149000000Y-98750000D03*
%TD*%
D12*
%TO.C,SW5*%
X192045000Y-68750000D03*
X192045000Y-66210000D03*
X198775000Y-66210000D03*
X198775000Y-68750000D03*
%TD*%
D13*
%TO.C,R15*%
X144950000Y-90500000D03*
D14*
X160190000Y-90500000D03*
%TD*%
D15*
%TO.C,J6*%
X117757000Y-67134000D03*
D16*
X122257000Y-67134000D03*
%TD*%
D13*
%TO.C,R6*%
X228380000Y-93660000D03*
D14*
X243620000Y-93660000D03*
%TD*%
D17*
%TO.C,J2*%
X233750000Y-30250000D03*
D18*
X233750000Y-24250000D03*
D19*
X229050000Y-27250000D03*
%TD*%
D13*
%TO.C,R7*%
X59370000Y-111440000D03*
D14*
X74610000Y-111440000D03*
%TD*%
D15*
%TO.C,J5*%
X117549900Y-81134000D03*
D16*
X122049900Y-81134000D03*
%TD*%
D13*
%TO.C,R10*%
X144950000Y-67166700D03*
D14*
X160190000Y-67166700D03*
%TD*%
D13*
%TO.C,R3*%
X208722000Y-88970000D03*
D14*
X223962000Y-88970000D03*
%TD*%
D20*
%TO.C,U1*%
X121520000Y-35283000D03*
D21*
X118980000Y-51943000D03*
D22*
X121520000Y-51943000D03*
X124060000Y-51943000D03*
%TD*%
D23*
%TO.C,U4*%
X173525000Y-80500000D03*
D24*
X173525000Y-83040000D03*
X173525000Y-85580000D03*
X173525000Y-88120000D03*
X173525000Y-90660000D03*
X173525000Y-93200000D03*
X173525000Y-95740000D03*
X181145000Y-95740000D03*
X181145000Y-93200000D03*
X181145000Y-90660000D03*
X181145000Y-88120000D03*
X181145000Y-85580000D03*
X181145000Y-83040000D03*
X181145000Y-80500000D03*
%TD*%
D25*
%TO.C,C4*%
X198360000Y-125710000D03*
X198360000Y-118210000D03*
%TD*%
D26*
%TO.C,D1*%
X244080000Y-42750000D03*
D27*
X233920000Y-42750000D03*
%TD*%
D28*
%TO.C,RV2*%
X244646447Y-111411255D03*
X228835539Y-127929269D03*
D29*
X228711795Y-102448676D03*
X224115601Y-107044870D03*
X219519407Y-111641064D03*
%TD*%
D30*
%TO.C,Q1*%
X232000000Y-82540000D03*
D31*
X232000000Y-80000000D03*
X232000000Y-77460000D03*
%TD*%
D32*
%TO.C,J4*%
X244000000Y-29500000D03*
%TD*%
D33*
%TO.C,D3*%
X96940000Y-104750000D03*
D14*
X104560000Y-104750000D03*
%TD*%
D13*
%TO.C,R4*%
X208722000Y-93660000D03*
D14*
X223962000Y-93660000D03*
%TD*%
D30*
%TO.C,Q2*%
X134000000Y-81040000D03*
D31*
X134000000Y-78500000D03*
X134000000Y-75960000D03*
%TD*%
D32*
%TO.C,J3*%
X26350000Y-29500000D03*
%TD*%
D13*
%TO.C,R9*%
X144980000Y-62500000D03*
D14*
X160220000Y-62500000D03*
%TD*%
D34*
%TO.C,J1*%
X26350000Y-48702000D03*
D35*
X26350000Y-51242000D03*
%TD*%
D36*
%TO.C,SW4*%
X181500000Y-110050000D03*
X178100000Y-118150000D03*
X181500000Y-118150000D03*
X181500000Y-126250000D03*
%TD*%
D23*
%TO.C,U3*%
X190000000Y-80500000D03*
D24*
X190000000Y-83040000D03*
X190000000Y-85580000D03*
X190000000Y-88120000D03*
X190000000Y-90660000D03*
X190000000Y-93200000D03*
X190000000Y-95740000D03*
X197620000Y-95740000D03*
X197620000Y-93200000D03*
X197620000Y-90660000D03*
X197620000Y-88120000D03*
X197620000Y-85580000D03*
X197620000Y-83040000D03*
X197620000Y-80500000D03*
%TD*%
D31*
%TO.C,Y1*%
X194850000Y-109450000D03*
X194850000Y-104550000D03*
%TD*%
D13*
%TO.C,R8*%
X59370000Y-116190000D03*
D14*
X74610000Y-116190000D03*
%TD*%
D37*
%TO.C,SW1*%
X87722000Y-118500000D03*
X91278000Y-118500000D03*
%TD*%
D35*
%TO.C,LS1*%
X239500000Y-77235000D03*
D34*
X239500000Y-79775000D03*
%TD*%
D13*
%TO.C,R11*%
X144950000Y-71833300D03*
D14*
X160190000Y-71833300D03*
%TD*%
D25*
%TO.C,C1*%
X220092000Y-74000000D03*
X212592000Y-74000000D03*
%TD*%
D13*
%TO.C,R14*%
X144950000Y-85833300D03*
D14*
X160190000Y-85833300D03*
%TD*%
D33*
%TO.C,C2*%
X165865100Y-113730000D03*
D13*
X163365100Y-113730000D03*
%TD*%
D23*
%TO.C,U2*%
X168340000Y-30380000D03*
D24*
X168340000Y-32920000D03*
X168340000Y-35460000D03*
X168340000Y-38000000D03*
X168340000Y-40540000D03*
X168340000Y-43080000D03*
X168340000Y-45620000D03*
X168340000Y-48160000D03*
X168340000Y-50700000D03*
X168340000Y-53240000D03*
X168340000Y-55780000D03*
X168340000Y-58320000D03*
X168340000Y-60860000D03*
X168340000Y-63400000D03*
X183580000Y-63400000D03*
X183580000Y-60860000D03*
X183580000Y-58320000D03*
X183580000Y-55780000D03*
X183580000Y-53240000D03*
X183580000Y-50700000D03*
X183580000Y-48160000D03*
X183580000Y-45620000D03*
X183580000Y-43080000D03*
X183580000Y-40540000D03*
X183580000Y-38000000D03*
X183580000Y-35460000D03*
X183580000Y-32920000D03*
X183580000Y-30380000D03*
%TD*%
D13*
%TO.C,R13*%
X144950000Y-81166700D03*
D14*
X160190000Y-81166700D03*
%TD*%
D25*
%TO.C,C3*%
X192000000Y-125660000D03*
X192000000Y-118160000D03*
%TD*%
D13*
%TO.C,R2*%
X208722000Y-84280000D03*
D14*
X223962000Y-84280000D03*
%TD*%
D25*
%TO.C,C6*%
X221000000Y-134000000D03*
X213500000Y-134000000D03*
%TD*%
D13*
%TO.C,R1*%
X208722000Y-79590000D03*
D14*
X223962000Y-79590000D03*
%TD*%
D13*
%TO.C,R5*%
X228380000Y-88970000D03*
D14*
X243620000Y-88970000D03*
%TD*%
D33*
%TO.C,D2*%
X96940000Y-109000000D03*
D14*
X104560000Y-109000000D03*
%TD*%
D25*
%TO.C,C5*%
X48000000Y-130490000D03*
X55500000Y-130490000D03*
%TD*%
D13*
%TO.C,R12*%
X144950000Y-76500000D03*
D14*
X160190000Y-76500000D03*
%TD*%
D38*
%TO.C,RV1*%
X39258936Y-102448676D03*
X43855130Y-107044870D03*
X48451324Y-111641064D03*
D39*
X23324284Y-111411255D03*
X39135192Y-127929269D03*
%TD*%
M02*
