%TF.GenerationSoftware,KiCad,Pcbnew,7.0.10*%
%TF.CreationDate,2024-02-29T16:26:46-05:00*%
%TF.ProjectId,Telstar Alpha,54656c73-7461-4722-9041-6c7068612e6b,0.1*%
%TF.SameCoordinates,Original*%
%TF.FileFunction,Drillmap*%
%TF.FilePolarity,Positive*%
%FSLAX45Y45*%
G04 Gerber Fmt 4.5, Leading zero omitted, Abs format (unit mm)*
G04 Created by KiCad (PCBNEW 7.0.10) date 2024-02-29 16:26:46*
%MOMM*%
%LPD*%
G01*
G04 APERTURE LIST*
%ADD10C,0.200000*%
%ADD11C,0.100000*%
%ADD12C,0.010000*%
%ADD13C,0.110000*%
%ADD14C,0.125000*%
%ADD15C,0.130000*%
%ADD16C,0.191000*%
G04 APERTURE END LIST*
D10*
X3905000Y-8731000D02*
G75*
G03*
X4540000Y-9366000I635000J0D01*
G01*
X20900000Y-12750000D02*
G75*
G03*
X20200000Y-12750000I-350000J0D01*
G01*
X20200000Y-12750000D02*
G75*
G03*
X20900000Y-12750000I350000J0D01*
G01*
D11*
X9010400Y-8731000D02*
X9005320Y-6912360D01*
X2000000Y-2000000D02*
X5500000Y-2000000D01*
X2000000Y-14100000D02*
X2000000Y-2000000D01*
X7500000Y-2000000D02*
X24800000Y-2000000D01*
X9005320Y-6912360D02*
X3899920Y-6912360D01*
X8948621Y-3346200D02*
G75*
G03*
X8665779Y-3346200I-141421J0D01*
G01*
X8665779Y-3346200D02*
G75*
G03*
X8948621Y-3346200I141421J0D01*
G01*
D10*
X23000000Y-5150000D02*
G75*
G03*
X20400000Y-5150000I-1300000J0D01*
G01*
X20400000Y-5150000D02*
G75*
G03*
X23000000Y-5150000I1300000J0D01*
G01*
D11*
X4540000Y-9366000D02*
X8375400Y-9366000D01*
X24800000Y-14100000D02*
X2000000Y-14100000D01*
D10*
X22600000Y-2525000D02*
G75*
G03*
X22300000Y-2525000I-150000J0D01*
G01*
X22300000Y-2525000D02*
G75*
G03*
X22600000Y-2525000I150000J0D01*
G01*
D11*
X7500000Y-4000000D02*
X7500000Y-2000000D01*
X24800000Y-2000000D02*
X24800000Y-14100000D01*
D10*
X8375400Y-9366000D02*
G75*
G03*
X9010400Y-8731000I0J635000D01*
G01*
D11*
X4241421Y-3350000D02*
G75*
G03*
X3958579Y-3350000I-141421J0D01*
G01*
X3958579Y-3350000D02*
G75*
G03*
X4241421Y-3350000I141421J0D01*
G01*
D10*
X6650000Y-12750000D02*
G75*
G03*
X5950000Y-12750000I-350000J0D01*
G01*
X5950000Y-12750000D02*
G75*
G03*
X6650000Y-12750000I350000J0D01*
G01*
X24275000Y-2525000D02*
G75*
G03*
X23975000Y-2525000I-150000J0D01*
G01*
X23975000Y-2525000D02*
G75*
G03*
X24275000Y-2525000I150000J0D01*
G01*
X13750000Y-5150000D02*
G75*
G03*
X13050000Y-5150000I-350000J0D01*
G01*
X13050000Y-5150000D02*
G75*
G03*
X13750000Y-5150000I350000J0D01*
G01*
D11*
X5500000Y-2000000D02*
X5500000Y-4000000D01*
X5500000Y-4000000D02*
X7500000Y-4000000D01*
X8941421Y-5505200D02*
G75*
G03*
X8658579Y-5505200I-141421J0D01*
G01*
X8658579Y-5505200D02*
G75*
G03*
X8941421Y-5505200I141421J0D01*
G01*
X4249621Y-5556000D02*
G75*
G03*
X3966779Y-5556000I-141421J0D01*
G01*
X3966779Y-5556000D02*
G75*
G03*
X4249621Y-5556000I141421J0D01*
G01*
X3899920Y-6912360D02*
X3905000Y-8731000D01*
D12*
X11545700Y-7228400D02*
X11545700Y-7048400D01*
X11545700Y-7048400D02*
X11375700Y-7048400D01*
X11545700Y-6378400D02*
X11545700Y-6198400D01*
X11545700Y-6198400D02*
X11375700Y-6198400D01*
X11375700Y-7228400D02*
X11545700Y-7228400D01*
X11375700Y-7048400D02*
X11375700Y-7228400D01*
X11375700Y-6378400D02*
X11545700Y-6378400D01*
X11375700Y-6198400D02*
X11375700Y-6378400D01*
X11524990Y-8628400D02*
X11524990Y-8448400D01*
X11524990Y-8448400D02*
X11354990Y-8448400D01*
X11524990Y-7778400D02*
X11524990Y-7598400D01*
X11524990Y-7598400D02*
X11354990Y-7598400D01*
X11354990Y-8628400D02*
X11524990Y-8628400D01*
X11354990Y-8448400D02*
X11354990Y-8628400D01*
X11354990Y-7778400D02*
X11524990Y-7778400D01*
X11354990Y-7598400D02*
X11354990Y-7778400D01*
D10*
D11*
X16094000Y-4661000D02*
X16124000Y-4691000D01*
X16124000Y-4661000D02*
X16094000Y-4691000D01*
X17177310Y-4445000D02*
X17207310Y-4475000D01*
X17207310Y-4445000D02*
X17177310Y-4475000D01*
X17565000Y-8525000D02*
X17595000Y-8555000D01*
X17595000Y-8525000D02*
X17565000Y-8555000D01*
X17656680Y-5422950D02*
X17686680Y-5452950D01*
X17686680Y-5422950D02*
X17656680Y-5452950D01*
X17740510Y-5124230D02*
X17770510Y-5154230D01*
X17770510Y-5124230D02*
X17740510Y-5154230D01*
X17865000Y-8765000D02*
X17895000Y-8795000D01*
X17895000Y-8765000D02*
X17865000Y-8795000D01*
X11825000Y-3400000D02*
G75*
G03*
X11775000Y-3400000I-25000J0D01*
G01*
X11775000Y-3400000D02*
G75*
G03*
X11825000Y-3400000I25000J0D01*
G01*
X13845000Y-8200000D02*
G75*
G03*
X13795000Y-8200000I-25000J0D01*
G01*
X13795000Y-8200000D02*
G75*
G03*
X13845000Y-8200000I25000J0D01*
G01*
X14739100Y-6036770D02*
G75*
G03*
X14689100Y-6036770I-25000J0D01*
G01*
X14689100Y-6036770D02*
G75*
G03*
X14739100Y-6036770I25000J0D01*
G01*
X16570310Y-5337230D02*
G75*
G03*
X16520310Y-5337230I-25000J0D01*
G01*
X16520310Y-5337230D02*
G75*
G03*
X16570310Y-5337230I25000J0D01*
G01*
X18646670Y-6644870D02*
G75*
G03*
X18596670Y-6644870I-25000J0D01*
G01*
X18596670Y-6644870D02*
G75*
G03*
X18646670Y-6644870I25000J0D01*
G01*
X20373520Y-6476600D02*
G75*
G03*
X20323520Y-6476600I-25000J0D01*
G01*
X20323520Y-6476600D02*
G75*
G03*
X20373520Y-6476600I25000J0D01*
G01*
X5937000Y-11104000D02*
X5937000Y-11184000D01*
X5897000Y-11144000D02*
X5977000Y-11144000D01*
X5937000Y-11579000D02*
X5937000Y-11659000D01*
X5897000Y-11619000D02*
X5977000Y-11619000D01*
X7461000Y-11104000D02*
X7461000Y-11184000D01*
X7421000Y-11144000D02*
X7501000Y-11144000D01*
X7461000Y-11579000D02*
X7461000Y-11659000D01*
X7421000Y-11619000D02*
X7501000Y-11619000D01*
X9694000Y-10435000D02*
X9694000Y-10515000D01*
X9654000Y-10475000D02*
X9734000Y-10475000D01*
X9694000Y-10860000D02*
X9694000Y-10940000D01*
X9654000Y-10900000D02*
X9734000Y-10900000D01*
X10456000Y-10435000D02*
X10456000Y-10515000D01*
X10416000Y-10475000D02*
X10496000Y-10475000D01*
X10456000Y-10860000D02*
X10456000Y-10940000D01*
X10416000Y-10900000D02*
X10496000Y-10900000D01*
X13400000Y-7556000D02*
X13400000Y-7636000D01*
X13360000Y-7596000D02*
X13440000Y-7596000D01*
X13400000Y-7810000D02*
X13400000Y-7890000D01*
X13360000Y-7850000D02*
X13440000Y-7850000D01*
X13400000Y-8064000D02*
X13400000Y-8144000D01*
X13360000Y-8104000D02*
X13440000Y-8104000D01*
X14495000Y-6676670D02*
X14495000Y-6756670D01*
X14455000Y-6716670D02*
X14535000Y-6716670D01*
X14495000Y-7143330D02*
X14495000Y-7223330D01*
X14455000Y-7183330D02*
X14535000Y-7183330D01*
X14495000Y-7610000D02*
X14495000Y-7690000D01*
X14455000Y-7650000D02*
X14535000Y-7650000D01*
X14495000Y-8076670D02*
X14495000Y-8156670D01*
X14455000Y-8116670D02*
X14535000Y-8116670D01*
X14495000Y-8543330D02*
X14495000Y-8623330D01*
X14455000Y-8583330D02*
X14535000Y-8583330D01*
X14495000Y-9010000D02*
X14495000Y-9090000D01*
X14455000Y-9050000D02*
X14535000Y-9050000D01*
X14498000Y-6210000D02*
X14498000Y-6290000D01*
X14458000Y-6250000D02*
X14538000Y-6250000D01*
X16019000Y-6676670D02*
X16019000Y-6756670D01*
X15979000Y-6716670D02*
X16059000Y-6716670D01*
X16019000Y-7143330D02*
X16019000Y-7223330D01*
X15979000Y-7183330D02*
X16059000Y-7183330D01*
X16019000Y-7610000D02*
X16019000Y-7690000D01*
X15979000Y-7650000D02*
X16059000Y-7650000D01*
X16019000Y-8076670D02*
X16019000Y-8156670D01*
X15979000Y-8116670D02*
X16059000Y-8116670D01*
X16019000Y-8543330D02*
X16019000Y-8623330D01*
X15979000Y-8583330D02*
X16059000Y-8583330D01*
X16019000Y-9010000D02*
X16019000Y-9090000D01*
X15979000Y-9050000D02*
X16059000Y-9050000D01*
X16022000Y-6210000D02*
X16022000Y-6290000D01*
X15982000Y-6250000D02*
X16062000Y-6250000D01*
X16336510Y-11333000D02*
X16336510Y-11413000D01*
X16296510Y-11373000D02*
X16376510Y-11373000D01*
X16586510Y-11333000D02*
X16586510Y-11413000D01*
X16546510Y-11373000D02*
X16626510Y-11373000D01*
X16834000Y-2998000D02*
X16834000Y-3078000D01*
X16794000Y-3038000D02*
X16874000Y-3038000D01*
X16834000Y-3252000D02*
X16834000Y-3332000D01*
X16794000Y-3292000D02*
X16874000Y-3292000D01*
X16834000Y-3506000D02*
X16834000Y-3586000D01*
X16794000Y-3546000D02*
X16874000Y-3546000D01*
X16834000Y-3760000D02*
X16834000Y-3840000D01*
X16794000Y-3800000D02*
X16874000Y-3800000D01*
X16834000Y-4014000D02*
X16834000Y-4094000D01*
X16794000Y-4054000D02*
X16874000Y-4054000D01*
X16834000Y-4268000D02*
X16834000Y-4348000D01*
X16794000Y-4308000D02*
X16874000Y-4308000D01*
X16834000Y-4522000D02*
X16834000Y-4602000D01*
X16794000Y-4562000D02*
X16874000Y-4562000D01*
X16834000Y-4776000D02*
X16834000Y-4856000D01*
X16794000Y-4816000D02*
X16874000Y-4816000D01*
X16834000Y-5030000D02*
X16834000Y-5110000D01*
X16794000Y-5070000D02*
X16874000Y-5070000D01*
X16834000Y-5284000D02*
X16834000Y-5364000D01*
X16794000Y-5324000D02*
X16874000Y-5324000D01*
X16834000Y-5538000D02*
X16834000Y-5618000D01*
X16794000Y-5578000D02*
X16874000Y-5578000D01*
X16834000Y-5792000D02*
X16834000Y-5872000D01*
X16794000Y-5832000D02*
X16874000Y-5832000D01*
X16834000Y-6046000D02*
X16834000Y-6126000D01*
X16794000Y-6086000D02*
X16874000Y-6086000D01*
X16834000Y-6300000D02*
X16834000Y-6380000D01*
X16794000Y-6340000D02*
X16874000Y-6340000D01*
X17352500Y-8010000D02*
X17352500Y-8090000D01*
X17312500Y-8050000D02*
X17392500Y-8050000D01*
X17352500Y-8264000D02*
X17352500Y-8344000D01*
X17312500Y-8304000D02*
X17392500Y-8304000D01*
X17352500Y-8518000D02*
X17352500Y-8598000D01*
X17312500Y-8558000D02*
X17392500Y-8558000D01*
X17352500Y-8772000D02*
X17352500Y-8852000D01*
X17312500Y-8812000D02*
X17392500Y-8812000D01*
X17352500Y-9026000D02*
X17352500Y-9106000D01*
X17312500Y-9066000D02*
X17392500Y-9066000D01*
X17352500Y-9280000D02*
X17352500Y-9360000D01*
X17312500Y-9320000D02*
X17392500Y-9320000D01*
X17352500Y-9534000D02*
X17352500Y-9614000D01*
X17312500Y-9574000D02*
X17392500Y-9574000D01*
X18114500Y-8010000D02*
X18114500Y-8090000D01*
X18074500Y-8050000D02*
X18154500Y-8050000D01*
X18114500Y-8264000D02*
X18114500Y-8344000D01*
X18074500Y-8304000D02*
X18154500Y-8304000D01*
X18114500Y-8518000D02*
X18114500Y-8598000D01*
X18074500Y-8558000D02*
X18154500Y-8558000D01*
X18114500Y-8772000D02*
X18114500Y-8852000D01*
X18074500Y-8812000D02*
X18154500Y-8812000D01*
X18114500Y-9026000D02*
X18114500Y-9106000D01*
X18074500Y-9066000D02*
X18154500Y-9066000D01*
X18114500Y-9280000D02*
X18114500Y-9360000D01*
X18074500Y-9320000D02*
X18154500Y-9320000D01*
X18114500Y-9534000D02*
X18114500Y-9614000D01*
X18074500Y-9574000D02*
X18154500Y-9574000D01*
X18358000Y-2998000D02*
X18358000Y-3078000D01*
X18318000Y-3038000D02*
X18398000Y-3038000D01*
X18358000Y-3252000D02*
X18358000Y-3332000D01*
X18318000Y-3292000D02*
X18398000Y-3292000D01*
X18358000Y-3506000D02*
X18358000Y-3586000D01*
X18318000Y-3546000D02*
X18398000Y-3546000D01*
X18358000Y-3760000D02*
X18358000Y-3840000D01*
X18318000Y-3800000D02*
X18398000Y-3800000D01*
X18358000Y-4014000D02*
X18358000Y-4094000D01*
X18318000Y-4054000D02*
X18398000Y-4054000D01*
X18358000Y-4268000D02*
X18358000Y-4348000D01*
X18318000Y-4308000D02*
X18398000Y-4308000D01*
X18358000Y-4522000D02*
X18358000Y-4602000D01*
X18318000Y-4562000D02*
X18398000Y-4562000D01*
X18358000Y-4776000D02*
X18358000Y-4856000D01*
X18318000Y-4816000D02*
X18398000Y-4816000D01*
X18358000Y-5030000D02*
X18358000Y-5110000D01*
X18318000Y-5070000D02*
X18398000Y-5070000D01*
X18358000Y-5284000D02*
X18358000Y-5364000D01*
X18318000Y-5324000D02*
X18398000Y-5324000D01*
X18358000Y-5538000D02*
X18358000Y-5618000D01*
X18318000Y-5578000D02*
X18398000Y-5578000D01*
X18358000Y-5792000D02*
X18358000Y-5872000D01*
X18318000Y-5832000D02*
X18398000Y-5832000D01*
X18358000Y-6046000D02*
X18358000Y-6126000D01*
X18318000Y-6086000D02*
X18398000Y-6086000D01*
X18358000Y-6300000D02*
X18358000Y-6380000D01*
X18318000Y-6340000D02*
X18398000Y-6340000D01*
X19000000Y-8010000D02*
X19000000Y-8090000D01*
X18960000Y-8050000D02*
X19040000Y-8050000D01*
X19000000Y-8264000D02*
X19000000Y-8344000D01*
X18960000Y-8304000D02*
X19040000Y-8304000D01*
X19000000Y-8518000D02*
X19000000Y-8598000D01*
X18960000Y-8558000D02*
X19040000Y-8558000D01*
X19000000Y-8772000D02*
X19000000Y-8852000D01*
X18960000Y-8812000D02*
X19040000Y-8812000D01*
X19000000Y-9026000D02*
X19000000Y-9106000D01*
X18960000Y-9066000D02*
X19040000Y-9066000D01*
X19000000Y-9280000D02*
X19000000Y-9360000D01*
X18960000Y-9320000D02*
X19040000Y-9320000D01*
X19000000Y-9534000D02*
X19000000Y-9614000D01*
X18960000Y-9574000D02*
X19040000Y-9574000D01*
X19485000Y-10415000D02*
X19485000Y-10495000D01*
X19445000Y-10455000D02*
X19525000Y-10455000D01*
X19485000Y-10905000D02*
X19485000Y-10985000D01*
X19445000Y-10945000D02*
X19525000Y-10945000D01*
X19762000Y-8010000D02*
X19762000Y-8090000D01*
X19722000Y-8050000D02*
X19802000Y-8050000D01*
X19762000Y-8264000D02*
X19762000Y-8344000D01*
X19722000Y-8304000D02*
X19802000Y-8304000D01*
X19762000Y-8518000D02*
X19762000Y-8598000D01*
X19722000Y-8558000D02*
X19802000Y-8558000D01*
X19762000Y-8772000D02*
X19762000Y-8852000D01*
X19722000Y-8812000D02*
X19802000Y-8812000D01*
X19762000Y-9026000D02*
X19762000Y-9106000D01*
X19722000Y-9066000D02*
X19802000Y-9066000D01*
X19762000Y-9280000D02*
X19762000Y-9360000D01*
X19722000Y-9320000D02*
X19802000Y-9320000D01*
X19762000Y-9534000D02*
X19762000Y-9614000D01*
X19722000Y-9574000D02*
X19802000Y-9574000D01*
X20872200Y-7919000D02*
X20872200Y-7999000D01*
X20832200Y-7959000D02*
X20912200Y-7959000D01*
X20872200Y-8388000D02*
X20872200Y-8468000D01*
X20832200Y-8428000D02*
X20912200Y-8428000D01*
X20872200Y-8857000D02*
X20872200Y-8937000D01*
X20832200Y-8897000D02*
X20912200Y-8897000D01*
X20872200Y-9326000D02*
X20872200Y-9406000D01*
X20832200Y-9366000D02*
X20912200Y-9366000D01*
X22396200Y-7919000D02*
X22396200Y-7999000D01*
X22356200Y-7959000D02*
X22436200Y-7959000D01*
X22396200Y-8388000D02*
X22396200Y-8468000D01*
X22356200Y-8428000D02*
X22436200Y-8428000D01*
X22396200Y-8857000D02*
X22396200Y-8937000D01*
X22356200Y-8897000D02*
X22436200Y-8897000D01*
X22396200Y-9326000D02*
X22396200Y-9406000D01*
X22356200Y-9366000D02*
X22436200Y-9366000D01*
X22838000Y-8857000D02*
X22838000Y-8937000D01*
X22798000Y-8897000D02*
X22878000Y-8897000D01*
X22838000Y-9326000D02*
X22838000Y-9406000D01*
X22798000Y-9366000D02*
X22878000Y-9366000D01*
X23200000Y-7706000D02*
X23200000Y-7786000D01*
X23160000Y-7746000D02*
X23240000Y-7746000D01*
X23200000Y-7960000D02*
X23200000Y-8040000D01*
X23160000Y-8000000D02*
X23240000Y-8000000D01*
X23200000Y-8214000D02*
X23200000Y-8294000D01*
X23160000Y-8254000D02*
X23240000Y-8254000D01*
X24362000Y-8857000D02*
X24362000Y-8937000D01*
X24322000Y-8897000D02*
X24402000Y-8897000D01*
X24362000Y-9326000D02*
X24362000Y-9406000D01*
X24322000Y-9366000D02*
X24402000Y-9366000D01*
X2670356Y-4905556D02*
X2670356Y-4834844D01*
X2599644Y-4834844D01*
X2599644Y-4905556D01*
X2670356Y-4905556D01*
X2670356Y-5159556D02*
X2670356Y-5088844D01*
X2599644Y-5088844D01*
X2599644Y-5159556D01*
X2670356Y-5159556D01*
X3961249Y-10280223D02*
X3961249Y-10209512D01*
X3890538Y-10209512D01*
X3890538Y-10280223D01*
X3961249Y-10280223D01*
X3855183Y-10244868D02*
X3925894Y-10315578D01*
X3925894Y-10315578D02*
G75*
G03*
X3996604Y-10244868I35355J35355D01*
G01*
X3996604Y-10244868D02*
X3925894Y-10174157D01*
X3925894Y-10174157D02*
G75*
G03*
X3855183Y-10244868I-35355J-35355D01*
G01*
X4420869Y-10739843D02*
X4420869Y-10669131D01*
X4350157Y-10669131D01*
X4350157Y-10739843D01*
X4420869Y-10739843D01*
X4314802Y-10704487D02*
X4385513Y-10775198D01*
X4385513Y-10775198D02*
G75*
G03*
X4456224Y-10704487I35355J35355D01*
G01*
X4456224Y-10704487D02*
X4385513Y-10633776D01*
X4385513Y-10633776D02*
G75*
G03*
X4314802Y-10704487I-35355J-35355D01*
G01*
X4835356Y-13084356D02*
X4835356Y-13013644D01*
X4764644Y-13013644D01*
X4764644Y-13084356D01*
X4835356Y-13084356D01*
X4880488Y-11199462D02*
X4880488Y-11128751D01*
X4809777Y-11128751D01*
X4809777Y-11199462D01*
X4880488Y-11199462D01*
X4774422Y-11164106D02*
X4845132Y-11234817D01*
X4845132Y-11234817D02*
G75*
G03*
X4915843Y-11164106I35355J35355D01*
G01*
X4915843Y-11164106D02*
X4845132Y-11093396D01*
X4845132Y-11093396D02*
G75*
G03*
X4774422Y-11164106I-35355J-35355D01*
G01*
X5585356Y-13084356D02*
X5585356Y-13013644D01*
X5514644Y-13013644D01*
X5514644Y-13084356D01*
X5585356Y-13084356D01*
X8807556Y-11885356D02*
X8807556Y-11814644D01*
X8736844Y-11814644D01*
X8736844Y-11885356D01*
X8807556Y-11885356D01*
X8722200Y-11750000D02*
X8722200Y-11950000D01*
X8722200Y-11950000D02*
G75*
G03*
X8822200Y-11950000I50000J0D01*
G01*
X8822200Y-11950000D02*
X8822200Y-11750000D01*
X8822200Y-11750000D02*
G75*
G03*
X8722200Y-11750000I-50000J0D01*
G01*
X9163156Y-11885356D02*
X9163156Y-11814644D01*
X9092444Y-11814644D01*
X9092444Y-11885356D01*
X9163156Y-11885356D01*
X9077800Y-11750000D02*
X9077800Y-11950000D01*
X9077800Y-11950000D02*
G75*
G03*
X9177800Y-11950000I50000J0D01*
G01*
X9177800Y-11950000D02*
X9177800Y-11750000D01*
X9177800Y-11750000D02*
G75*
G03*
X9077800Y-11750000I-50000J0D01*
G01*
X12240346Y-8148756D02*
X12240346Y-8078044D01*
X12169634Y-8078044D01*
X12169634Y-8148756D01*
X12240346Y-8148756D01*
X12279990Y-8063400D02*
X12129990Y-8063400D01*
X12129990Y-8063400D02*
G75*
G03*
X12129990Y-8163400I0J-50000D01*
G01*
X12129990Y-8163400D02*
X12279990Y-8163400D01*
X12279990Y-8163400D02*
G75*
G03*
X12279990Y-8063400I0J50000D01*
G01*
X12261056Y-6748756D02*
X12261056Y-6678044D01*
X12190344Y-6678044D01*
X12190344Y-6748756D01*
X12261056Y-6748756D01*
X12300700Y-6663400D02*
X12150700Y-6663400D01*
X12150700Y-6663400D02*
G75*
G03*
X12150700Y-6763400I0J-50000D01*
G01*
X12150700Y-6763400D02*
X12300700Y-6763400D01*
X12300700Y-6763400D02*
G75*
G03*
X12300700Y-6663400I0J50000D01*
G01*
X19235356Y-11851356D02*
X19235356Y-11780644D01*
X19164644Y-11780644D01*
X19164644Y-11851356D01*
X19235356Y-11851356D01*
X19235356Y-12601356D02*
X19235356Y-12530644D01*
X19164644Y-12530644D01*
X19164644Y-12601356D01*
X19235356Y-12601356D01*
X19871356Y-11856356D02*
X19871356Y-11785644D01*
X19800644Y-11785644D01*
X19800644Y-11856356D01*
X19871356Y-11856356D01*
X19871356Y-12606356D02*
X19871356Y-12535644D01*
X19800644Y-12535644D01*
X19800644Y-12606356D01*
X19871356Y-12606356D01*
X21294556Y-7435356D02*
X21294556Y-7364644D01*
X21223844Y-7364644D01*
X21223844Y-7435356D01*
X21294556Y-7435356D01*
X21385356Y-13435356D02*
X21385356Y-13364644D01*
X21314644Y-13364644D01*
X21314644Y-13435356D01*
X21385356Y-13435356D01*
X21987296Y-11199462D02*
X21987296Y-11128751D01*
X21916585Y-11128751D01*
X21916585Y-11199462D01*
X21987296Y-11199462D01*
X21951941Y-11234817D02*
X22022651Y-11164106D01*
X22022651Y-11164106D02*
G75*
G03*
X21951941Y-11093396I-35355J35355D01*
G01*
X21951941Y-11093396D02*
X21881230Y-11164106D01*
X21881230Y-11164106D02*
G75*
G03*
X21951941Y-11234817I35355J-35355D01*
G01*
X22044556Y-7435356D02*
X22044556Y-7364644D01*
X21973844Y-7364644D01*
X21973844Y-7435356D01*
X22044556Y-7435356D01*
X22135356Y-13435356D02*
X22135356Y-13364644D01*
X22064644Y-13364644D01*
X22064644Y-13435356D01*
X22135356Y-13435356D01*
X22446916Y-10739843D02*
X22446916Y-10669131D01*
X22376204Y-10669131D01*
X22376204Y-10739843D01*
X22446916Y-10739843D01*
X22411560Y-10775198D02*
X22482271Y-10704487D01*
X22482271Y-10704487D02*
G75*
G03*
X22411560Y-10633776I-35355J35355D01*
G01*
X22411560Y-10633776D02*
X22340849Y-10704487D01*
X22340850Y-10704487D02*
G75*
G03*
X22411560Y-10775198I35355J-35355D01*
G01*
X22906535Y-10280223D02*
X22906535Y-10209512D01*
X22835824Y-10209512D01*
X22835824Y-10280223D01*
X22906535Y-10280223D01*
X22871179Y-10315578D02*
X22941890Y-10244868D01*
X22941890Y-10244868D02*
G75*
G03*
X22871179Y-10174157I-35355J35355D01*
G01*
X22871179Y-10174157D02*
X22800469Y-10244868D01*
X22800469Y-10244868D02*
G75*
G03*
X22871179Y-10315578I35355J-35355D01*
G01*
X22940356Y-2760356D02*
X22940356Y-2689644D01*
X22869644Y-2689644D01*
X22869644Y-2760356D01*
X22940356Y-2760356D01*
X22855000Y-2625000D02*
X22855000Y-2825000D01*
X22855000Y-2825000D02*
G75*
G03*
X22955000Y-2825000I50000J0D01*
G01*
X22955000Y-2825000D02*
X22955000Y-2625000D01*
X22955000Y-2625000D02*
G75*
G03*
X22855000Y-2625000I-50000J0D01*
G01*
X23410356Y-2460356D02*
X23410356Y-2389644D01*
X23339644Y-2389644D01*
X23339644Y-2460356D01*
X23410356Y-2460356D01*
X23475000Y-2375000D02*
X23275000Y-2375000D01*
X23275000Y-2375000D02*
G75*
G03*
X23275000Y-2475000I0J-50000D01*
G01*
X23275000Y-2475000D02*
X23475000Y-2475000D01*
X23475000Y-2475000D02*
G75*
G03*
X23475000Y-2375000I0J50000D01*
G01*
X23410356Y-3060356D02*
X23410356Y-2989644D01*
X23339644Y-2989644D01*
X23339644Y-3060356D01*
X23410356Y-3060356D01*
X23475000Y-2975000D02*
X23275000Y-2975000D01*
X23275000Y-2975000D02*
G75*
G03*
X23275000Y-3075000I0J-50000D01*
G01*
X23275000Y-3075000D02*
X23475000Y-3075000D01*
X23475000Y-3075000D02*
G75*
G03*
X23475000Y-2975000I0J50000D01*
G01*
X23985356Y-7758856D02*
X23985356Y-7688144D01*
X23914644Y-7688144D01*
X23914644Y-7758856D01*
X23985356Y-7758856D01*
X23985356Y-8012856D02*
X23985356Y-7942144D01*
X23914644Y-7942144D01*
X23914644Y-8012856D01*
X23985356Y-8012856D01*
D13*
X2635000Y-3005000D02*
X2690000Y-2950000D01*
X2635000Y-2895000D01*
X2580000Y-2950000D01*
X2635000Y-3005000D01*
X11898000Y-5249300D02*
X11953000Y-5194300D01*
X11898000Y-5139300D01*
X11843000Y-5194300D01*
X11898000Y-5249300D01*
X12152000Y-5249300D02*
X12207000Y-5194300D01*
X12152000Y-5139300D01*
X12097000Y-5194300D01*
X12152000Y-5249300D01*
X12406000Y-5249300D02*
X12461000Y-5194300D01*
X12406000Y-5139300D01*
X12351000Y-5194300D01*
X12406000Y-5249300D01*
X23392000Y-4330000D02*
X23447000Y-4275000D01*
X23392000Y-4220000D01*
X23337000Y-4275000D01*
X23392000Y-4330000D01*
X24400000Y-3005000D02*
X24455000Y-2950000D01*
X24400000Y-2895000D01*
X24345000Y-2950000D01*
X24400000Y-3005000D01*
X24408000Y-4330000D02*
X24463000Y-4275000D01*
X24408000Y-4220000D01*
X24353000Y-4275000D01*
X24408000Y-4330000D01*
D14*
X17747500Y-11752500D02*
X17872500Y-11877500D01*
X17872500Y-11752500D02*
X17747500Y-11877500D01*
X17872500Y-11815000D02*
G75*
G03*
X17747500Y-11815000I-62500J0D01*
G01*
X17747500Y-11815000D02*
G75*
G03*
X17872500Y-11815000I62500J0D01*
G01*
D11*
X17747500Y-11790000D02*
X17747500Y-11840000D01*
X17747500Y-11840000D02*
G75*
G03*
X17872500Y-11840000I62500J0D01*
G01*
X17872500Y-11840000D02*
X17872500Y-11790000D01*
X17872500Y-11790000D02*
G75*
G03*
X17747500Y-11790000I-62500J0D01*
G01*
D14*
X18087500Y-10942500D02*
X18212500Y-11067500D01*
X18212500Y-10942500D02*
X18087500Y-11067500D01*
X18212500Y-11005000D02*
G75*
G03*
X18087500Y-11005000I-62500J0D01*
G01*
X18087500Y-11005000D02*
G75*
G03*
X18212500Y-11005000I62500J0D01*
G01*
D11*
X18087500Y-10980000D02*
X18087500Y-11030000D01*
X18087500Y-11030000D02*
G75*
G03*
X18212500Y-11030000I62500J0D01*
G01*
X18212500Y-11030000D02*
X18212500Y-10980000D01*
X18212500Y-10980000D02*
G75*
G03*
X18087500Y-10980000I-62500J0D01*
G01*
D14*
X18087500Y-11752500D02*
X18212500Y-11877500D01*
X18212500Y-11752500D02*
X18087500Y-11877500D01*
X18212500Y-11815000D02*
G75*
G03*
X18087500Y-11815000I-62500J0D01*
G01*
X18087500Y-11815000D02*
G75*
G03*
X18212500Y-11815000I62500J0D01*
G01*
D11*
X18087500Y-11790000D02*
X18087500Y-11840000D01*
X18087500Y-11840000D02*
G75*
G03*
X18212500Y-11840000I62500J0D01*
G01*
X18212500Y-11840000D02*
X18212500Y-11790000D01*
X18212500Y-11790000D02*
G75*
G03*
X18087500Y-11790000I-62500J0D01*
G01*
D14*
X18087500Y-12562500D02*
X18212500Y-12687500D01*
X18212500Y-12562500D02*
X18087500Y-12687500D01*
X18212500Y-12625000D02*
G75*
G03*
X18087500Y-12625000I-62500J0D01*
G01*
X18087500Y-12625000D02*
G75*
G03*
X18212500Y-12625000I62500J0D01*
G01*
D11*
X18087500Y-12600000D02*
X18087500Y-12650000D01*
X18087500Y-12650000D02*
G75*
G03*
X18212500Y-12650000I62500J0D01*
G01*
X18212500Y-12650000D02*
X18212500Y-12600000D01*
X18212500Y-12600000D02*
G75*
G03*
X18087500Y-12600000I-62500J0D01*
G01*
D15*
X11689990Y-8048400D02*
X11819990Y-8178400D01*
X11819990Y-8048400D02*
X11689990Y-8178400D01*
X11754990Y-8048400D02*
X11754990Y-8178400D01*
X11689990Y-8113400D02*
X11819990Y-8113400D01*
D11*
X11819990Y-8173400D02*
X11819990Y-8053400D01*
X11819990Y-8053400D02*
G75*
G03*
X11689990Y-8053400I-65000J0D01*
G01*
X11689990Y-8053400D02*
X11689990Y-8173400D01*
X11689990Y-8173400D02*
G75*
G03*
X11819990Y-8173400I65000J0D01*
G01*
D15*
X11710700Y-6648400D02*
X11840700Y-6778400D01*
X11840700Y-6648400D02*
X11710700Y-6778400D01*
X11775700Y-6648400D02*
X11775700Y-6778400D01*
X11710700Y-6713400D02*
X11840700Y-6713400D01*
D11*
X11840700Y-6773400D02*
X11840700Y-6653400D01*
X11840700Y-6653400D02*
G75*
G03*
X11710700Y-6653400I-65000J0D01*
G01*
X11710700Y-6653400D02*
X11710700Y-6773400D01*
X11710700Y-6773400D02*
G75*
G03*
X11840700Y-6773400I65000J0D01*
G01*
D16*
X11636500Y-9779500D02*
X11827500Y-9970500D01*
X11827500Y-9779500D02*
X11636500Y-9970500D01*
X11799529Y-9942529D02*
X11799529Y-9807471D01*
X11664471Y-9807471D01*
X11664471Y-9942529D01*
X11799529Y-9942529D01*
X11636500Y-10643500D02*
X11827500Y-10834500D01*
X11827500Y-10643500D02*
X11636500Y-10834500D01*
X11799529Y-10806529D02*
X11799529Y-10671471D01*
X11664471Y-10671471D01*
X11664471Y-10806529D01*
X11799529Y-10806529D01*
X12029500Y-12479500D02*
X12220500Y-12670500D01*
X12220500Y-12479500D02*
X12029500Y-12670500D01*
X12192529Y-12642529D02*
X12192529Y-12507471D01*
X12057471Y-12507471D01*
X12057471Y-12642529D01*
X12192529Y-12642529D01*
X12029500Y-13343500D02*
X12220500Y-13534500D01*
X12220500Y-13343500D02*
X12029500Y-13534500D01*
X12192529Y-13506529D02*
X12192529Y-13371471D01*
X12057471Y-13371471D01*
X12057471Y-13506529D01*
X12192529Y-13506529D01*
X12428500Y-9779500D02*
X12619500Y-9970500D01*
X12619500Y-9779500D02*
X12428500Y-9970500D01*
X12591529Y-9942529D02*
X12591529Y-9807471D01*
X12456471Y-9807471D01*
X12456471Y-9942529D01*
X12591529Y-9942529D01*
X12428500Y-10643500D02*
X12619500Y-10834500D01*
X12619500Y-10643500D02*
X12428500Y-10834500D01*
X12591529Y-10806529D02*
X12591529Y-10671471D01*
X12456471Y-10671471D01*
X12456471Y-10806529D01*
X12591529Y-10806529D01*
X12821500Y-12479500D02*
X13012500Y-12670500D01*
X13012500Y-12479500D02*
X12821500Y-12670500D01*
X12984529Y-12642529D02*
X12984529Y-12507471D01*
X12849471Y-12507471D01*
X12849471Y-12642529D01*
X12984529Y-12642529D01*
X12821500Y-13343500D02*
X13012500Y-13534500D01*
X13012500Y-13343500D02*
X12821500Y-13534500D01*
X12984529Y-13506529D02*
X12984529Y-13371471D01*
X12849471Y-13371471D01*
X12849471Y-13506529D01*
X12984529Y-13506529D01*
X13220500Y-9779500D02*
X13411500Y-9970500D01*
X13411500Y-9779500D02*
X13220500Y-9970500D01*
X13383529Y-9942529D02*
X13383529Y-9807471D01*
X13248471Y-9807471D01*
X13248471Y-9942529D01*
X13383529Y-9942529D01*
X13220500Y-10643500D02*
X13411500Y-10834500D01*
X13411500Y-10643500D02*
X13220500Y-10834500D01*
X13383529Y-10806529D02*
X13383529Y-10671471D01*
X13248471Y-10671471D01*
X13248471Y-10806529D01*
X13383529Y-10806529D01*
X13613500Y-12479500D02*
X13804500Y-12670500D01*
X13804500Y-12479500D02*
X13613500Y-12670500D01*
X13776529Y-12642529D02*
X13776529Y-12507471D01*
X13641471Y-12507471D01*
X13641471Y-12642529D01*
X13776529Y-12642529D01*
X13613500Y-13343500D02*
X13804500Y-13534500D01*
X13804500Y-13343500D02*
X13613500Y-13534500D01*
X13776529Y-13506529D02*
X13776529Y-13371471D01*
X13641471Y-13371471D01*
X13641471Y-13506529D01*
X13776529Y-13506529D01*
X14012500Y-9779500D02*
X14203500Y-9970500D01*
X14203500Y-9779500D02*
X14012500Y-9970500D01*
X14175529Y-9942529D02*
X14175529Y-9807471D01*
X14040471Y-9807471D01*
X14040471Y-9942529D01*
X14175529Y-9942529D01*
X14012500Y-10643500D02*
X14203500Y-10834500D01*
X14203500Y-10643500D02*
X14012500Y-10834500D01*
X14175529Y-10806529D02*
X14175529Y-10671471D01*
X14040471Y-10671471D01*
X14040471Y-10806529D01*
X14175529Y-10806529D01*
X14405500Y-12479500D02*
X14596500Y-12670500D01*
X14596500Y-12479500D02*
X14405500Y-12670500D01*
X14568529Y-12642529D02*
X14568529Y-12507471D01*
X14433471Y-12507471D01*
X14433471Y-12642529D01*
X14568529Y-12642529D01*
X14405500Y-13343500D02*
X14596500Y-13534500D01*
X14596500Y-13343500D02*
X14405500Y-13534500D01*
X14568529Y-13506529D02*
X14568529Y-13371471D01*
X14433471Y-13371471D01*
X14433471Y-13506529D01*
X14568529Y-13506529D01*
X14804500Y-9779500D02*
X14995500Y-9970500D01*
X14995500Y-9779500D02*
X14804500Y-9970500D01*
X14967529Y-9942529D02*
X14967529Y-9807471D01*
X14832471Y-9807471D01*
X14832471Y-9942529D01*
X14967529Y-9942529D01*
X14804500Y-10643500D02*
X14995500Y-10834500D01*
X14995500Y-10643500D02*
X14804500Y-10834500D01*
X14967529Y-10806529D02*
X14967529Y-10671471D01*
X14832471Y-10671471D01*
X14832471Y-10806529D01*
X14967529Y-10806529D01*
D10*
X2197073Y-11076481D02*
X2397073Y-11276481D01*
X2397073Y-11076481D02*
X2197073Y-11276481D01*
X2297073Y-11276481D02*
X2397073Y-11176481D01*
X2297073Y-11076481D01*
X2197073Y-11176481D01*
X2297073Y-11276481D01*
D11*
X2332428Y-10999704D02*
X2120296Y-11211836D01*
X2120296Y-11211836D02*
G75*
G03*
X2261718Y-11353257I70711J-70711D01*
G01*
X2261718Y-11353257D02*
X2473850Y-11141126D01*
X2473850Y-11141126D02*
G75*
G03*
X2332428Y-10999704I-70711J70711D01*
G01*
D10*
X3813519Y-12692927D02*
X4013519Y-12892927D01*
X4013519Y-12692927D02*
X3813519Y-12892927D01*
X3913519Y-12892927D02*
X4013519Y-12792927D01*
X3913519Y-12692927D01*
X3813519Y-12792927D01*
X3913519Y-12892927D01*
D11*
X3948874Y-12616150D02*
X3736742Y-12828282D01*
X3736742Y-12828282D02*
G75*
G03*
X3878164Y-12969704I70711J-70711D01*
G01*
X3878164Y-12969704D02*
X4090296Y-12757572D01*
X4090296Y-12757572D02*
G75*
G03*
X3948874Y-12616150I-70711J70711D01*
G01*
D10*
X22783554Y-12692927D02*
X22983554Y-12892927D01*
X22983554Y-12692927D02*
X22783554Y-12892927D01*
X22883554Y-12892927D02*
X22983554Y-12792927D01*
X22883554Y-12692927D01*
X22783554Y-12792927D01*
X22883554Y-12892927D01*
D11*
X22706777Y-12757572D02*
X22918909Y-12969704D01*
X22918909Y-12969704D02*
G75*
G03*
X23060331Y-12828282I70711J70711D01*
G01*
X23060331Y-12828282D02*
X22848199Y-12616150D01*
X22848199Y-12616150D02*
G75*
G03*
X22706777Y-12757572I-70711J-70711D01*
G01*
D10*
X24400000Y-11076481D02*
X24600000Y-11276481D01*
X24600000Y-11076481D02*
X24400000Y-11276481D01*
X24500000Y-11276481D02*
X24600000Y-11176481D01*
X24500000Y-11076481D01*
X24400000Y-11176481D01*
X24500000Y-11276481D01*
D11*
X24323223Y-11141126D02*
X24535355Y-11353257D01*
X24535355Y-11353257D02*
G75*
G03*
X24676777Y-11211836I70711J70711D01*
G01*
X24676777Y-11211836D02*
X24464645Y-10999704D01*
X24464645Y-10999704D02*
G75*
G03*
X24323223Y-11141126I-70711J-70711D01*
G01*
D10*
X2255777Y-14416484D02*
X2255777Y-14216484D01*
X2255777Y-14216484D02*
X2303396Y-14216484D01*
X2303396Y-14216484D02*
X2331967Y-14226008D01*
X2331967Y-14226008D02*
X2351015Y-14245055D01*
X2351015Y-14245055D02*
X2360539Y-14264103D01*
X2360539Y-14264103D02*
X2370063Y-14302198D01*
X2370063Y-14302198D02*
X2370063Y-14330769D01*
X2370063Y-14330769D02*
X2360539Y-14368865D01*
X2360539Y-14368865D02*
X2351015Y-14387912D01*
X2351015Y-14387912D02*
X2331967Y-14406960D01*
X2331967Y-14406960D02*
X2303396Y-14416484D01*
X2303396Y-14416484D02*
X2255777Y-14416484D01*
X2455777Y-14416484D02*
X2455777Y-14283150D01*
X2455777Y-14321246D02*
X2465301Y-14302198D01*
X2465301Y-14302198D02*
X2474824Y-14292674D01*
X2474824Y-14292674D02*
X2493872Y-14283150D01*
X2493872Y-14283150D02*
X2512920Y-14283150D01*
X2579586Y-14416484D02*
X2579586Y-14283150D01*
X2579586Y-14216484D02*
X2570063Y-14226008D01*
X2570063Y-14226008D02*
X2579586Y-14235531D01*
X2579586Y-14235531D02*
X2589110Y-14226008D01*
X2589110Y-14226008D02*
X2579586Y-14216484D01*
X2579586Y-14216484D02*
X2579586Y-14235531D01*
X2703396Y-14416484D02*
X2684348Y-14406960D01*
X2684348Y-14406960D02*
X2674824Y-14387912D01*
X2674824Y-14387912D02*
X2674824Y-14216484D01*
X2808158Y-14416484D02*
X2789110Y-14406960D01*
X2789110Y-14406960D02*
X2779586Y-14387912D01*
X2779586Y-14387912D02*
X2779586Y-14216484D01*
X3036729Y-14416484D02*
X3036729Y-14216484D01*
X3036729Y-14216484D02*
X3103396Y-14359341D01*
X3103396Y-14359341D02*
X3170062Y-14216484D01*
X3170062Y-14216484D02*
X3170062Y-14416484D01*
X3351015Y-14416484D02*
X3351015Y-14311722D01*
X3351015Y-14311722D02*
X3341491Y-14292674D01*
X3341491Y-14292674D02*
X3322443Y-14283150D01*
X3322443Y-14283150D02*
X3284348Y-14283150D01*
X3284348Y-14283150D02*
X3265301Y-14292674D01*
X3351015Y-14406960D02*
X3331967Y-14416484D01*
X3331967Y-14416484D02*
X3284348Y-14416484D01*
X3284348Y-14416484D02*
X3265301Y-14406960D01*
X3265301Y-14406960D02*
X3255777Y-14387912D01*
X3255777Y-14387912D02*
X3255777Y-14368865D01*
X3255777Y-14368865D02*
X3265301Y-14349817D01*
X3265301Y-14349817D02*
X3284348Y-14340293D01*
X3284348Y-14340293D02*
X3331967Y-14340293D01*
X3331967Y-14340293D02*
X3351015Y-14330769D01*
X3446253Y-14283150D02*
X3446253Y-14483150D01*
X3446253Y-14292674D02*
X3465301Y-14283150D01*
X3465301Y-14283150D02*
X3503396Y-14283150D01*
X3503396Y-14283150D02*
X3522443Y-14292674D01*
X3522443Y-14292674D02*
X3531967Y-14302198D01*
X3531967Y-14302198D02*
X3541491Y-14321246D01*
X3541491Y-14321246D02*
X3541491Y-14378388D01*
X3541491Y-14378388D02*
X3531967Y-14397436D01*
X3531967Y-14397436D02*
X3522443Y-14406960D01*
X3522443Y-14406960D02*
X3503396Y-14416484D01*
X3503396Y-14416484D02*
X3465301Y-14416484D01*
X3465301Y-14416484D02*
X3446253Y-14406960D01*
X3627205Y-14397436D02*
X3636729Y-14406960D01*
X3636729Y-14406960D02*
X3627205Y-14416484D01*
X3627205Y-14416484D02*
X3617682Y-14406960D01*
X3617682Y-14406960D02*
X3627205Y-14397436D01*
X3627205Y-14397436D02*
X3627205Y-14416484D01*
X3627205Y-14292674D02*
X3636729Y-14302198D01*
X3636729Y-14302198D02*
X3627205Y-14311722D01*
X3627205Y-14311722D02*
X3617682Y-14302198D01*
X3617682Y-14302198D02*
X3627205Y-14292674D01*
X3627205Y-14292674D02*
X3627205Y-14311722D01*
D11*
X1965000Y-14730000D02*
X1995000Y-14760000D01*
X1995000Y-14730000D02*
X1965000Y-14760000D01*
D10*
X2293872Y-14636484D02*
X2312920Y-14636484D01*
X2312920Y-14636484D02*
X2331967Y-14646008D01*
X2331967Y-14646008D02*
X2341491Y-14655531D01*
X2341491Y-14655531D02*
X2351015Y-14674579D01*
X2351015Y-14674579D02*
X2360539Y-14712674D01*
X2360539Y-14712674D02*
X2360539Y-14760293D01*
X2360539Y-14760293D02*
X2351015Y-14798388D01*
X2351015Y-14798388D02*
X2341491Y-14817436D01*
X2341491Y-14817436D02*
X2331967Y-14826960D01*
X2331967Y-14826960D02*
X2312920Y-14836484D01*
X2312920Y-14836484D02*
X2293872Y-14836484D01*
X2293872Y-14836484D02*
X2274824Y-14826960D01*
X2274824Y-14826960D02*
X2265301Y-14817436D01*
X2265301Y-14817436D02*
X2255777Y-14798388D01*
X2255777Y-14798388D02*
X2246253Y-14760293D01*
X2246253Y-14760293D02*
X2246253Y-14712674D01*
X2246253Y-14712674D02*
X2255777Y-14674579D01*
X2255777Y-14674579D02*
X2265301Y-14655531D01*
X2265301Y-14655531D02*
X2274824Y-14646008D01*
X2274824Y-14646008D02*
X2293872Y-14636484D01*
X2446253Y-14817436D02*
X2455777Y-14826960D01*
X2455777Y-14826960D02*
X2446253Y-14836484D01*
X2446253Y-14836484D02*
X2436729Y-14826960D01*
X2436729Y-14826960D02*
X2446253Y-14817436D01*
X2446253Y-14817436D02*
X2446253Y-14836484D01*
X2522444Y-14636484D02*
X2646253Y-14636484D01*
X2646253Y-14636484D02*
X2579586Y-14712674D01*
X2579586Y-14712674D02*
X2608158Y-14712674D01*
X2608158Y-14712674D02*
X2627205Y-14722198D01*
X2627205Y-14722198D02*
X2636729Y-14731722D01*
X2636729Y-14731722D02*
X2646253Y-14750769D01*
X2646253Y-14750769D02*
X2646253Y-14798388D01*
X2646253Y-14798388D02*
X2636729Y-14817436D01*
X2636729Y-14817436D02*
X2627205Y-14826960D01*
X2627205Y-14826960D02*
X2608158Y-14836484D01*
X2608158Y-14836484D02*
X2551015Y-14836484D01*
X2551015Y-14836484D02*
X2531967Y-14826960D01*
X2531967Y-14826960D02*
X2522444Y-14817436D01*
X2770063Y-14636484D02*
X2789110Y-14636484D01*
X2789110Y-14636484D02*
X2808158Y-14646008D01*
X2808158Y-14646008D02*
X2817682Y-14655531D01*
X2817682Y-14655531D02*
X2827205Y-14674579D01*
X2827205Y-14674579D02*
X2836729Y-14712674D01*
X2836729Y-14712674D02*
X2836729Y-14760293D01*
X2836729Y-14760293D02*
X2827205Y-14798388D01*
X2827205Y-14798388D02*
X2817682Y-14817436D01*
X2817682Y-14817436D02*
X2808158Y-14826960D01*
X2808158Y-14826960D02*
X2789110Y-14836484D01*
X2789110Y-14836484D02*
X2770063Y-14836484D01*
X2770063Y-14836484D02*
X2751015Y-14826960D01*
X2751015Y-14826960D02*
X2741491Y-14817436D01*
X2741491Y-14817436D02*
X2731967Y-14798388D01*
X2731967Y-14798388D02*
X2722444Y-14760293D01*
X2722444Y-14760293D02*
X2722444Y-14712674D01*
X2722444Y-14712674D02*
X2731967Y-14674579D01*
X2731967Y-14674579D02*
X2741491Y-14655531D01*
X2741491Y-14655531D02*
X2751015Y-14646008D01*
X2751015Y-14646008D02*
X2770063Y-14636484D01*
X2960539Y-14636484D02*
X2979586Y-14636484D01*
X2979586Y-14636484D02*
X2998634Y-14646008D01*
X2998634Y-14646008D02*
X3008158Y-14655531D01*
X3008158Y-14655531D02*
X3017682Y-14674579D01*
X3017682Y-14674579D02*
X3027205Y-14712674D01*
X3027205Y-14712674D02*
X3027205Y-14760293D01*
X3027205Y-14760293D02*
X3017682Y-14798388D01*
X3017682Y-14798388D02*
X3008158Y-14817436D01*
X3008158Y-14817436D02*
X2998634Y-14826960D01*
X2998634Y-14826960D02*
X2979586Y-14836484D01*
X2979586Y-14836484D02*
X2960539Y-14836484D01*
X2960539Y-14836484D02*
X2941491Y-14826960D01*
X2941491Y-14826960D02*
X2931967Y-14817436D01*
X2931967Y-14817436D02*
X2922443Y-14798388D01*
X2922443Y-14798388D02*
X2912920Y-14760293D01*
X2912920Y-14760293D02*
X2912920Y-14712674D01*
X2912920Y-14712674D02*
X2922443Y-14674579D01*
X2922443Y-14674579D02*
X2931967Y-14655531D01*
X2931967Y-14655531D02*
X2941491Y-14646008D01*
X2941491Y-14646008D02*
X2960539Y-14636484D01*
X3112920Y-14836484D02*
X3112920Y-14703150D01*
X3112920Y-14722198D02*
X3122443Y-14712674D01*
X3122443Y-14712674D02*
X3141491Y-14703150D01*
X3141491Y-14703150D02*
X3170063Y-14703150D01*
X3170063Y-14703150D02*
X3189110Y-14712674D01*
X3189110Y-14712674D02*
X3198634Y-14731722D01*
X3198634Y-14731722D02*
X3198634Y-14836484D01*
X3198634Y-14731722D02*
X3208158Y-14712674D01*
X3208158Y-14712674D02*
X3227205Y-14703150D01*
X3227205Y-14703150D02*
X3255777Y-14703150D01*
X3255777Y-14703150D02*
X3274824Y-14712674D01*
X3274824Y-14712674D02*
X3284348Y-14731722D01*
X3284348Y-14731722D02*
X3284348Y-14836484D01*
X3379586Y-14836484D02*
X3379586Y-14703150D01*
X3379586Y-14722198D02*
X3389110Y-14712674D01*
X3389110Y-14712674D02*
X3408158Y-14703150D01*
X3408158Y-14703150D02*
X3436729Y-14703150D01*
X3436729Y-14703150D02*
X3455777Y-14712674D01*
X3455777Y-14712674D02*
X3465301Y-14731722D01*
X3465301Y-14731722D02*
X3465301Y-14836484D01*
X3465301Y-14731722D02*
X3474824Y-14712674D01*
X3474824Y-14712674D02*
X3493872Y-14703150D01*
X3493872Y-14703150D02*
X3522443Y-14703150D01*
X3522443Y-14703150D02*
X3541491Y-14712674D01*
X3541491Y-14712674D02*
X3551015Y-14731722D01*
X3551015Y-14731722D02*
X3551015Y-14836484D01*
X3941491Y-14626960D02*
X3770063Y-14884103D01*
X4198634Y-14636484D02*
X4217682Y-14636484D01*
X4217682Y-14636484D02*
X4236729Y-14646008D01*
X4236729Y-14646008D02*
X4246253Y-14655531D01*
X4246253Y-14655531D02*
X4255777Y-14674579D01*
X4255777Y-14674579D02*
X4265301Y-14712674D01*
X4265301Y-14712674D02*
X4265301Y-14760293D01*
X4265301Y-14760293D02*
X4255777Y-14798388D01*
X4255777Y-14798388D02*
X4246253Y-14817436D01*
X4246253Y-14817436D02*
X4236729Y-14826960D01*
X4236729Y-14826960D02*
X4217682Y-14836484D01*
X4217682Y-14836484D02*
X4198634Y-14836484D01*
X4198634Y-14836484D02*
X4179586Y-14826960D01*
X4179586Y-14826960D02*
X4170063Y-14817436D01*
X4170063Y-14817436D02*
X4160539Y-14798388D01*
X4160539Y-14798388D02*
X4151015Y-14760293D01*
X4151015Y-14760293D02*
X4151015Y-14712674D01*
X4151015Y-14712674D02*
X4160539Y-14674579D01*
X4160539Y-14674579D02*
X4170063Y-14655531D01*
X4170063Y-14655531D02*
X4179586Y-14646008D01*
X4179586Y-14646008D02*
X4198634Y-14636484D01*
X4351015Y-14817436D02*
X4360539Y-14826960D01*
X4360539Y-14826960D02*
X4351015Y-14836484D01*
X4351015Y-14836484D02*
X4341491Y-14826960D01*
X4341491Y-14826960D02*
X4351015Y-14817436D01*
X4351015Y-14817436D02*
X4351015Y-14836484D01*
X4484348Y-14636484D02*
X4503396Y-14636484D01*
X4503396Y-14636484D02*
X4522444Y-14646008D01*
X4522444Y-14646008D02*
X4531968Y-14655531D01*
X4531968Y-14655531D02*
X4541491Y-14674579D01*
X4541491Y-14674579D02*
X4551015Y-14712674D01*
X4551015Y-14712674D02*
X4551015Y-14760293D01*
X4551015Y-14760293D02*
X4541491Y-14798388D01*
X4541491Y-14798388D02*
X4531968Y-14817436D01*
X4531968Y-14817436D02*
X4522444Y-14826960D01*
X4522444Y-14826960D02*
X4503396Y-14836484D01*
X4503396Y-14836484D02*
X4484348Y-14836484D01*
X4484348Y-14836484D02*
X4465301Y-14826960D01*
X4465301Y-14826960D02*
X4455777Y-14817436D01*
X4455777Y-14817436D02*
X4446253Y-14798388D01*
X4446253Y-14798388D02*
X4436729Y-14760293D01*
X4436729Y-14760293D02*
X4436729Y-14712674D01*
X4436729Y-14712674D02*
X4446253Y-14674579D01*
X4446253Y-14674579D02*
X4455777Y-14655531D01*
X4455777Y-14655531D02*
X4465301Y-14646008D01*
X4465301Y-14646008D02*
X4484348Y-14636484D01*
X4741491Y-14836484D02*
X4627206Y-14836484D01*
X4684348Y-14836484D02*
X4684348Y-14636484D01*
X4684348Y-14636484D02*
X4665301Y-14665055D01*
X4665301Y-14665055D02*
X4646253Y-14684103D01*
X4646253Y-14684103D02*
X4627206Y-14693627D01*
X4931968Y-14836484D02*
X4817682Y-14836484D01*
X4874825Y-14836484D02*
X4874825Y-14636484D01*
X4874825Y-14636484D02*
X4855777Y-14665055D01*
X4855777Y-14665055D02*
X4836729Y-14684103D01*
X4836729Y-14684103D02*
X4817682Y-14693627D01*
X5046253Y-14722198D02*
X5027206Y-14712674D01*
X5027206Y-14712674D02*
X5017682Y-14703150D01*
X5017682Y-14703150D02*
X5008158Y-14684103D01*
X5008158Y-14684103D02*
X5008158Y-14674579D01*
X5008158Y-14674579D02*
X5017682Y-14655531D01*
X5017682Y-14655531D02*
X5027206Y-14646008D01*
X5027206Y-14646008D02*
X5046253Y-14636484D01*
X5046253Y-14636484D02*
X5084349Y-14636484D01*
X5084349Y-14636484D02*
X5103396Y-14646008D01*
X5103396Y-14646008D02*
X5112920Y-14655531D01*
X5112920Y-14655531D02*
X5122444Y-14674579D01*
X5122444Y-14674579D02*
X5122444Y-14684103D01*
X5122444Y-14684103D02*
X5112920Y-14703150D01*
X5112920Y-14703150D02*
X5103396Y-14712674D01*
X5103396Y-14712674D02*
X5084349Y-14722198D01*
X5084349Y-14722198D02*
X5046253Y-14722198D01*
X5046253Y-14722198D02*
X5027206Y-14731722D01*
X5027206Y-14731722D02*
X5017682Y-14741246D01*
X5017682Y-14741246D02*
X5008158Y-14760293D01*
X5008158Y-14760293D02*
X5008158Y-14798388D01*
X5008158Y-14798388D02*
X5017682Y-14817436D01*
X5017682Y-14817436D02*
X5027206Y-14826960D01*
X5027206Y-14826960D02*
X5046253Y-14836484D01*
X5046253Y-14836484D02*
X5084349Y-14836484D01*
X5084349Y-14836484D02*
X5103396Y-14826960D01*
X5103396Y-14826960D02*
X5112920Y-14817436D01*
X5112920Y-14817436D02*
X5122444Y-14798388D01*
X5122444Y-14798388D02*
X5122444Y-14760293D01*
X5122444Y-14760293D02*
X5112920Y-14741246D01*
X5112920Y-14741246D02*
X5103396Y-14731722D01*
X5103396Y-14731722D02*
X5084349Y-14722198D01*
X5198634Y-14636484D02*
X5198634Y-14674579D01*
X5274825Y-14636484D02*
X5274825Y-14674579D01*
X5570063Y-14912674D02*
X5560539Y-14903150D01*
X5560539Y-14903150D02*
X5541491Y-14874579D01*
X5541491Y-14874579D02*
X5531968Y-14855531D01*
X5531968Y-14855531D02*
X5522444Y-14826960D01*
X5522444Y-14826960D02*
X5512920Y-14779341D01*
X5512920Y-14779341D02*
X5512920Y-14741246D01*
X5512920Y-14741246D02*
X5522444Y-14693627D01*
X5522444Y-14693627D02*
X5531968Y-14665055D01*
X5531968Y-14665055D02*
X5541491Y-14646008D01*
X5541491Y-14646008D02*
X5560539Y-14617436D01*
X5560539Y-14617436D02*
X5570063Y-14607912D01*
X5731968Y-14636484D02*
X5693872Y-14636484D01*
X5693872Y-14636484D02*
X5674825Y-14646008D01*
X5674825Y-14646008D02*
X5665301Y-14655531D01*
X5665301Y-14655531D02*
X5646253Y-14684103D01*
X5646253Y-14684103D02*
X5636729Y-14722198D01*
X5636729Y-14722198D02*
X5636729Y-14798388D01*
X5636729Y-14798388D02*
X5646253Y-14817436D01*
X5646253Y-14817436D02*
X5655777Y-14826960D01*
X5655777Y-14826960D02*
X5674825Y-14836484D01*
X5674825Y-14836484D02*
X5712920Y-14836484D01*
X5712920Y-14836484D02*
X5731968Y-14826960D01*
X5731968Y-14826960D02*
X5741491Y-14817436D01*
X5741491Y-14817436D02*
X5751015Y-14798388D01*
X5751015Y-14798388D02*
X5751015Y-14750769D01*
X5751015Y-14750769D02*
X5741491Y-14731722D01*
X5741491Y-14731722D02*
X5731968Y-14722198D01*
X5731968Y-14722198D02*
X5712920Y-14712674D01*
X5712920Y-14712674D02*
X5674825Y-14712674D01*
X5674825Y-14712674D02*
X5655777Y-14722198D01*
X5655777Y-14722198D02*
X5646253Y-14731722D01*
X5646253Y-14731722D02*
X5636729Y-14750769D01*
X5989110Y-14836484D02*
X5989110Y-14636484D01*
X6074825Y-14836484D02*
X6074825Y-14731722D01*
X6074825Y-14731722D02*
X6065301Y-14712674D01*
X6065301Y-14712674D02*
X6046253Y-14703150D01*
X6046253Y-14703150D02*
X6017682Y-14703150D01*
X6017682Y-14703150D02*
X5998634Y-14712674D01*
X5998634Y-14712674D02*
X5989110Y-14722198D01*
X6198634Y-14836484D02*
X6179587Y-14826960D01*
X6179587Y-14826960D02*
X6170063Y-14817436D01*
X6170063Y-14817436D02*
X6160539Y-14798388D01*
X6160539Y-14798388D02*
X6160539Y-14741246D01*
X6160539Y-14741246D02*
X6170063Y-14722198D01*
X6170063Y-14722198D02*
X6179587Y-14712674D01*
X6179587Y-14712674D02*
X6198634Y-14703150D01*
X6198634Y-14703150D02*
X6227206Y-14703150D01*
X6227206Y-14703150D02*
X6246253Y-14712674D01*
X6246253Y-14712674D02*
X6255777Y-14722198D01*
X6255777Y-14722198D02*
X6265301Y-14741246D01*
X6265301Y-14741246D02*
X6265301Y-14798388D01*
X6265301Y-14798388D02*
X6255777Y-14817436D01*
X6255777Y-14817436D02*
X6246253Y-14826960D01*
X6246253Y-14826960D02*
X6227206Y-14836484D01*
X6227206Y-14836484D02*
X6198634Y-14836484D01*
X6379587Y-14836484D02*
X6360539Y-14826960D01*
X6360539Y-14826960D02*
X6351015Y-14807912D01*
X6351015Y-14807912D02*
X6351015Y-14636484D01*
X6531968Y-14826960D02*
X6512920Y-14836484D01*
X6512920Y-14836484D02*
X6474825Y-14836484D01*
X6474825Y-14836484D02*
X6455777Y-14826960D01*
X6455777Y-14826960D02*
X6446253Y-14807912D01*
X6446253Y-14807912D02*
X6446253Y-14731722D01*
X6446253Y-14731722D02*
X6455777Y-14712674D01*
X6455777Y-14712674D02*
X6474825Y-14703150D01*
X6474825Y-14703150D02*
X6512920Y-14703150D01*
X6512920Y-14703150D02*
X6531968Y-14712674D01*
X6531968Y-14712674D02*
X6541491Y-14731722D01*
X6541491Y-14731722D02*
X6541491Y-14750769D01*
X6541491Y-14750769D02*
X6446253Y-14769817D01*
X6617682Y-14826960D02*
X6636730Y-14836484D01*
X6636730Y-14836484D02*
X6674825Y-14836484D01*
X6674825Y-14836484D02*
X6693872Y-14826960D01*
X6693872Y-14826960D02*
X6703396Y-14807912D01*
X6703396Y-14807912D02*
X6703396Y-14798388D01*
X6703396Y-14798388D02*
X6693872Y-14779341D01*
X6693872Y-14779341D02*
X6674825Y-14769817D01*
X6674825Y-14769817D02*
X6646253Y-14769817D01*
X6646253Y-14769817D02*
X6627206Y-14760293D01*
X6627206Y-14760293D02*
X6617682Y-14741246D01*
X6617682Y-14741246D02*
X6617682Y-14731722D01*
X6617682Y-14731722D02*
X6627206Y-14712674D01*
X6627206Y-14712674D02*
X6646253Y-14703150D01*
X6646253Y-14703150D02*
X6674825Y-14703150D01*
X6674825Y-14703150D02*
X6693872Y-14712674D01*
X6770063Y-14912674D02*
X6779587Y-14903150D01*
X6779587Y-14903150D02*
X6798634Y-14874579D01*
X6798634Y-14874579D02*
X6808158Y-14855531D01*
X6808158Y-14855531D02*
X6817682Y-14826960D01*
X6817682Y-14826960D02*
X6827206Y-14779341D01*
X6827206Y-14779341D02*
X6827206Y-14741246D01*
X6827206Y-14741246D02*
X6817682Y-14693627D01*
X6817682Y-14693627D02*
X6808158Y-14665055D01*
X6808158Y-14665055D02*
X6798634Y-14646008D01*
X6798634Y-14646008D02*
X6779587Y-14617436D01*
X6779587Y-14617436D02*
X6770063Y-14607912D01*
D11*
X1995000Y-15009000D02*
G75*
G03*
X1945000Y-15009000I-25000J0D01*
G01*
X1945000Y-15009000D02*
G75*
G03*
X1995000Y-15009000I25000J0D01*
G01*
D10*
X2293872Y-14900484D02*
X2312920Y-14900484D01*
X2312920Y-14900484D02*
X2331967Y-14910008D01*
X2331967Y-14910008D02*
X2341491Y-14919531D01*
X2341491Y-14919531D02*
X2351015Y-14938579D01*
X2351015Y-14938579D02*
X2360539Y-14976674D01*
X2360539Y-14976674D02*
X2360539Y-15024293D01*
X2360539Y-15024293D02*
X2351015Y-15062388D01*
X2351015Y-15062388D02*
X2341491Y-15081436D01*
X2341491Y-15081436D02*
X2331967Y-15090960D01*
X2331967Y-15090960D02*
X2312920Y-15100484D01*
X2312920Y-15100484D02*
X2293872Y-15100484D01*
X2293872Y-15100484D02*
X2274824Y-15090960D01*
X2274824Y-15090960D02*
X2265301Y-15081436D01*
X2265301Y-15081436D02*
X2255777Y-15062388D01*
X2255777Y-15062388D02*
X2246253Y-15024293D01*
X2246253Y-15024293D02*
X2246253Y-14976674D01*
X2246253Y-14976674D02*
X2255777Y-14938579D01*
X2255777Y-14938579D02*
X2265301Y-14919531D01*
X2265301Y-14919531D02*
X2274824Y-14910008D01*
X2274824Y-14910008D02*
X2293872Y-14900484D01*
X2446253Y-15081436D02*
X2455777Y-15090960D01*
X2455777Y-15090960D02*
X2446253Y-15100484D01*
X2446253Y-15100484D02*
X2436729Y-15090960D01*
X2436729Y-15090960D02*
X2446253Y-15081436D01*
X2446253Y-15081436D02*
X2446253Y-15100484D01*
X2636729Y-14900484D02*
X2541491Y-14900484D01*
X2541491Y-14900484D02*
X2531967Y-14995722D01*
X2531967Y-14995722D02*
X2541491Y-14986198D01*
X2541491Y-14986198D02*
X2560539Y-14976674D01*
X2560539Y-14976674D02*
X2608158Y-14976674D01*
X2608158Y-14976674D02*
X2627205Y-14986198D01*
X2627205Y-14986198D02*
X2636729Y-14995722D01*
X2636729Y-14995722D02*
X2646253Y-15014769D01*
X2646253Y-15014769D02*
X2646253Y-15062388D01*
X2646253Y-15062388D02*
X2636729Y-15081436D01*
X2636729Y-15081436D02*
X2627205Y-15090960D01*
X2627205Y-15090960D02*
X2608158Y-15100484D01*
X2608158Y-15100484D02*
X2560539Y-15100484D01*
X2560539Y-15100484D02*
X2541491Y-15090960D01*
X2541491Y-15090960D02*
X2531967Y-15081436D01*
X2770063Y-14900484D02*
X2789110Y-14900484D01*
X2789110Y-14900484D02*
X2808158Y-14910008D01*
X2808158Y-14910008D02*
X2817682Y-14919531D01*
X2817682Y-14919531D02*
X2827205Y-14938579D01*
X2827205Y-14938579D02*
X2836729Y-14976674D01*
X2836729Y-14976674D02*
X2836729Y-15024293D01*
X2836729Y-15024293D02*
X2827205Y-15062388D01*
X2827205Y-15062388D02*
X2817682Y-15081436D01*
X2817682Y-15081436D02*
X2808158Y-15090960D01*
X2808158Y-15090960D02*
X2789110Y-15100484D01*
X2789110Y-15100484D02*
X2770063Y-15100484D01*
X2770063Y-15100484D02*
X2751015Y-15090960D01*
X2751015Y-15090960D02*
X2741491Y-15081436D01*
X2741491Y-15081436D02*
X2731967Y-15062388D01*
X2731967Y-15062388D02*
X2722444Y-15024293D01*
X2722444Y-15024293D02*
X2722444Y-14976674D01*
X2722444Y-14976674D02*
X2731967Y-14938579D01*
X2731967Y-14938579D02*
X2741491Y-14919531D01*
X2741491Y-14919531D02*
X2751015Y-14910008D01*
X2751015Y-14910008D02*
X2770063Y-14900484D01*
X2960539Y-14900484D02*
X2979586Y-14900484D01*
X2979586Y-14900484D02*
X2998634Y-14910008D01*
X2998634Y-14910008D02*
X3008158Y-14919531D01*
X3008158Y-14919531D02*
X3017682Y-14938579D01*
X3017682Y-14938579D02*
X3027205Y-14976674D01*
X3027205Y-14976674D02*
X3027205Y-15024293D01*
X3027205Y-15024293D02*
X3017682Y-15062388D01*
X3017682Y-15062388D02*
X3008158Y-15081436D01*
X3008158Y-15081436D02*
X2998634Y-15090960D01*
X2998634Y-15090960D02*
X2979586Y-15100484D01*
X2979586Y-15100484D02*
X2960539Y-15100484D01*
X2960539Y-15100484D02*
X2941491Y-15090960D01*
X2941491Y-15090960D02*
X2931967Y-15081436D01*
X2931967Y-15081436D02*
X2922443Y-15062388D01*
X2922443Y-15062388D02*
X2912920Y-15024293D01*
X2912920Y-15024293D02*
X2912920Y-14976674D01*
X2912920Y-14976674D02*
X2922443Y-14938579D01*
X2922443Y-14938579D02*
X2931967Y-14919531D01*
X2931967Y-14919531D02*
X2941491Y-14910008D01*
X2941491Y-14910008D02*
X2960539Y-14900484D01*
X3112920Y-15100484D02*
X3112920Y-14967150D01*
X3112920Y-14986198D02*
X3122443Y-14976674D01*
X3122443Y-14976674D02*
X3141491Y-14967150D01*
X3141491Y-14967150D02*
X3170063Y-14967150D01*
X3170063Y-14967150D02*
X3189110Y-14976674D01*
X3189110Y-14976674D02*
X3198634Y-14995722D01*
X3198634Y-14995722D02*
X3198634Y-15100484D01*
X3198634Y-14995722D02*
X3208158Y-14976674D01*
X3208158Y-14976674D02*
X3227205Y-14967150D01*
X3227205Y-14967150D02*
X3255777Y-14967150D01*
X3255777Y-14967150D02*
X3274824Y-14976674D01*
X3274824Y-14976674D02*
X3284348Y-14995722D01*
X3284348Y-14995722D02*
X3284348Y-15100484D01*
X3379586Y-15100484D02*
X3379586Y-14967150D01*
X3379586Y-14986198D02*
X3389110Y-14976674D01*
X3389110Y-14976674D02*
X3408158Y-14967150D01*
X3408158Y-14967150D02*
X3436729Y-14967150D01*
X3436729Y-14967150D02*
X3455777Y-14976674D01*
X3455777Y-14976674D02*
X3465301Y-14995722D01*
X3465301Y-14995722D02*
X3465301Y-15100484D01*
X3465301Y-14995722D02*
X3474824Y-14976674D01*
X3474824Y-14976674D02*
X3493872Y-14967150D01*
X3493872Y-14967150D02*
X3522443Y-14967150D01*
X3522443Y-14967150D02*
X3541491Y-14976674D01*
X3541491Y-14976674D02*
X3551015Y-14995722D01*
X3551015Y-14995722D02*
X3551015Y-15100484D01*
X3941491Y-14890960D02*
X3770063Y-15148103D01*
X4198634Y-14900484D02*
X4217682Y-14900484D01*
X4217682Y-14900484D02*
X4236729Y-14910008D01*
X4236729Y-14910008D02*
X4246253Y-14919531D01*
X4246253Y-14919531D02*
X4255777Y-14938579D01*
X4255777Y-14938579D02*
X4265301Y-14976674D01*
X4265301Y-14976674D02*
X4265301Y-15024293D01*
X4265301Y-15024293D02*
X4255777Y-15062388D01*
X4255777Y-15062388D02*
X4246253Y-15081436D01*
X4246253Y-15081436D02*
X4236729Y-15090960D01*
X4236729Y-15090960D02*
X4217682Y-15100484D01*
X4217682Y-15100484D02*
X4198634Y-15100484D01*
X4198634Y-15100484D02*
X4179586Y-15090960D01*
X4179586Y-15090960D02*
X4170063Y-15081436D01*
X4170063Y-15081436D02*
X4160539Y-15062388D01*
X4160539Y-15062388D02*
X4151015Y-15024293D01*
X4151015Y-15024293D02*
X4151015Y-14976674D01*
X4151015Y-14976674D02*
X4160539Y-14938579D01*
X4160539Y-14938579D02*
X4170063Y-14919531D01*
X4170063Y-14919531D02*
X4179586Y-14910008D01*
X4179586Y-14910008D02*
X4198634Y-14900484D01*
X4351015Y-15081436D02*
X4360539Y-15090960D01*
X4360539Y-15090960D02*
X4351015Y-15100484D01*
X4351015Y-15100484D02*
X4341491Y-15090960D01*
X4341491Y-15090960D02*
X4351015Y-15081436D01*
X4351015Y-15081436D02*
X4351015Y-15100484D01*
X4484348Y-14900484D02*
X4503396Y-14900484D01*
X4503396Y-14900484D02*
X4522444Y-14910008D01*
X4522444Y-14910008D02*
X4531968Y-14919531D01*
X4531968Y-14919531D02*
X4541491Y-14938579D01*
X4541491Y-14938579D02*
X4551015Y-14976674D01*
X4551015Y-14976674D02*
X4551015Y-15024293D01*
X4551015Y-15024293D02*
X4541491Y-15062388D01*
X4541491Y-15062388D02*
X4531968Y-15081436D01*
X4531968Y-15081436D02*
X4522444Y-15090960D01*
X4522444Y-15090960D02*
X4503396Y-15100484D01*
X4503396Y-15100484D02*
X4484348Y-15100484D01*
X4484348Y-15100484D02*
X4465301Y-15090960D01*
X4465301Y-15090960D02*
X4455777Y-15081436D01*
X4455777Y-15081436D02*
X4446253Y-15062388D01*
X4446253Y-15062388D02*
X4436729Y-15024293D01*
X4436729Y-15024293D02*
X4436729Y-14976674D01*
X4436729Y-14976674D02*
X4446253Y-14938579D01*
X4446253Y-14938579D02*
X4455777Y-14919531D01*
X4455777Y-14919531D02*
X4465301Y-14910008D01*
X4465301Y-14910008D02*
X4484348Y-14900484D01*
X4741491Y-15100484D02*
X4627206Y-15100484D01*
X4684348Y-15100484D02*
X4684348Y-14900484D01*
X4684348Y-14900484D02*
X4665301Y-14929055D01*
X4665301Y-14929055D02*
X4646253Y-14948103D01*
X4646253Y-14948103D02*
X4627206Y-14957627D01*
X4836729Y-15100484D02*
X4874825Y-15100484D01*
X4874825Y-15100484D02*
X4893872Y-15090960D01*
X4893872Y-15090960D02*
X4903396Y-15081436D01*
X4903396Y-15081436D02*
X4922444Y-15052865D01*
X4922444Y-15052865D02*
X4931968Y-15014769D01*
X4931968Y-15014769D02*
X4931968Y-14938579D01*
X4931968Y-14938579D02*
X4922444Y-14919531D01*
X4922444Y-14919531D02*
X4912920Y-14910008D01*
X4912920Y-14910008D02*
X4893872Y-14900484D01*
X4893872Y-14900484D02*
X4855777Y-14900484D01*
X4855777Y-14900484D02*
X4836729Y-14910008D01*
X4836729Y-14910008D02*
X4827206Y-14919531D01*
X4827206Y-14919531D02*
X4817682Y-14938579D01*
X4817682Y-14938579D02*
X4817682Y-14986198D01*
X4817682Y-14986198D02*
X4827206Y-15005246D01*
X4827206Y-15005246D02*
X4836729Y-15014769D01*
X4836729Y-15014769D02*
X4855777Y-15024293D01*
X4855777Y-15024293D02*
X4893872Y-15024293D01*
X4893872Y-15024293D02*
X4912920Y-15014769D01*
X4912920Y-15014769D02*
X4922444Y-15005246D01*
X4922444Y-15005246D02*
X4931968Y-14986198D01*
X4998634Y-14900484D02*
X5131968Y-14900484D01*
X5131968Y-14900484D02*
X5046253Y-15100484D01*
X5198634Y-14900484D02*
X5198634Y-14938579D01*
X5274825Y-14900484D02*
X5274825Y-14938579D01*
X5570063Y-15176674D02*
X5560539Y-15167150D01*
X5560539Y-15167150D02*
X5541491Y-15138579D01*
X5541491Y-15138579D02*
X5531968Y-15119531D01*
X5531968Y-15119531D02*
X5522444Y-15090960D01*
X5522444Y-15090960D02*
X5512920Y-15043341D01*
X5512920Y-15043341D02*
X5512920Y-15005246D01*
X5512920Y-15005246D02*
X5522444Y-14957627D01*
X5522444Y-14957627D02*
X5531968Y-14929055D01*
X5531968Y-14929055D02*
X5541491Y-14910008D01*
X5541491Y-14910008D02*
X5560539Y-14881436D01*
X5560539Y-14881436D02*
X5570063Y-14871912D01*
X5731968Y-14900484D02*
X5693872Y-14900484D01*
X5693872Y-14900484D02*
X5674825Y-14910008D01*
X5674825Y-14910008D02*
X5665301Y-14919531D01*
X5665301Y-14919531D02*
X5646253Y-14948103D01*
X5646253Y-14948103D02*
X5636729Y-14986198D01*
X5636729Y-14986198D02*
X5636729Y-15062388D01*
X5636729Y-15062388D02*
X5646253Y-15081436D01*
X5646253Y-15081436D02*
X5655777Y-15090960D01*
X5655777Y-15090960D02*
X5674825Y-15100484D01*
X5674825Y-15100484D02*
X5712920Y-15100484D01*
X5712920Y-15100484D02*
X5731968Y-15090960D01*
X5731968Y-15090960D02*
X5741491Y-15081436D01*
X5741491Y-15081436D02*
X5751015Y-15062388D01*
X5751015Y-15062388D02*
X5751015Y-15014769D01*
X5751015Y-15014769D02*
X5741491Y-14995722D01*
X5741491Y-14995722D02*
X5731968Y-14986198D01*
X5731968Y-14986198D02*
X5712920Y-14976674D01*
X5712920Y-14976674D02*
X5674825Y-14976674D01*
X5674825Y-14976674D02*
X5655777Y-14986198D01*
X5655777Y-14986198D02*
X5646253Y-14995722D01*
X5646253Y-14995722D02*
X5636729Y-15014769D01*
X5989110Y-15100484D02*
X5989110Y-14900484D01*
X6074825Y-15100484D02*
X6074825Y-14995722D01*
X6074825Y-14995722D02*
X6065301Y-14976674D01*
X6065301Y-14976674D02*
X6046253Y-14967150D01*
X6046253Y-14967150D02*
X6017682Y-14967150D01*
X6017682Y-14967150D02*
X5998634Y-14976674D01*
X5998634Y-14976674D02*
X5989110Y-14986198D01*
X6198634Y-15100484D02*
X6179587Y-15090960D01*
X6179587Y-15090960D02*
X6170063Y-15081436D01*
X6170063Y-15081436D02*
X6160539Y-15062388D01*
X6160539Y-15062388D02*
X6160539Y-15005246D01*
X6160539Y-15005246D02*
X6170063Y-14986198D01*
X6170063Y-14986198D02*
X6179587Y-14976674D01*
X6179587Y-14976674D02*
X6198634Y-14967150D01*
X6198634Y-14967150D02*
X6227206Y-14967150D01*
X6227206Y-14967150D02*
X6246253Y-14976674D01*
X6246253Y-14976674D02*
X6255777Y-14986198D01*
X6255777Y-14986198D02*
X6265301Y-15005246D01*
X6265301Y-15005246D02*
X6265301Y-15062388D01*
X6265301Y-15062388D02*
X6255777Y-15081436D01*
X6255777Y-15081436D02*
X6246253Y-15090960D01*
X6246253Y-15090960D02*
X6227206Y-15100484D01*
X6227206Y-15100484D02*
X6198634Y-15100484D01*
X6379587Y-15100484D02*
X6360539Y-15090960D01*
X6360539Y-15090960D02*
X6351015Y-15071912D01*
X6351015Y-15071912D02*
X6351015Y-14900484D01*
X6531968Y-15090960D02*
X6512920Y-15100484D01*
X6512920Y-15100484D02*
X6474825Y-15100484D01*
X6474825Y-15100484D02*
X6455777Y-15090960D01*
X6455777Y-15090960D02*
X6446253Y-15071912D01*
X6446253Y-15071912D02*
X6446253Y-14995722D01*
X6446253Y-14995722D02*
X6455777Y-14976674D01*
X6455777Y-14976674D02*
X6474825Y-14967150D01*
X6474825Y-14967150D02*
X6512920Y-14967150D01*
X6512920Y-14967150D02*
X6531968Y-14976674D01*
X6531968Y-14976674D02*
X6541491Y-14995722D01*
X6541491Y-14995722D02*
X6541491Y-15014769D01*
X6541491Y-15014769D02*
X6446253Y-15033817D01*
X6617682Y-15090960D02*
X6636730Y-15100484D01*
X6636730Y-15100484D02*
X6674825Y-15100484D01*
X6674825Y-15100484D02*
X6693872Y-15090960D01*
X6693872Y-15090960D02*
X6703396Y-15071912D01*
X6703396Y-15071912D02*
X6703396Y-15062388D01*
X6703396Y-15062388D02*
X6693872Y-15043341D01*
X6693872Y-15043341D02*
X6674825Y-15033817D01*
X6674825Y-15033817D02*
X6646253Y-15033817D01*
X6646253Y-15033817D02*
X6627206Y-15024293D01*
X6627206Y-15024293D02*
X6617682Y-15005246D01*
X6617682Y-15005246D02*
X6617682Y-14995722D01*
X6617682Y-14995722D02*
X6627206Y-14976674D01*
X6627206Y-14976674D02*
X6646253Y-14967150D01*
X6646253Y-14967150D02*
X6674825Y-14967150D01*
X6674825Y-14967150D02*
X6693872Y-14976674D01*
X6770063Y-15176674D02*
X6779587Y-15167150D01*
X6779587Y-15167150D02*
X6798634Y-15138579D01*
X6798634Y-15138579D02*
X6808158Y-15119531D01*
X6808158Y-15119531D02*
X6817682Y-15090960D01*
X6817682Y-15090960D02*
X6827206Y-15043341D01*
X6827206Y-15043341D02*
X6827206Y-15005246D01*
X6827206Y-15005246D02*
X6817682Y-14957627D01*
X6817682Y-14957627D02*
X6808158Y-14929055D01*
X6808158Y-14929055D02*
X6798634Y-14910008D01*
X6798634Y-14910008D02*
X6779587Y-14881436D01*
X6779587Y-14881436D02*
X6770063Y-14871912D01*
D11*
X1955000Y-15233000D02*
X1955000Y-15313000D01*
X1915000Y-15273000D02*
X1995000Y-15273000D01*
D10*
X2293872Y-15164484D02*
X2312920Y-15164484D01*
X2312920Y-15164484D02*
X2331967Y-15174008D01*
X2331967Y-15174008D02*
X2341491Y-15183531D01*
X2341491Y-15183531D02*
X2351015Y-15202579D01*
X2351015Y-15202579D02*
X2360539Y-15240674D01*
X2360539Y-15240674D02*
X2360539Y-15288293D01*
X2360539Y-15288293D02*
X2351015Y-15326388D01*
X2351015Y-15326388D02*
X2341491Y-15345436D01*
X2341491Y-15345436D02*
X2331967Y-15354960D01*
X2331967Y-15354960D02*
X2312920Y-15364484D01*
X2312920Y-15364484D02*
X2293872Y-15364484D01*
X2293872Y-15364484D02*
X2274824Y-15354960D01*
X2274824Y-15354960D02*
X2265301Y-15345436D01*
X2265301Y-15345436D02*
X2255777Y-15326388D01*
X2255777Y-15326388D02*
X2246253Y-15288293D01*
X2246253Y-15288293D02*
X2246253Y-15240674D01*
X2246253Y-15240674D02*
X2255777Y-15202579D01*
X2255777Y-15202579D02*
X2265301Y-15183531D01*
X2265301Y-15183531D02*
X2274824Y-15174008D01*
X2274824Y-15174008D02*
X2293872Y-15164484D01*
X2446253Y-15345436D02*
X2455777Y-15354960D01*
X2455777Y-15354960D02*
X2446253Y-15364484D01*
X2446253Y-15364484D02*
X2436729Y-15354960D01*
X2436729Y-15354960D02*
X2446253Y-15345436D01*
X2446253Y-15345436D02*
X2446253Y-15364484D01*
X2570063Y-15250198D02*
X2551015Y-15240674D01*
X2551015Y-15240674D02*
X2541491Y-15231150D01*
X2541491Y-15231150D02*
X2531967Y-15212103D01*
X2531967Y-15212103D02*
X2531967Y-15202579D01*
X2531967Y-15202579D02*
X2541491Y-15183531D01*
X2541491Y-15183531D02*
X2551015Y-15174008D01*
X2551015Y-15174008D02*
X2570063Y-15164484D01*
X2570063Y-15164484D02*
X2608158Y-15164484D01*
X2608158Y-15164484D02*
X2627205Y-15174008D01*
X2627205Y-15174008D02*
X2636729Y-15183531D01*
X2636729Y-15183531D02*
X2646253Y-15202579D01*
X2646253Y-15202579D02*
X2646253Y-15212103D01*
X2646253Y-15212103D02*
X2636729Y-15231150D01*
X2636729Y-15231150D02*
X2627205Y-15240674D01*
X2627205Y-15240674D02*
X2608158Y-15250198D01*
X2608158Y-15250198D02*
X2570063Y-15250198D01*
X2570063Y-15250198D02*
X2551015Y-15259722D01*
X2551015Y-15259722D02*
X2541491Y-15269246D01*
X2541491Y-15269246D02*
X2531967Y-15288293D01*
X2531967Y-15288293D02*
X2531967Y-15326388D01*
X2531967Y-15326388D02*
X2541491Y-15345436D01*
X2541491Y-15345436D02*
X2551015Y-15354960D01*
X2551015Y-15354960D02*
X2570063Y-15364484D01*
X2570063Y-15364484D02*
X2608158Y-15364484D01*
X2608158Y-15364484D02*
X2627205Y-15354960D01*
X2627205Y-15354960D02*
X2636729Y-15345436D01*
X2636729Y-15345436D02*
X2646253Y-15326388D01*
X2646253Y-15326388D02*
X2646253Y-15288293D01*
X2646253Y-15288293D02*
X2636729Y-15269246D01*
X2636729Y-15269246D02*
X2627205Y-15259722D01*
X2627205Y-15259722D02*
X2608158Y-15250198D01*
X2770063Y-15164484D02*
X2789110Y-15164484D01*
X2789110Y-15164484D02*
X2808158Y-15174008D01*
X2808158Y-15174008D02*
X2817682Y-15183531D01*
X2817682Y-15183531D02*
X2827205Y-15202579D01*
X2827205Y-15202579D02*
X2836729Y-15240674D01*
X2836729Y-15240674D02*
X2836729Y-15288293D01*
X2836729Y-15288293D02*
X2827205Y-15326388D01*
X2827205Y-15326388D02*
X2817682Y-15345436D01*
X2817682Y-15345436D02*
X2808158Y-15354960D01*
X2808158Y-15354960D02*
X2789110Y-15364484D01*
X2789110Y-15364484D02*
X2770063Y-15364484D01*
X2770063Y-15364484D02*
X2751015Y-15354960D01*
X2751015Y-15354960D02*
X2741491Y-15345436D01*
X2741491Y-15345436D02*
X2731967Y-15326388D01*
X2731967Y-15326388D02*
X2722444Y-15288293D01*
X2722444Y-15288293D02*
X2722444Y-15240674D01*
X2722444Y-15240674D02*
X2731967Y-15202579D01*
X2731967Y-15202579D02*
X2741491Y-15183531D01*
X2741491Y-15183531D02*
X2751015Y-15174008D01*
X2751015Y-15174008D02*
X2770063Y-15164484D01*
X2960539Y-15164484D02*
X2979586Y-15164484D01*
X2979586Y-15164484D02*
X2998634Y-15174008D01*
X2998634Y-15174008D02*
X3008158Y-15183531D01*
X3008158Y-15183531D02*
X3017682Y-15202579D01*
X3017682Y-15202579D02*
X3027205Y-15240674D01*
X3027205Y-15240674D02*
X3027205Y-15288293D01*
X3027205Y-15288293D02*
X3017682Y-15326388D01*
X3017682Y-15326388D02*
X3008158Y-15345436D01*
X3008158Y-15345436D02*
X2998634Y-15354960D01*
X2998634Y-15354960D02*
X2979586Y-15364484D01*
X2979586Y-15364484D02*
X2960539Y-15364484D01*
X2960539Y-15364484D02*
X2941491Y-15354960D01*
X2941491Y-15354960D02*
X2931967Y-15345436D01*
X2931967Y-15345436D02*
X2922443Y-15326388D01*
X2922443Y-15326388D02*
X2912920Y-15288293D01*
X2912920Y-15288293D02*
X2912920Y-15240674D01*
X2912920Y-15240674D02*
X2922443Y-15202579D01*
X2922443Y-15202579D02*
X2931967Y-15183531D01*
X2931967Y-15183531D02*
X2941491Y-15174008D01*
X2941491Y-15174008D02*
X2960539Y-15164484D01*
X3112920Y-15364484D02*
X3112920Y-15231150D01*
X3112920Y-15250198D02*
X3122443Y-15240674D01*
X3122443Y-15240674D02*
X3141491Y-15231150D01*
X3141491Y-15231150D02*
X3170063Y-15231150D01*
X3170063Y-15231150D02*
X3189110Y-15240674D01*
X3189110Y-15240674D02*
X3198634Y-15259722D01*
X3198634Y-15259722D02*
X3198634Y-15364484D01*
X3198634Y-15259722D02*
X3208158Y-15240674D01*
X3208158Y-15240674D02*
X3227205Y-15231150D01*
X3227205Y-15231150D02*
X3255777Y-15231150D01*
X3255777Y-15231150D02*
X3274824Y-15240674D01*
X3274824Y-15240674D02*
X3284348Y-15259722D01*
X3284348Y-15259722D02*
X3284348Y-15364484D01*
X3379586Y-15364484D02*
X3379586Y-15231150D01*
X3379586Y-15250198D02*
X3389110Y-15240674D01*
X3389110Y-15240674D02*
X3408158Y-15231150D01*
X3408158Y-15231150D02*
X3436729Y-15231150D01*
X3436729Y-15231150D02*
X3455777Y-15240674D01*
X3455777Y-15240674D02*
X3465301Y-15259722D01*
X3465301Y-15259722D02*
X3465301Y-15364484D01*
X3465301Y-15259722D02*
X3474824Y-15240674D01*
X3474824Y-15240674D02*
X3493872Y-15231150D01*
X3493872Y-15231150D02*
X3522443Y-15231150D01*
X3522443Y-15231150D02*
X3541491Y-15240674D01*
X3541491Y-15240674D02*
X3551015Y-15259722D01*
X3551015Y-15259722D02*
X3551015Y-15364484D01*
X3941491Y-15154960D02*
X3770063Y-15412103D01*
X4198634Y-15164484D02*
X4217682Y-15164484D01*
X4217682Y-15164484D02*
X4236729Y-15174008D01*
X4236729Y-15174008D02*
X4246253Y-15183531D01*
X4246253Y-15183531D02*
X4255777Y-15202579D01*
X4255777Y-15202579D02*
X4265301Y-15240674D01*
X4265301Y-15240674D02*
X4265301Y-15288293D01*
X4265301Y-15288293D02*
X4255777Y-15326388D01*
X4255777Y-15326388D02*
X4246253Y-15345436D01*
X4246253Y-15345436D02*
X4236729Y-15354960D01*
X4236729Y-15354960D02*
X4217682Y-15364484D01*
X4217682Y-15364484D02*
X4198634Y-15364484D01*
X4198634Y-15364484D02*
X4179586Y-15354960D01*
X4179586Y-15354960D02*
X4170063Y-15345436D01*
X4170063Y-15345436D02*
X4160539Y-15326388D01*
X4160539Y-15326388D02*
X4151015Y-15288293D01*
X4151015Y-15288293D02*
X4151015Y-15240674D01*
X4151015Y-15240674D02*
X4160539Y-15202579D01*
X4160539Y-15202579D02*
X4170063Y-15183531D01*
X4170063Y-15183531D02*
X4179586Y-15174008D01*
X4179586Y-15174008D02*
X4198634Y-15164484D01*
X4351015Y-15345436D02*
X4360539Y-15354960D01*
X4360539Y-15354960D02*
X4351015Y-15364484D01*
X4351015Y-15364484D02*
X4341491Y-15354960D01*
X4341491Y-15354960D02*
X4351015Y-15345436D01*
X4351015Y-15345436D02*
X4351015Y-15364484D01*
X4484348Y-15164484D02*
X4503396Y-15164484D01*
X4503396Y-15164484D02*
X4522444Y-15174008D01*
X4522444Y-15174008D02*
X4531968Y-15183531D01*
X4531968Y-15183531D02*
X4541491Y-15202579D01*
X4541491Y-15202579D02*
X4551015Y-15240674D01*
X4551015Y-15240674D02*
X4551015Y-15288293D01*
X4551015Y-15288293D02*
X4541491Y-15326388D01*
X4541491Y-15326388D02*
X4531968Y-15345436D01*
X4531968Y-15345436D02*
X4522444Y-15354960D01*
X4522444Y-15354960D02*
X4503396Y-15364484D01*
X4503396Y-15364484D02*
X4484348Y-15364484D01*
X4484348Y-15364484D02*
X4465301Y-15354960D01*
X4465301Y-15354960D02*
X4455777Y-15345436D01*
X4455777Y-15345436D02*
X4446253Y-15326388D01*
X4446253Y-15326388D02*
X4436729Y-15288293D01*
X4436729Y-15288293D02*
X4436729Y-15240674D01*
X4436729Y-15240674D02*
X4446253Y-15202579D01*
X4446253Y-15202579D02*
X4455777Y-15183531D01*
X4455777Y-15183531D02*
X4465301Y-15174008D01*
X4465301Y-15174008D02*
X4484348Y-15164484D01*
X4617682Y-15164484D02*
X4741491Y-15164484D01*
X4741491Y-15164484D02*
X4674825Y-15240674D01*
X4674825Y-15240674D02*
X4703396Y-15240674D01*
X4703396Y-15240674D02*
X4722444Y-15250198D01*
X4722444Y-15250198D02*
X4731968Y-15259722D01*
X4731968Y-15259722D02*
X4741491Y-15278769D01*
X4741491Y-15278769D02*
X4741491Y-15326388D01*
X4741491Y-15326388D02*
X4731968Y-15345436D01*
X4731968Y-15345436D02*
X4722444Y-15354960D01*
X4722444Y-15354960D02*
X4703396Y-15364484D01*
X4703396Y-15364484D02*
X4646253Y-15364484D01*
X4646253Y-15364484D02*
X4627206Y-15354960D01*
X4627206Y-15354960D02*
X4617682Y-15345436D01*
X4931968Y-15364484D02*
X4817682Y-15364484D01*
X4874825Y-15364484D02*
X4874825Y-15164484D01*
X4874825Y-15164484D02*
X4855777Y-15193055D01*
X4855777Y-15193055D02*
X4836729Y-15212103D01*
X4836729Y-15212103D02*
X4817682Y-15221627D01*
X5112920Y-15164484D02*
X5017682Y-15164484D01*
X5017682Y-15164484D02*
X5008158Y-15259722D01*
X5008158Y-15259722D02*
X5017682Y-15250198D01*
X5017682Y-15250198D02*
X5036729Y-15240674D01*
X5036729Y-15240674D02*
X5084349Y-15240674D01*
X5084349Y-15240674D02*
X5103396Y-15250198D01*
X5103396Y-15250198D02*
X5112920Y-15259722D01*
X5112920Y-15259722D02*
X5122444Y-15278769D01*
X5122444Y-15278769D02*
X5122444Y-15326388D01*
X5122444Y-15326388D02*
X5112920Y-15345436D01*
X5112920Y-15345436D02*
X5103396Y-15354960D01*
X5103396Y-15354960D02*
X5084349Y-15364484D01*
X5084349Y-15364484D02*
X5036729Y-15364484D01*
X5036729Y-15364484D02*
X5017682Y-15354960D01*
X5017682Y-15354960D02*
X5008158Y-15345436D01*
X5198634Y-15164484D02*
X5198634Y-15202579D01*
X5274825Y-15164484D02*
X5274825Y-15202579D01*
X5570063Y-15440674D02*
X5560539Y-15431150D01*
X5560539Y-15431150D02*
X5541491Y-15402579D01*
X5541491Y-15402579D02*
X5531968Y-15383531D01*
X5531968Y-15383531D02*
X5522444Y-15354960D01*
X5522444Y-15354960D02*
X5512920Y-15307341D01*
X5512920Y-15307341D02*
X5512920Y-15269246D01*
X5512920Y-15269246D02*
X5522444Y-15221627D01*
X5522444Y-15221627D02*
X5531968Y-15193055D01*
X5531968Y-15193055D02*
X5541491Y-15174008D01*
X5541491Y-15174008D02*
X5560539Y-15145436D01*
X5560539Y-15145436D02*
X5570063Y-15135912D01*
X5751015Y-15364484D02*
X5636729Y-15364484D01*
X5693872Y-15364484D02*
X5693872Y-15164484D01*
X5693872Y-15164484D02*
X5674825Y-15193055D01*
X5674825Y-15193055D02*
X5655777Y-15212103D01*
X5655777Y-15212103D02*
X5636729Y-15221627D01*
X5874825Y-15164484D02*
X5893872Y-15164484D01*
X5893872Y-15164484D02*
X5912920Y-15174008D01*
X5912920Y-15174008D02*
X5922444Y-15183531D01*
X5922444Y-15183531D02*
X5931968Y-15202579D01*
X5931968Y-15202579D02*
X5941491Y-15240674D01*
X5941491Y-15240674D02*
X5941491Y-15288293D01*
X5941491Y-15288293D02*
X5931968Y-15326388D01*
X5931968Y-15326388D02*
X5922444Y-15345436D01*
X5922444Y-15345436D02*
X5912920Y-15354960D01*
X5912920Y-15354960D02*
X5893872Y-15364484D01*
X5893872Y-15364484D02*
X5874825Y-15364484D01*
X5874825Y-15364484D02*
X5855777Y-15354960D01*
X5855777Y-15354960D02*
X5846253Y-15345436D01*
X5846253Y-15345436D02*
X5836729Y-15326388D01*
X5836729Y-15326388D02*
X5827206Y-15288293D01*
X5827206Y-15288293D02*
X5827206Y-15240674D01*
X5827206Y-15240674D02*
X5836729Y-15202579D01*
X5836729Y-15202579D02*
X5846253Y-15183531D01*
X5846253Y-15183531D02*
X5855777Y-15174008D01*
X5855777Y-15174008D02*
X5874825Y-15164484D01*
X6065301Y-15164484D02*
X6084349Y-15164484D01*
X6084349Y-15164484D02*
X6103396Y-15174008D01*
X6103396Y-15174008D02*
X6112920Y-15183531D01*
X6112920Y-15183531D02*
X6122444Y-15202579D01*
X6122444Y-15202579D02*
X6131968Y-15240674D01*
X6131968Y-15240674D02*
X6131968Y-15288293D01*
X6131968Y-15288293D02*
X6122444Y-15326388D01*
X6122444Y-15326388D02*
X6112920Y-15345436D01*
X6112920Y-15345436D02*
X6103396Y-15354960D01*
X6103396Y-15354960D02*
X6084349Y-15364484D01*
X6084349Y-15364484D02*
X6065301Y-15364484D01*
X6065301Y-15364484D02*
X6046253Y-15354960D01*
X6046253Y-15354960D02*
X6036729Y-15345436D01*
X6036729Y-15345436D02*
X6027206Y-15326388D01*
X6027206Y-15326388D02*
X6017682Y-15288293D01*
X6017682Y-15288293D02*
X6017682Y-15240674D01*
X6017682Y-15240674D02*
X6027206Y-15202579D01*
X6027206Y-15202579D02*
X6036729Y-15183531D01*
X6036729Y-15183531D02*
X6046253Y-15174008D01*
X6046253Y-15174008D02*
X6065301Y-15164484D01*
X6370063Y-15364484D02*
X6370063Y-15164484D01*
X6455777Y-15364484D02*
X6455777Y-15259722D01*
X6455777Y-15259722D02*
X6446253Y-15240674D01*
X6446253Y-15240674D02*
X6427206Y-15231150D01*
X6427206Y-15231150D02*
X6398634Y-15231150D01*
X6398634Y-15231150D02*
X6379587Y-15240674D01*
X6379587Y-15240674D02*
X6370063Y-15250198D01*
X6579587Y-15364484D02*
X6560539Y-15354960D01*
X6560539Y-15354960D02*
X6551015Y-15345436D01*
X6551015Y-15345436D02*
X6541491Y-15326388D01*
X6541491Y-15326388D02*
X6541491Y-15269246D01*
X6541491Y-15269246D02*
X6551015Y-15250198D01*
X6551015Y-15250198D02*
X6560539Y-15240674D01*
X6560539Y-15240674D02*
X6579587Y-15231150D01*
X6579587Y-15231150D02*
X6608158Y-15231150D01*
X6608158Y-15231150D02*
X6627206Y-15240674D01*
X6627206Y-15240674D02*
X6636730Y-15250198D01*
X6636730Y-15250198D02*
X6646253Y-15269246D01*
X6646253Y-15269246D02*
X6646253Y-15326388D01*
X6646253Y-15326388D02*
X6636730Y-15345436D01*
X6636730Y-15345436D02*
X6627206Y-15354960D01*
X6627206Y-15354960D02*
X6608158Y-15364484D01*
X6608158Y-15364484D02*
X6579587Y-15364484D01*
X6760539Y-15364484D02*
X6741491Y-15354960D01*
X6741491Y-15354960D02*
X6731968Y-15335912D01*
X6731968Y-15335912D02*
X6731968Y-15164484D01*
X6912920Y-15354960D02*
X6893872Y-15364484D01*
X6893872Y-15364484D02*
X6855777Y-15364484D01*
X6855777Y-15364484D02*
X6836730Y-15354960D01*
X6836730Y-15354960D02*
X6827206Y-15335912D01*
X6827206Y-15335912D02*
X6827206Y-15259722D01*
X6827206Y-15259722D02*
X6836730Y-15240674D01*
X6836730Y-15240674D02*
X6855777Y-15231150D01*
X6855777Y-15231150D02*
X6893872Y-15231150D01*
X6893872Y-15231150D02*
X6912920Y-15240674D01*
X6912920Y-15240674D02*
X6922444Y-15259722D01*
X6922444Y-15259722D02*
X6922444Y-15278769D01*
X6922444Y-15278769D02*
X6827206Y-15297817D01*
X6998634Y-15354960D02*
X7017682Y-15364484D01*
X7017682Y-15364484D02*
X7055777Y-15364484D01*
X7055777Y-15364484D02*
X7074825Y-15354960D01*
X7074825Y-15354960D02*
X7084349Y-15335912D01*
X7084349Y-15335912D02*
X7084349Y-15326388D01*
X7084349Y-15326388D02*
X7074825Y-15307341D01*
X7074825Y-15307341D02*
X7055777Y-15297817D01*
X7055777Y-15297817D02*
X7027206Y-15297817D01*
X7027206Y-15297817D02*
X7008158Y-15288293D01*
X7008158Y-15288293D02*
X6998634Y-15269246D01*
X6998634Y-15269246D02*
X6998634Y-15259722D01*
X6998634Y-15259722D02*
X7008158Y-15240674D01*
X7008158Y-15240674D02*
X7027206Y-15231150D01*
X7027206Y-15231150D02*
X7055777Y-15231150D01*
X7055777Y-15231150D02*
X7074825Y-15240674D01*
X7151015Y-15440674D02*
X7160539Y-15431150D01*
X7160539Y-15431150D02*
X7179587Y-15402579D01*
X7179587Y-15402579D02*
X7189111Y-15383531D01*
X7189111Y-15383531D02*
X7198634Y-15354960D01*
X7198634Y-15354960D02*
X7208158Y-15307341D01*
X7208158Y-15307341D02*
X7208158Y-15269246D01*
X7208158Y-15269246D02*
X7198634Y-15221627D01*
X7198634Y-15221627D02*
X7189111Y-15193055D01*
X7189111Y-15193055D02*
X7179587Y-15174008D01*
X7179587Y-15174008D02*
X7160539Y-15145436D01*
X7160539Y-15145436D02*
X7151015Y-15135912D01*
D11*
X1980356Y-15572356D02*
X1980356Y-15501644D01*
X1909644Y-15501644D01*
X1909644Y-15572356D01*
X1980356Y-15572356D01*
D10*
X2360539Y-15628484D02*
X2246253Y-15628484D01*
X2303396Y-15628484D02*
X2303396Y-15428484D01*
X2303396Y-15428484D02*
X2284348Y-15457055D01*
X2284348Y-15457055D02*
X2265301Y-15476103D01*
X2265301Y-15476103D02*
X2246253Y-15485627D01*
X2446253Y-15609436D02*
X2455777Y-15618960D01*
X2455777Y-15618960D02*
X2446253Y-15628484D01*
X2446253Y-15628484D02*
X2436729Y-15618960D01*
X2436729Y-15618960D02*
X2446253Y-15609436D01*
X2446253Y-15609436D02*
X2446253Y-15628484D01*
X2579586Y-15428484D02*
X2598634Y-15428484D01*
X2598634Y-15428484D02*
X2617682Y-15438008D01*
X2617682Y-15438008D02*
X2627205Y-15447531D01*
X2627205Y-15447531D02*
X2636729Y-15466579D01*
X2636729Y-15466579D02*
X2646253Y-15504674D01*
X2646253Y-15504674D02*
X2646253Y-15552293D01*
X2646253Y-15552293D02*
X2636729Y-15590388D01*
X2636729Y-15590388D02*
X2627205Y-15609436D01*
X2627205Y-15609436D02*
X2617682Y-15618960D01*
X2617682Y-15618960D02*
X2598634Y-15628484D01*
X2598634Y-15628484D02*
X2579586Y-15628484D01*
X2579586Y-15628484D02*
X2560539Y-15618960D01*
X2560539Y-15618960D02*
X2551015Y-15609436D01*
X2551015Y-15609436D02*
X2541491Y-15590388D01*
X2541491Y-15590388D02*
X2531967Y-15552293D01*
X2531967Y-15552293D02*
X2531967Y-15504674D01*
X2531967Y-15504674D02*
X2541491Y-15466579D01*
X2541491Y-15466579D02*
X2551015Y-15447531D01*
X2551015Y-15447531D02*
X2560539Y-15438008D01*
X2560539Y-15438008D02*
X2579586Y-15428484D01*
X2770063Y-15428484D02*
X2789110Y-15428484D01*
X2789110Y-15428484D02*
X2808158Y-15438008D01*
X2808158Y-15438008D02*
X2817682Y-15447531D01*
X2817682Y-15447531D02*
X2827205Y-15466579D01*
X2827205Y-15466579D02*
X2836729Y-15504674D01*
X2836729Y-15504674D02*
X2836729Y-15552293D01*
X2836729Y-15552293D02*
X2827205Y-15590388D01*
X2827205Y-15590388D02*
X2817682Y-15609436D01*
X2817682Y-15609436D02*
X2808158Y-15618960D01*
X2808158Y-15618960D02*
X2789110Y-15628484D01*
X2789110Y-15628484D02*
X2770063Y-15628484D01*
X2770063Y-15628484D02*
X2751015Y-15618960D01*
X2751015Y-15618960D02*
X2741491Y-15609436D01*
X2741491Y-15609436D02*
X2731967Y-15590388D01*
X2731967Y-15590388D02*
X2722444Y-15552293D01*
X2722444Y-15552293D02*
X2722444Y-15504674D01*
X2722444Y-15504674D02*
X2731967Y-15466579D01*
X2731967Y-15466579D02*
X2741491Y-15447531D01*
X2741491Y-15447531D02*
X2751015Y-15438008D01*
X2751015Y-15438008D02*
X2770063Y-15428484D01*
X2960539Y-15428484D02*
X2979586Y-15428484D01*
X2979586Y-15428484D02*
X2998634Y-15438008D01*
X2998634Y-15438008D02*
X3008158Y-15447531D01*
X3008158Y-15447531D02*
X3017682Y-15466579D01*
X3017682Y-15466579D02*
X3027205Y-15504674D01*
X3027205Y-15504674D02*
X3027205Y-15552293D01*
X3027205Y-15552293D02*
X3017682Y-15590388D01*
X3017682Y-15590388D02*
X3008158Y-15609436D01*
X3008158Y-15609436D02*
X2998634Y-15618960D01*
X2998634Y-15618960D02*
X2979586Y-15628484D01*
X2979586Y-15628484D02*
X2960539Y-15628484D01*
X2960539Y-15628484D02*
X2941491Y-15618960D01*
X2941491Y-15618960D02*
X2931967Y-15609436D01*
X2931967Y-15609436D02*
X2922443Y-15590388D01*
X2922443Y-15590388D02*
X2912920Y-15552293D01*
X2912920Y-15552293D02*
X2912920Y-15504674D01*
X2912920Y-15504674D02*
X2922443Y-15466579D01*
X2922443Y-15466579D02*
X2931967Y-15447531D01*
X2931967Y-15447531D02*
X2941491Y-15438008D01*
X2941491Y-15438008D02*
X2960539Y-15428484D01*
X3112920Y-15628484D02*
X3112920Y-15495150D01*
X3112920Y-15514198D02*
X3122443Y-15504674D01*
X3122443Y-15504674D02*
X3141491Y-15495150D01*
X3141491Y-15495150D02*
X3170063Y-15495150D01*
X3170063Y-15495150D02*
X3189110Y-15504674D01*
X3189110Y-15504674D02*
X3198634Y-15523722D01*
X3198634Y-15523722D02*
X3198634Y-15628484D01*
X3198634Y-15523722D02*
X3208158Y-15504674D01*
X3208158Y-15504674D02*
X3227205Y-15495150D01*
X3227205Y-15495150D02*
X3255777Y-15495150D01*
X3255777Y-15495150D02*
X3274824Y-15504674D01*
X3274824Y-15504674D02*
X3284348Y-15523722D01*
X3284348Y-15523722D02*
X3284348Y-15628484D01*
X3379586Y-15628484D02*
X3379586Y-15495150D01*
X3379586Y-15514198D02*
X3389110Y-15504674D01*
X3389110Y-15504674D02*
X3408158Y-15495150D01*
X3408158Y-15495150D02*
X3436729Y-15495150D01*
X3436729Y-15495150D02*
X3455777Y-15504674D01*
X3455777Y-15504674D02*
X3465301Y-15523722D01*
X3465301Y-15523722D02*
X3465301Y-15628484D01*
X3465301Y-15523722D02*
X3474824Y-15504674D01*
X3474824Y-15504674D02*
X3493872Y-15495150D01*
X3493872Y-15495150D02*
X3522443Y-15495150D01*
X3522443Y-15495150D02*
X3541491Y-15504674D01*
X3541491Y-15504674D02*
X3551015Y-15523722D01*
X3551015Y-15523722D02*
X3551015Y-15628484D01*
X3941491Y-15418960D02*
X3770063Y-15676103D01*
X4198634Y-15428484D02*
X4217682Y-15428484D01*
X4217682Y-15428484D02*
X4236729Y-15438008D01*
X4236729Y-15438008D02*
X4246253Y-15447531D01*
X4246253Y-15447531D02*
X4255777Y-15466579D01*
X4255777Y-15466579D02*
X4265301Y-15504674D01*
X4265301Y-15504674D02*
X4265301Y-15552293D01*
X4265301Y-15552293D02*
X4255777Y-15590388D01*
X4255777Y-15590388D02*
X4246253Y-15609436D01*
X4246253Y-15609436D02*
X4236729Y-15618960D01*
X4236729Y-15618960D02*
X4217682Y-15628484D01*
X4217682Y-15628484D02*
X4198634Y-15628484D01*
X4198634Y-15628484D02*
X4179586Y-15618960D01*
X4179586Y-15618960D02*
X4170063Y-15609436D01*
X4170063Y-15609436D02*
X4160539Y-15590388D01*
X4160539Y-15590388D02*
X4151015Y-15552293D01*
X4151015Y-15552293D02*
X4151015Y-15504674D01*
X4151015Y-15504674D02*
X4160539Y-15466579D01*
X4160539Y-15466579D02*
X4170063Y-15447531D01*
X4170063Y-15447531D02*
X4179586Y-15438008D01*
X4179586Y-15438008D02*
X4198634Y-15428484D01*
X4351015Y-15609436D02*
X4360539Y-15618960D01*
X4360539Y-15618960D02*
X4351015Y-15628484D01*
X4351015Y-15628484D02*
X4341491Y-15618960D01*
X4341491Y-15618960D02*
X4351015Y-15609436D01*
X4351015Y-15609436D02*
X4351015Y-15628484D01*
X4484348Y-15428484D02*
X4503396Y-15428484D01*
X4503396Y-15428484D02*
X4522444Y-15438008D01*
X4522444Y-15438008D02*
X4531968Y-15447531D01*
X4531968Y-15447531D02*
X4541491Y-15466579D01*
X4541491Y-15466579D02*
X4551015Y-15504674D01*
X4551015Y-15504674D02*
X4551015Y-15552293D01*
X4551015Y-15552293D02*
X4541491Y-15590388D01*
X4541491Y-15590388D02*
X4531968Y-15609436D01*
X4531968Y-15609436D02*
X4522444Y-15618960D01*
X4522444Y-15618960D02*
X4503396Y-15628484D01*
X4503396Y-15628484D02*
X4484348Y-15628484D01*
X4484348Y-15628484D02*
X4465301Y-15618960D01*
X4465301Y-15618960D02*
X4455777Y-15609436D01*
X4455777Y-15609436D02*
X4446253Y-15590388D01*
X4446253Y-15590388D02*
X4436729Y-15552293D01*
X4436729Y-15552293D02*
X4436729Y-15504674D01*
X4436729Y-15504674D02*
X4446253Y-15466579D01*
X4446253Y-15466579D02*
X4455777Y-15447531D01*
X4455777Y-15447531D02*
X4465301Y-15438008D01*
X4465301Y-15438008D02*
X4484348Y-15428484D01*
X4617682Y-15428484D02*
X4741491Y-15428484D01*
X4741491Y-15428484D02*
X4674825Y-15504674D01*
X4674825Y-15504674D02*
X4703396Y-15504674D01*
X4703396Y-15504674D02*
X4722444Y-15514198D01*
X4722444Y-15514198D02*
X4731968Y-15523722D01*
X4731968Y-15523722D02*
X4741491Y-15542769D01*
X4741491Y-15542769D02*
X4741491Y-15590388D01*
X4741491Y-15590388D02*
X4731968Y-15609436D01*
X4731968Y-15609436D02*
X4722444Y-15618960D01*
X4722444Y-15618960D02*
X4703396Y-15628484D01*
X4703396Y-15628484D02*
X4646253Y-15628484D01*
X4646253Y-15628484D02*
X4627206Y-15618960D01*
X4627206Y-15618960D02*
X4617682Y-15609436D01*
X4836729Y-15628484D02*
X4874825Y-15628484D01*
X4874825Y-15628484D02*
X4893872Y-15618960D01*
X4893872Y-15618960D02*
X4903396Y-15609436D01*
X4903396Y-15609436D02*
X4922444Y-15580865D01*
X4922444Y-15580865D02*
X4931968Y-15542769D01*
X4931968Y-15542769D02*
X4931968Y-15466579D01*
X4931968Y-15466579D02*
X4922444Y-15447531D01*
X4922444Y-15447531D02*
X4912920Y-15438008D01*
X4912920Y-15438008D02*
X4893872Y-15428484D01*
X4893872Y-15428484D02*
X4855777Y-15428484D01*
X4855777Y-15428484D02*
X4836729Y-15438008D01*
X4836729Y-15438008D02*
X4827206Y-15447531D01*
X4827206Y-15447531D02*
X4817682Y-15466579D01*
X4817682Y-15466579D02*
X4817682Y-15514198D01*
X4817682Y-15514198D02*
X4827206Y-15533246D01*
X4827206Y-15533246D02*
X4836729Y-15542769D01*
X4836729Y-15542769D02*
X4855777Y-15552293D01*
X4855777Y-15552293D02*
X4893872Y-15552293D01*
X4893872Y-15552293D02*
X4912920Y-15542769D01*
X4912920Y-15542769D02*
X4922444Y-15533246D01*
X4922444Y-15533246D02*
X4931968Y-15514198D01*
X5103396Y-15495150D02*
X5103396Y-15628484D01*
X5055777Y-15418960D02*
X5008158Y-15561817D01*
X5008158Y-15561817D02*
X5131968Y-15561817D01*
X5198634Y-15428484D02*
X5198634Y-15466579D01*
X5274825Y-15428484D02*
X5274825Y-15466579D01*
X5570063Y-15704674D02*
X5560539Y-15695150D01*
X5560539Y-15695150D02*
X5541491Y-15666579D01*
X5541491Y-15666579D02*
X5531968Y-15647531D01*
X5531968Y-15647531D02*
X5522444Y-15618960D01*
X5522444Y-15618960D02*
X5512920Y-15571341D01*
X5512920Y-15571341D02*
X5512920Y-15533246D01*
X5512920Y-15533246D02*
X5522444Y-15485627D01*
X5522444Y-15485627D02*
X5531968Y-15457055D01*
X5531968Y-15457055D02*
X5541491Y-15438008D01*
X5541491Y-15438008D02*
X5560539Y-15409436D01*
X5560539Y-15409436D02*
X5570063Y-15399912D01*
X5751015Y-15628484D02*
X5636729Y-15628484D01*
X5693872Y-15628484D02*
X5693872Y-15428484D01*
X5693872Y-15428484D02*
X5674825Y-15457055D01*
X5674825Y-15457055D02*
X5655777Y-15476103D01*
X5655777Y-15476103D02*
X5636729Y-15485627D01*
X5922444Y-15495150D02*
X5922444Y-15628484D01*
X5874825Y-15418960D02*
X5827206Y-15561817D01*
X5827206Y-15561817D02*
X5951015Y-15561817D01*
X6179587Y-15628484D02*
X6179587Y-15428484D01*
X6265301Y-15628484D02*
X6265301Y-15523722D01*
X6265301Y-15523722D02*
X6255777Y-15504674D01*
X6255777Y-15504674D02*
X6236730Y-15495150D01*
X6236730Y-15495150D02*
X6208158Y-15495150D01*
X6208158Y-15495150D02*
X6189110Y-15504674D01*
X6189110Y-15504674D02*
X6179587Y-15514198D01*
X6389110Y-15628484D02*
X6370063Y-15618960D01*
X6370063Y-15618960D02*
X6360539Y-15609436D01*
X6360539Y-15609436D02*
X6351015Y-15590388D01*
X6351015Y-15590388D02*
X6351015Y-15533246D01*
X6351015Y-15533246D02*
X6360539Y-15514198D01*
X6360539Y-15514198D02*
X6370063Y-15504674D01*
X6370063Y-15504674D02*
X6389110Y-15495150D01*
X6389110Y-15495150D02*
X6417682Y-15495150D01*
X6417682Y-15495150D02*
X6436730Y-15504674D01*
X6436730Y-15504674D02*
X6446253Y-15514198D01*
X6446253Y-15514198D02*
X6455777Y-15533246D01*
X6455777Y-15533246D02*
X6455777Y-15590388D01*
X6455777Y-15590388D02*
X6446253Y-15609436D01*
X6446253Y-15609436D02*
X6436730Y-15618960D01*
X6436730Y-15618960D02*
X6417682Y-15628484D01*
X6417682Y-15628484D02*
X6389110Y-15628484D01*
X6570063Y-15628484D02*
X6551015Y-15618960D01*
X6551015Y-15618960D02*
X6541491Y-15599912D01*
X6541491Y-15599912D02*
X6541491Y-15428484D01*
X6722444Y-15618960D02*
X6703396Y-15628484D01*
X6703396Y-15628484D02*
X6665301Y-15628484D01*
X6665301Y-15628484D02*
X6646253Y-15618960D01*
X6646253Y-15618960D02*
X6636730Y-15599912D01*
X6636730Y-15599912D02*
X6636730Y-15523722D01*
X6636730Y-15523722D02*
X6646253Y-15504674D01*
X6646253Y-15504674D02*
X6665301Y-15495150D01*
X6665301Y-15495150D02*
X6703396Y-15495150D01*
X6703396Y-15495150D02*
X6722444Y-15504674D01*
X6722444Y-15504674D02*
X6731968Y-15523722D01*
X6731968Y-15523722D02*
X6731968Y-15542769D01*
X6731968Y-15542769D02*
X6636730Y-15561817D01*
X6808158Y-15618960D02*
X6827206Y-15628484D01*
X6827206Y-15628484D02*
X6865301Y-15628484D01*
X6865301Y-15628484D02*
X6884349Y-15618960D01*
X6884349Y-15618960D02*
X6893872Y-15599912D01*
X6893872Y-15599912D02*
X6893872Y-15590388D01*
X6893872Y-15590388D02*
X6884349Y-15571341D01*
X6884349Y-15571341D02*
X6865301Y-15561817D01*
X6865301Y-15561817D02*
X6836730Y-15561817D01*
X6836730Y-15561817D02*
X6817682Y-15552293D01*
X6817682Y-15552293D02*
X6808158Y-15533246D01*
X6808158Y-15533246D02*
X6808158Y-15523722D01*
X6808158Y-15523722D02*
X6817682Y-15504674D01*
X6817682Y-15504674D02*
X6836730Y-15495150D01*
X6836730Y-15495150D02*
X6865301Y-15495150D01*
X6865301Y-15495150D02*
X6884349Y-15504674D01*
X7131968Y-15552293D02*
X7284349Y-15552293D01*
X7208158Y-15628484D02*
X7208158Y-15476103D01*
X7636730Y-15628484D02*
X7522444Y-15628484D01*
X7579587Y-15628484D02*
X7579587Y-15428484D01*
X7579587Y-15428484D02*
X7560539Y-15457055D01*
X7560539Y-15457055D02*
X7541492Y-15476103D01*
X7541492Y-15476103D02*
X7522444Y-15485627D01*
X7703396Y-15428484D02*
X7827206Y-15428484D01*
X7827206Y-15428484D02*
X7760539Y-15504674D01*
X7760539Y-15504674D02*
X7789111Y-15504674D01*
X7789111Y-15504674D02*
X7808158Y-15514198D01*
X7808158Y-15514198D02*
X7817682Y-15523722D01*
X7817682Y-15523722D02*
X7827206Y-15542769D01*
X7827206Y-15542769D02*
X7827206Y-15590388D01*
X7827206Y-15590388D02*
X7817682Y-15609436D01*
X7817682Y-15609436D02*
X7808158Y-15618960D01*
X7808158Y-15618960D02*
X7789111Y-15628484D01*
X7789111Y-15628484D02*
X7731968Y-15628484D01*
X7731968Y-15628484D02*
X7712920Y-15618960D01*
X7712920Y-15618960D02*
X7703396Y-15609436D01*
X8055777Y-15618960D02*
X8074825Y-15628484D01*
X8074825Y-15628484D02*
X8112920Y-15628484D01*
X8112920Y-15628484D02*
X8131968Y-15618960D01*
X8131968Y-15618960D02*
X8141492Y-15599912D01*
X8141492Y-15599912D02*
X8141492Y-15590388D01*
X8141492Y-15590388D02*
X8131968Y-15571341D01*
X8131968Y-15571341D02*
X8112920Y-15561817D01*
X8112920Y-15561817D02*
X8084349Y-15561817D01*
X8084349Y-15561817D02*
X8065301Y-15552293D01*
X8065301Y-15552293D02*
X8055777Y-15533246D01*
X8055777Y-15533246D02*
X8055777Y-15523722D01*
X8055777Y-15523722D02*
X8065301Y-15504674D01*
X8065301Y-15504674D02*
X8084349Y-15495150D01*
X8084349Y-15495150D02*
X8112920Y-15495150D01*
X8112920Y-15495150D02*
X8131968Y-15504674D01*
X8255777Y-15628484D02*
X8236730Y-15618960D01*
X8236730Y-15618960D02*
X8227206Y-15599912D01*
X8227206Y-15599912D02*
X8227206Y-15428484D01*
X8360539Y-15628484D02*
X8341492Y-15618960D01*
X8341492Y-15618960D02*
X8331968Y-15609436D01*
X8331968Y-15609436D02*
X8322444Y-15590388D01*
X8322444Y-15590388D02*
X8322444Y-15533246D01*
X8322444Y-15533246D02*
X8331968Y-15514198D01*
X8331968Y-15514198D02*
X8341492Y-15504674D01*
X8341492Y-15504674D02*
X8360539Y-15495150D01*
X8360539Y-15495150D02*
X8389111Y-15495150D01*
X8389111Y-15495150D02*
X8408158Y-15504674D01*
X8408158Y-15504674D02*
X8417682Y-15514198D01*
X8417682Y-15514198D02*
X8427206Y-15533246D01*
X8427206Y-15533246D02*
X8427206Y-15590388D01*
X8427206Y-15590388D02*
X8417682Y-15609436D01*
X8417682Y-15609436D02*
X8408158Y-15618960D01*
X8408158Y-15618960D02*
X8389111Y-15628484D01*
X8389111Y-15628484D02*
X8360539Y-15628484D01*
X8484349Y-15495150D02*
X8560539Y-15495150D01*
X8512920Y-15428484D02*
X8512920Y-15599912D01*
X8512920Y-15599912D02*
X8522444Y-15618960D01*
X8522444Y-15618960D02*
X8541492Y-15628484D01*
X8541492Y-15628484D02*
X8560539Y-15628484D01*
X8617682Y-15618960D02*
X8636730Y-15628484D01*
X8636730Y-15628484D02*
X8674825Y-15628484D01*
X8674825Y-15628484D02*
X8693873Y-15618960D01*
X8693873Y-15618960D02*
X8703397Y-15599912D01*
X8703397Y-15599912D02*
X8703397Y-15590388D01*
X8703397Y-15590388D02*
X8693873Y-15571341D01*
X8693873Y-15571341D02*
X8674825Y-15561817D01*
X8674825Y-15561817D02*
X8646254Y-15561817D01*
X8646254Y-15561817D02*
X8627206Y-15552293D01*
X8627206Y-15552293D02*
X8617682Y-15533246D01*
X8617682Y-15533246D02*
X8617682Y-15523722D01*
X8617682Y-15523722D02*
X8627206Y-15504674D01*
X8627206Y-15504674D02*
X8646254Y-15495150D01*
X8646254Y-15495150D02*
X8674825Y-15495150D01*
X8674825Y-15495150D02*
X8693873Y-15504674D01*
X8770063Y-15704674D02*
X8779587Y-15695150D01*
X8779587Y-15695150D02*
X8798635Y-15666579D01*
X8798635Y-15666579D02*
X8808158Y-15647531D01*
X8808158Y-15647531D02*
X8817682Y-15618960D01*
X8817682Y-15618960D02*
X8827206Y-15571341D01*
X8827206Y-15571341D02*
X8827206Y-15533246D01*
X8827206Y-15533246D02*
X8817682Y-15485627D01*
X8817682Y-15485627D02*
X8808158Y-15457055D01*
X8808158Y-15457055D02*
X8798635Y-15438008D01*
X8798635Y-15438008D02*
X8779587Y-15409436D01*
X8779587Y-15409436D02*
X8770063Y-15399912D01*
D13*
X1940000Y-15856000D02*
X1995000Y-15801000D01*
X1940000Y-15746000D01*
X1885000Y-15801000D01*
X1940000Y-15856000D01*
D10*
X2360539Y-15892484D02*
X2246253Y-15892484D01*
X2303396Y-15892484D02*
X2303396Y-15692484D01*
X2303396Y-15692484D02*
X2284348Y-15721055D01*
X2284348Y-15721055D02*
X2265301Y-15740103D01*
X2265301Y-15740103D02*
X2246253Y-15749627D01*
X2446253Y-15873436D02*
X2455777Y-15882960D01*
X2455777Y-15882960D02*
X2446253Y-15892484D01*
X2446253Y-15892484D02*
X2436729Y-15882960D01*
X2436729Y-15882960D02*
X2446253Y-15873436D01*
X2446253Y-15873436D02*
X2446253Y-15892484D01*
X2646253Y-15892484D02*
X2531967Y-15892484D01*
X2589110Y-15892484D02*
X2589110Y-15692484D01*
X2589110Y-15692484D02*
X2570063Y-15721055D01*
X2570063Y-15721055D02*
X2551015Y-15740103D01*
X2551015Y-15740103D02*
X2531967Y-15749627D01*
X2770063Y-15692484D02*
X2789110Y-15692484D01*
X2789110Y-15692484D02*
X2808158Y-15702008D01*
X2808158Y-15702008D02*
X2817682Y-15711531D01*
X2817682Y-15711531D02*
X2827205Y-15730579D01*
X2827205Y-15730579D02*
X2836729Y-15768674D01*
X2836729Y-15768674D02*
X2836729Y-15816293D01*
X2836729Y-15816293D02*
X2827205Y-15854388D01*
X2827205Y-15854388D02*
X2817682Y-15873436D01*
X2817682Y-15873436D02*
X2808158Y-15882960D01*
X2808158Y-15882960D02*
X2789110Y-15892484D01*
X2789110Y-15892484D02*
X2770063Y-15892484D01*
X2770063Y-15892484D02*
X2751015Y-15882960D01*
X2751015Y-15882960D02*
X2741491Y-15873436D01*
X2741491Y-15873436D02*
X2731967Y-15854388D01*
X2731967Y-15854388D02*
X2722444Y-15816293D01*
X2722444Y-15816293D02*
X2722444Y-15768674D01*
X2722444Y-15768674D02*
X2731967Y-15730579D01*
X2731967Y-15730579D02*
X2741491Y-15711531D01*
X2741491Y-15711531D02*
X2751015Y-15702008D01*
X2751015Y-15702008D02*
X2770063Y-15692484D01*
X2960539Y-15692484D02*
X2979586Y-15692484D01*
X2979586Y-15692484D02*
X2998634Y-15702008D01*
X2998634Y-15702008D02*
X3008158Y-15711531D01*
X3008158Y-15711531D02*
X3017682Y-15730579D01*
X3017682Y-15730579D02*
X3027205Y-15768674D01*
X3027205Y-15768674D02*
X3027205Y-15816293D01*
X3027205Y-15816293D02*
X3017682Y-15854388D01*
X3017682Y-15854388D02*
X3008158Y-15873436D01*
X3008158Y-15873436D02*
X2998634Y-15882960D01*
X2998634Y-15882960D02*
X2979586Y-15892484D01*
X2979586Y-15892484D02*
X2960539Y-15892484D01*
X2960539Y-15892484D02*
X2941491Y-15882960D01*
X2941491Y-15882960D02*
X2931967Y-15873436D01*
X2931967Y-15873436D02*
X2922443Y-15854388D01*
X2922443Y-15854388D02*
X2912920Y-15816293D01*
X2912920Y-15816293D02*
X2912920Y-15768674D01*
X2912920Y-15768674D02*
X2922443Y-15730579D01*
X2922443Y-15730579D02*
X2931967Y-15711531D01*
X2931967Y-15711531D02*
X2941491Y-15702008D01*
X2941491Y-15702008D02*
X2960539Y-15692484D01*
X3112920Y-15892484D02*
X3112920Y-15759150D01*
X3112920Y-15778198D02*
X3122443Y-15768674D01*
X3122443Y-15768674D02*
X3141491Y-15759150D01*
X3141491Y-15759150D02*
X3170063Y-15759150D01*
X3170063Y-15759150D02*
X3189110Y-15768674D01*
X3189110Y-15768674D02*
X3198634Y-15787722D01*
X3198634Y-15787722D02*
X3198634Y-15892484D01*
X3198634Y-15787722D02*
X3208158Y-15768674D01*
X3208158Y-15768674D02*
X3227205Y-15759150D01*
X3227205Y-15759150D02*
X3255777Y-15759150D01*
X3255777Y-15759150D02*
X3274824Y-15768674D01*
X3274824Y-15768674D02*
X3284348Y-15787722D01*
X3284348Y-15787722D02*
X3284348Y-15892484D01*
X3379586Y-15892484D02*
X3379586Y-15759150D01*
X3379586Y-15778198D02*
X3389110Y-15768674D01*
X3389110Y-15768674D02*
X3408158Y-15759150D01*
X3408158Y-15759150D02*
X3436729Y-15759150D01*
X3436729Y-15759150D02*
X3455777Y-15768674D01*
X3455777Y-15768674D02*
X3465301Y-15787722D01*
X3465301Y-15787722D02*
X3465301Y-15892484D01*
X3465301Y-15787722D02*
X3474824Y-15768674D01*
X3474824Y-15768674D02*
X3493872Y-15759150D01*
X3493872Y-15759150D02*
X3522443Y-15759150D01*
X3522443Y-15759150D02*
X3541491Y-15768674D01*
X3541491Y-15768674D02*
X3551015Y-15787722D01*
X3551015Y-15787722D02*
X3551015Y-15892484D01*
X3941491Y-15682960D02*
X3770063Y-15940103D01*
X4198634Y-15692484D02*
X4217682Y-15692484D01*
X4217682Y-15692484D02*
X4236729Y-15702008D01*
X4236729Y-15702008D02*
X4246253Y-15711531D01*
X4246253Y-15711531D02*
X4255777Y-15730579D01*
X4255777Y-15730579D02*
X4265301Y-15768674D01*
X4265301Y-15768674D02*
X4265301Y-15816293D01*
X4265301Y-15816293D02*
X4255777Y-15854388D01*
X4255777Y-15854388D02*
X4246253Y-15873436D01*
X4246253Y-15873436D02*
X4236729Y-15882960D01*
X4236729Y-15882960D02*
X4217682Y-15892484D01*
X4217682Y-15892484D02*
X4198634Y-15892484D01*
X4198634Y-15892484D02*
X4179586Y-15882960D01*
X4179586Y-15882960D02*
X4170063Y-15873436D01*
X4170063Y-15873436D02*
X4160539Y-15854388D01*
X4160539Y-15854388D02*
X4151015Y-15816293D01*
X4151015Y-15816293D02*
X4151015Y-15768674D01*
X4151015Y-15768674D02*
X4160539Y-15730579D01*
X4160539Y-15730579D02*
X4170063Y-15711531D01*
X4170063Y-15711531D02*
X4179586Y-15702008D01*
X4179586Y-15702008D02*
X4198634Y-15692484D01*
X4351015Y-15873436D02*
X4360539Y-15882960D01*
X4360539Y-15882960D02*
X4351015Y-15892484D01*
X4351015Y-15892484D02*
X4341491Y-15882960D01*
X4341491Y-15882960D02*
X4351015Y-15873436D01*
X4351015Y-15873436D02*
X4351015Y-15892484D01*
X4484348Y-15692484D02*
X4503396Y-15692484D01*
X4503396Y-15692484D02*
X4522444Y-15702008D01*
X4522444Y-15702008D02*
X4531968Y-15711531D01*
X4531968Y-15711531D02*
X4541491Y-15730579D01*
X4541491Y-15730579D02*
X4551015Y-15768674D01*
X4551015Y-15768674D02*
X4551015Y-15816293D01*
X4551015Y-15816293D02*
X4541491Y-15854388D01*
X4541491Y-15854388D02*
X4531968Y-15873436D01*
X4531968Y-15873436D02*
X4522444Y-15882960D01*
X4522444Y-15882960D02*
X4503396Y-15892484D01*
X4503396Y-15892484D02*
X4484348Y-15892484D01*
X4484348Y-15892484D02*
X4465301Y-15882960D01*
X4465301Y-15882960D02*
X4455777Y-15873436D01*
X4455777Y-15873436D02*
X4446253Y-15854388D01*
X4446253Y-15854388D02*
X4436729Y-15816293D01*
X4436729Y-15816293D02*
X4436729Y-15768674D01*
X4436729Y-15768674D02*
X4446253Y-15730579D01*
X4446253Y-15730579D02*
X4455777Y-15711531D01*
X4455777Y-15711531D02*
X4465301Y-15702008D01*
X4465301Y-15702008D02*
X4484348Y-15692484D01*
X4722444Y-15759150D02*
X4722444Y-15892484D01*
X4674825Y-15682960D02*
X4627206Y-15825817D01*
X4627206Y-15825817D02*
X4751015Y-15825817D01*
X4808158Y-15692484D02*
X4931968Y-15692484D01*
X4931968Y-15692484D02*
X4865301Y-15768674D01*
X4865301Y-15768674D02*
X4893872Y-15768674D01*
X4893872Y-15768674D02*
X4912920Y-15778198D01*
X4912920Y-15778198D02*
X4922444Y-15787722D01*
X4922444Y-15787722D02*
X4931968Y-15806769D01*
X4931968Y-15806769D02*
X4931968Y-15854388D01*
X4931968Y-15854388D02*
X4922444Y-15873436D01*
X4922444Y-15873436D02*
X4912920Y-15882960D01*
X4912920Y-15882960D02*
X4893872Y-15892484D01*
X4893872Y-15892484D02*
X4836729Y-15892484D01*
X4836729Y-15892484D02*
X4817682Y-15882960D01*
X4817682Y-15882960D02*
X4808158Y-15873436D01*
X4998634Y-15692484D02*
X5122444Y-15692484D01*
X5122444Y-15692484D02*
X5055777Y-15768674D01*
X5055777Y-15768674D02*
X5084349Y-15768674D01*
X5084349Y-15768674D02*
X5103396Y-15778198D01*
X5103396Y-15778198D02*
X5112920Y-15787722D01*
X5112920Y-15787722D02*
X5122444Y-15806769D01*
X5122444Y-15806769D02*
X5122444Y-15854388D01*
X5122444Y-15854388D02*
X5112920Y-15873436D01*
X5112920Y-15873436D02*
X5103396Y-15882960D01*
X5103396Y-15882960D02*
X5084349Y-15892484D01*
X5084349Y-15892484D02*
X5027206Y-15892484D01*
X5027206Y-15892484D02*
X5008158Y-15882960D01*
X5008158Y-15882960D02*
X4998634Y-15873436D01*
X5198634Y-15692484D02*
X5198634Y-15730579D01*
X5274825Y-15692484D02*
X5274825Y-15730579D01*
X5570063Y-15968674D02*
X5560539Y-15959150D01*
X5560539Y-15959150D02*
X5541491Y-15930579D01*
X5541491Y-15930579D02*
X5531968Y-15911531D01*
X5531968Y-15911531D02*
X5522444Y-15882960D01*
X5522444Y-15882960D02*
X5512920Y-15835341D01*
X5512920Y-15835341D02*
X5512920Y-15797246D01*
X5512920Y-15797246D02*
X5522444Y-15749627D01*
X5522444Y-15749627D02*
X5531968Y-15721055D01*
X5531968Y-15721055D02*
X5541491Y-15702008D01*
X5541491Y-15702008D02*
X5560539Y-15673436D01*
X5560539Y-15673436D02*
X5570063Y-15663912D01*
X5627206Y-15692484D02*
X5760539Y-15692484D01*
X5760539Y-15692484D02*
X5674825Y-15892484D01*
X5989110Y-15892484D02*
X5989110Y-15692484D01*
X6074825Y-15892484D02*
X6074825Y-15787722D01*
X6074825Y-15787722D02*
X6065301Y-15768674D01*
X6065301Y-15768674D02*
X6046253Y-15759150D01*
X6046253Y-15759150D02*
X6017682Y-15759150D01*
X6017682Y-15759150D02*
X5998634Y-15768674D01*
X5998634Y-15768674D02*
X5989110Y-15778198D01*
X6198634Y-15892484D02*
X6179587Y-15882960D01*
X6179587Y-15882960D02*
X6170063Y-15873436D01*
X6170063Y-15873436D02*
X6160539Y-15854388D01*
X6160539Y-15854388D02*
X6160539Y-15797246D01*
X6160539Y-15797246D02*
X6170063Y-15778198D01*
X6170063Y-15778198D02*
X6179587Y-15768674D01*
X6179587Y-15768674D02*
X6198634Y-15759150D01*
X6198634Y-15759150D02*
X6227206Y-15759150D01*
X6227206Y-15759150D02*
X6246253Y-15768674D01*
X6246253Y-15768674D02*
X6255777Y-15778198D01*
X6255777Y-15778198D02*
X6265301Y-15797246D01*
X6265301Y-15797246D02*
X6265301Y-15854388D01*
X6265301Y-15854388D02*
X6255777Y-15873436D01*
X6255777Y-15873436D02*
X6246253Y-15882960D01*
X6246253Y-15882960D02*
X6227206Y-15892484D01*
X6227206Y-15892484D02*
X6198634Y-15892484D01*
X6379587Y-15892484D02*
X6360539Y-15882960D01*
X6360539Y-15882960D02*
X6351015Y-15863912D01*
X6351015Y-15863912D02*
X6351015Y-15692484D01*
X6531968Y-15882960D02*
X6512920Y-15892484D01*
X6512920Y-15892484D02*
X6474825Y-15892484D01*
X6474825Y-15892484D02*
X6455777Y-15882960D01*
X6455777Y-15882960D02*
X6446253Y-15863912D01*
X6446253Y-15863912D02*
X6446253Y-15787722D01*
X6446253Y-15787722D02*
X6455777Y-15768674D01*
X6455777Y-15768674D02*
X6474825Y-15759150D01*
X6474825Y-15759150D02*
X6512920Y-15759150D01*
X6512920Y-15759150D02*
X6531968Y-15768674D01*
X6531968Y-15768674D02*
X6541491Y-15787722D01*
X6541491Y-15787722D02*
X6541491Y-15806769D01*
X6541491Y-15806769D02*
X6446253Y-15825817D01*
X6617682Y-15882960D02*
X6636730Y-15892484D01*
X6636730Y-15892484D02*
X6674825Y-15892484D01*
X6674825Y-15892484D02*
X6693872Y-15882960D01*
X6693872Y-15882960D02*
X6703396Y-15863912D01*
X6703396Y-15863912D02*
X6703396Y-15854388D01*
X6703396Y-15854388D02*
X6693872Y-15835341D01*
X6693872Y-15835341D02*
X6674825Y-15825817D01*
X6674825Y-15825817D02*
X6646253Y-15825817D01*
X6646253Y-15825817D02*
X6627206Y-15816293D01*
X6627206Y-15816293D02*
X6617682Y-15797246D01*
X6617682Y-15797246D02*
X6617682Y-15787722D01*
X6617682Y-15787722D02*
X6627206Y-15768674D01*
X6627206Y-15768674D02*
X6646253Y-15759150D01*
X6646253Y-15759150D02*
X6674825Y-15759150D01*
X6674825Y-15759150D02*
X6693872Y-15768674D01*
X6770063Y-15968674D02*
X6779587Y-15959150D01*
X6779587Y-15959150D02*
X6798634Y-15930579D01*
X6798634Y-15930579D02*
X6808158Y-15911531D01*
X6808158Y-15911531D02*
X6817682Y-15882960D01*
X6817682Y-15882960D02*
X6827206Y-15835341D01*
X6827206Y-15835341D02*
X6827206Y-15797246D01*
X6827206Y-15797246D02*
X6817682Y-15749627D01*
X6817682Y-15749627D02*
X6808158Y-15721055D01*
X6808158Y-15721055D02*
X6798634Y-15702008D01*
X6798634Y-15702008D02*
X6779587Y-15673436D01*
X6779587Y-15673436D02*
X6770063Y-15663912D01*
D14*
X1870000Y-16002500D02*
X1995000Y-16127500D01*
X1995000Y-16002500D02*
X1870000Y-16127500D01*
X1995000Y-16065000D02*
G75*
G03*
X1870000Y-16065000I-62500J0D01*
G01*
X1870000Y-16065000D02*
G75*
G03*
X1995000Y-16065000I62500J0D01*
G01*
D10*
X2360539Y-16156484D02*
X2246253Y-16156484D01*
X2303396Y-16156484D02*
X2303396Y-15956484D01*
X2303396Y-15956484D02*
X2284348Y-15985055D01*
X2284348Y-15985055D02*
X2265301Y-16004103D01*
X2265301Y-16004103D02*
X2246253Y-16013627D01*
X2446253Y-16137436D02*
X2455777Y-16146960D01*
X2455777Y-16146960D02*
X2446253Y-16156484D01*
X2446253Y-16156484D02*
X2436729Y-16146960D01*
X2436729Y-16146960D02*
X2446253Y-16137436D01*
X2446253Y-16137436D02*
X2446253Y-16156484D01*
X2531967Y-15975531D02*
X2541491Y-15966008D01*
X2541491Y-15966008D02*
X2560539Y-15956484D01*
X2560539Y-15956484D02*
X2608158Y-15956484D01*
X2608158Y-15956484D02*
X2627205Y-15966008D01*
X2627205Y-15966008D02*
X2636729Y-15975531D01*
X2636729Y-15975531D02*
X2646253Y-15994579D01*
X2646253Y-15994579D02*
X2646253Y-16013627D01*
X2646253Y-16013627D02*
X2636729Y-16042198D01*
X2636729Y-16042198D02*
X2522444Y-16156484D01*
X2522444Y-16156484D02*
X2646253Y-16156484D01*
X2827205Y-15956484D02*
X2731967Y-15956484D01*
X2731967Y-15956484D02*
X2722444Y-16051722D01*
X2722444Y-16051722D02*
X2731967Y-16042198D01*
X2731967Y-16042198D02*
X2751015Y-16032674D01*
X2751015Y-16032674D02*
X2798634Y-16032674D01*
X2798634Y-16032674D02*
X2817682Y-16042198D01*
X2817682Y-16042198D02*
X2827205Y-16051722D01*
X2827205Y-16051722D02*
X2836729Y-16070769D01*
X2836729Y-16070769D02*
X2836729Y-16118388D01*
X2836729Y-16118388D02*
X2827205Y-16137436D01*
X2827205Y-16137436D02*
X2817682Y-16146960D01*
X2817682Y-16146960D02*
X2798634Y-16156484D01*
X2798634Y-16156484D02*
X2751015Y-16156484D01*
X2751015Y-16156484D02*
X2731967Y-16146960D01*
X2731967Y-16146960D02*
X2722444Y-16137436D01*
X2960539Y-15956484D02*
X2979586Y-15956484D01*
X2979586Y-15956484D02*
X2998634Y-15966008D01*
X2998634Y-15966008D02*
X3008158Y-15975531D01*
X3008158Y-15975531D02*
X3017682Y-15994579D01*
X3017682Y-15994579D02*
X3027205Y-16032674D01*
X3027205Y-16032674D02*
X3027205Y-16080293D01*
X3027205Y-16080293D02*
X3017682Y-16118388D01*
X3017682Y-16118388D02*
X3008158Y-16137436D01*
X3008158Y-16137436D02*
X2998634Y-16146960D01*
X2998634Y-16146960D02*
X2979586Y-16156484D01*
X2979586Y-16156484D02*
X2960539Y-16156484D01*
X2960539Y-16156484D02*
X2941491Y-16146960D01*
X2941491Y-16146960D02*
X2931967Y-16137436D01*
X2931967Y-16137436D02*
X2922443Y-16118388D01*
X2922443Y-16118388D02*
X2912920Y-16080293D01*
X2912920Y-16080293D02*
X2912920Y-16032674D01*
X2912920Y-16032674D02*
X2922443Y-15994579D01*
X2922443Y-15994579D02*
X2931967Y-15975531D01*
X2931967Y-15975531D02*
X2941491Y-15966008D01*
X2941491Y-15966008D02*
X2960539Y-15956484D01*
X3112920Y-16156484D02*
X3112920Y-16023150D01*
X3112920Y-16042198D02*
X3122443Y-16032674D01*
X3122443Y-16032674D02*
X3141491Y-16023150D01*
X3141491Y-16023150D02*
X3170063Y-16023150D01*
X3170063Y-16023150D02*
X3189110Y-16032674D01*
X3189110Y-16032674D02*
X3198634Y-16051722D01*
X3198634Y-16051722D02*
X3198634Y-16156484D01*
X3198634Y-16051722D02*
X3208158Y-16032674D01*
X3208158Y-16032674D02*
X3227205Y-16023150D01*
X3227205Y-16023150D02*
X3255777Y-16023150D01*
X3255777Y-16023150D02*
X3274824Y-16032674D01*
X3274824Y-16032674D02*
X3284348Y-16051722D01*
X3284348Y-16051722D02*
X3284348Y-16156484D01*
X3379586Y-16156484D02*
X3379586Y-16023150D01*
X3379586Y-16042198D02*
X3389110Y-16032674D01*
X3389110Y-16032674D02*
X3408158Y-16023150D01*
X3408158Y-16023150D02*
X3436729Y-16023150D01*
X3436729Y-16023150D02*
X3455777Y-16032674D01*
X3455777Y-16032674D02*
X3465301Y-16051722D01*
X3465301Y-16051722D02*
X3465301Y-16156484D01*
X3465301Y-16051722D02*
X3474824Y-16032674D01*
X3474824Y-16032674D02*
X3493872Y-16023150D01*
X3493872Y-16023150D02*
X3522443Y-16023150D01*
X3522443Y-16023150D02*
X3541491Y-16032674D01*
X3541491Y-16032674D02*
X3551015Y-16051722D01*
X3551015Y-16051722D02*
X3551015Y-16156484D01*
X3941491Y-15946960D02*
X3770063Y-16204103D01*
X4198634Y-15956484D02*
X4217682Y-15956484D01*
X4217682Y-15956484D02*
X4236729Y-15966008D01*
X4236729Y-15966008D02*
X4246253Y-15975531D01*
X4246253Y-15975531D02*
X4255777Y-15994579D01*
X4255777Y-15994579D02*
X4265301Y-16032674D01*
X4265301Y-16032674D02*
X4265301Y-16080293D01*
X4265301Y-16080293D02*
X4255777Y-16118388D01*
X4255777Y-16118388D02*
X4246253Y-16137436D01*
X4246253Y-16137436D02*
X4236729Y-16146960D01*
X4236729Y-16146960D02*
X4217682Y-16156484D01*
X4217682Y-16156484D02*
X4198634Y-16156484D01*
X4198634Y-16156484D02*
X4179586Y-16146960D01*
X4179586Y-16146960D02*
X4170063Y-16137436D01*
X4170063Y-16137436D02*
X4160539Y-16118388D01*
X4160539Y-16118388D02*
X4151015Y-16080293D01*
X4151015Y-16080293D02*
X4151015Y-16032674D01*
X4151015Y-16032674D02*
X4160539Y-15994579D01*
X4160539Y-15994579D02*
X4170063Y-15975531D01*
X4170063Y-15975531D02*
X4179586Y-15966008D01*
X4179586Y-15966008D02*
X4198634Y-15956484D01*
X4351015Y-16137436D02*
X4360539Y-16146960D01*
X4360539Y-16146960D02*
X4351015Y-16156484D01*
X4351015Y-16156484D02*
X4341491Y-16146960D01*
X4341491Y-16146960D02*
X4351015Y-16137436D01*
X4351015Y-16137436D02*
X4351015Y-16156484D01*
X4484348Y-15956484D02*
X4503396Y-15956484D01*
X4503396Y-15956484D02*
X4522444Y-15966008D01*
X4522444Y-15966008D02*
X4531968Y-15975531D01*
X4531968Y-15975531D02*
X4541491Y-15994579D01*
X4541491Y-15994579D02*
X4551015Y-16032674D01*
X4551015Y-16032674D02*
X4551015Y-16080293D01*
X4551015Y-16080293D02*
X4541491Y-16118388D01*
X4541491Y-16118388D02*
X4531968Y-16137436D01*
X4531968Y-16137436D02*
X4522444Y-16146960D01*
X4522444Y-16146960D02*
X4503396Y-16156484D01*
X4503396Y-16156484D02*
X4484348Y-16156484D01*
X4484348Y-16156484D02*
X4465301Y-16146960D01*
X4465301Y-16146960D02*
X4455777Y-16137436D01*
X4455777Y-16137436D02*
X4446253Y-16118388D01*
X4446253Y-16118388D02*
X4436729Y-16080293D01*
X4436729Y-16080293D02*
X4436729Y-16032674D01*
X4436729Y-16032674D02*
X4446253Y-15994579D01*
X4446253Y-15994579D02*
X4455777Y-15975531D01*
X4455777Y-15975531D02*
X4465301Y-15966008D01*
X4465301Y-15966008D02*
X4484348Y-15956484D01*
X4722444Y-16023150D02*
X4722444Y-16156484D01*
X4674825Y-15946960D02*
X4627206Y-16089817D01*
X4627206Y-16089817D02*
X4751015Y-16089817D01*
X4836729Y-16156484D02*
X4874825Y-16156484D01*
X4874825Y-16156484D02*
X4893872Y-16146960D01*
X4893872Y-16146960D02*
X4903396Y-16137436D01*
X4903396Y-16137436D02*
X4922444Y-16108865D01*
X4922444Y-16108865D02*
X4931968Y-16070769D01*
X4931968Y-16070769D02*
X4931968Y-15994579D01*
X4931968Y-15994579D02*
X4922444Y-15975531D01*
X4922444Y-15975531D02*
X4912920Y-15966008D01*
X4912920Y-15966008D02*
X4893872Y-15956484D01*
X4893872Y-15956484D02*
X4855777Y-15956484D01*
X4855777Y-15956484D02*
X4836729Y-15966008D01*
X4836729Y-15966008D02*
X4827206Y-15975531D01*
X4827206Y-15975531D02*
X4817682Y-15994579D01*
X4817682Y-15994579D02*
X4817682Y-16042198D01*
X4817682Y-16042198D02*
X4827206Y-16061246D01*
X4827206Y-16061246D02*
X4836729Y-16070769D01*
X4836729Y-16070769D02*
X4855777Y-16080293D01*
X4855777Y-16080293D02*
X4893872Y-16080293D01*
X4893872Y-16080293D02*
X4912920Y-16070769D01*
X4912920Y-16070769D02*
X4922444Y-16061246D01*
X4922444Y-16061246D02*
X4931968Y-16042198D01*
X5008158Y-15975531D02*
X5017682Y-15966008D01*
X5017682Y-15966008D02*
X5036729Y-15956484D01*
X5036729Y-15956484D02*
X5084349Y-15956484D01*
X5084349Y-15956484D02*
X5103396Y-15966008D01*
X5103396Y-15966008D02*
X5112920Y-15975531D01*
X5112920Y-15975531D02*
X5122444Y-15994579D01*
X5122444Y-15994579D02*
X5122444Y-16013627D01*
X5122444Y-16013627D02*
X5112920Y-16042198D01*
X5112920Y-16042198D02*
X4998634Y-16156484D01*
X4998634Y-16156484D02*
X5122444Y-16156484D01*
X5198634Y-15956484D02*
X5198634Y-15994579D01*
X5274825Y-15956484D02*
X5274825Y-15994579D01*
X5570063Y-16232674D02*
X5560539Y-16223150D01*
X5560539Y-16223150D02*
X5541491Y-16194579D01*
X5541491Y-16194579D02*
X5531968Y-16175531D01*
X5531968Y-16175531D02*
X5522444Y-16146960D01*
X5522444Y-16146960D02*
X5512920Y-16099341D01*
X5512920Y-16099341D02*
X5512920Y-16061246D01*
X5512920Y-16061246D02*
X5522444Y-16013627D01*
X5522444Y-16013627D02*
X5531968Y-15985055D01*
X5531968Y-15985055D02*
X5541491Y-15966008D01*
X5541491Y-15966008D02*
X5560539Y-15937436D01*
X5560539Y-15937436D02*
X5570063Y-15927912D01*
X5684348Y-15956484D02*
X5703396Y-15956484D01*
X5703396Y-15956484D02*
X5722444Y-15966008D01*
X5722444Y-15966008D02*
X5731968Y-15975531D01*
X5731968Y-15975531D02*
X5741491Y-15994579D01*
X5741491Y-15994579D02*
X5751015Y-16032674D01*
X5751015Y-16032674D02*
X5751015Y-16080293D01*
X5751015Y-16080293D02*
X5741491Y-16118388D01*
X5741491Y-16118388D02*
X5731968Y-16137436D01*
X5731968Y-16137436D02*
X5722444Y-16146960D01*
X5722444Y-16146960D02*
X5703396Y-16156484D01*
X5703396Y-16156484D02*
X5684348Y-16156484D01*
X5684348Y-16156484D02*
X5665301Y-16146960D01*
X5665301Y-16146960D02*
X5655777Y-16137436D01*
X5655777Y-16137436D02*
X5646253Y-16118388D01*
X5646253Y-16118388D02*
X5636729Y-16080293D01*
X5636729Y-16080293D02*
X5636729Y-16032674D01*
X5636729Y-16032674D02*
X5646253Y-15994579D01*
X5646253Y-15994579D02*
X5655777Y-15975531D01*
X5655777Y-15975531D02*
X5665301Y-15966008D01*
X5665301Y-15966008D02*
X5684348Y-15956484D01*
X5989110Y-16156484D02*
X5989110Y-15956484D01*
X6074825Y-16156484D02*
X6074825Y-16051722D01*
X6074825Y-16051722D02*
X6065301Y-16032674D01*
X6065301Y-16032674D02*
X6046253Y-16023150D01*
X6046253Y-16023150D02*
X6017682Y-16023150D01*
X6017682Y-16023150D02*
X5998634Y-16032674D01*
X5998634Y-16032674D02*
X5989110Y-16042198D01*
X6198634Y-16156484D02*
X6179587Y-16146960D01*
X6179587Y-16146960D02*
X6170063Y-16137436D01*
X6170063Y-16137436D02*
X6160539Y-16118388D01*
X6160539Y-16118388D02*
X6160539Y-16061246D01*
X6160539Y-16061246D02*
X6170063Y-16042198D01*
X6170063Y-16042198D02*
X6179587Y-16032674D01*
X6179587Y-16032674D02*
X6198634Y-16023150D01*
X6198634Y-16023150D02*
X6227206Y-16023150D01*
X6227206Y-16023150D02*
X6246253Y-16032674D01*
X6246253Y-16032674D02*
X6255777Y-16042198D01*
X6255777Y-16042198D02*
X6265301Y-16061246D01*
X6265301Y-16061246D02*
X6265301Y-16118388D01*
X6265301Y-16118388D02*
X6255777Y-16137436D01*
X6255777Y-16137436D02*
X6246253Y-16146960D01*
X6246253Y-16146960D02*
X6227206Y-16156484D01*
X6227206Y-16156484D02*
X6198634Y-16156484D01*
X6379587Y-16156484D02*
X6360539Y-16146960D01*
X6360539Y-16146960D02*
X6351015Y-16127912D01*
X6351015Y-16127912D02*
X6351015Y-15956484D01*
X6531968Y-16146960D02*
X6512920Y-16156484D01*
X6512920Y-16156484D02*
X6474825Y-16156484D01*
X6474825Y-16156484D02*
X6455777Y-16146960D01*
X6455777Y-16146960D02*
X6446253Y-16127912D01*
X6446253Y-16127912D02*
X6446253Y-16051722D01*
X6446253Y-16051722D02*
X6455777Y-16032674D01*
X6455777Y-16032674D02*
X6474825Y-16023150D01*
X6474825Y-16023150D02*
X6512920Y-16023150D01*
X6512920Y-16023150D02*
X6531968Y-16032674D01*
X6531968Y-16032674D02*
X6541491Y-16051722D01*
X6541491Y-16051722D02*
X6541491Y-16070769D01*
X6541491Y-16070769D02*
X6446253Y-16089817D01*
X6617682Y-16146960D02*
X6636730Y-16156484D01*
X6636730Y-16156484D02*
X6674825Y-16156484D01*
X6674825Y-16156484D02*
X6693872Y-16146960D01*
X6693872Y-16146960D02*
X6703396Y-16127912D01*
X6703396Y-16127912D02*
X6703396Y-16118388D01*
X6703396Y-16118388D02*
X6693872Y-16099341D01*
X6693872Y-16099341D02*
X6674825Y-16089817D01*
X6674825Y-16089817D02*
X6646253Y-16089817D01*
X6646253Y-16089817D02*
X6627206Y-16080293D01*
X6627206Y-16080293D02*
X6617682Y-16061246D01*
X6617682Y-16061246D02*
X6617682Y-16051722D01*
X6617682Y-16051722D02*
X6627206Y-16032674D01*
X6627206Y-16032674D02*
X6646253Y-16023150D01*
X6646253Y-16023150D02*
X6674825Y-16023150D01*
X6674825Y-16023150D02*
X6693872Y-16032674D01*
X6941492Y-16080293D02*
X7093873Y-16080293D01*
X7017682Y-16156484D02*
X7017682Y-16004103D01*
X7427206Y-16023150D02*
X7427206Y-16156484D01*
X7379587Y-15946960D02*
X7331968Y-16089817D01*
X7331968Y-16089817D02*
X7455777Y-16089817D01*
X7674825Y-16146960D02*
X7693873Y-16156484D01*
X7693873Y-16156484D02*
X7731968Y-16156484D01*
X7731968Y-16156484D02*
X7751015Y-16146960D01*
X7751015Y-16146960D02*
X7760539Y-16127912D01*
X7760539Y-16127912D02*
X7760539Y-16118388D01*
X7760539Y-16118388D02*
X7751015Y-16099341D01*
X7751015Y-16099341D02*
X7731968Y-16089817D01*
X7731968Y-16089817D02*
X7703396Y-16089817D01*
X7703396Y-16089817D02*
X7684349Y-16080293D01*
X7684349Y-16080293D02*
X7674825Y-16061246D01*
X7674825Y-16061246D02*
X7674825Y-16051722D01*
X7674825Y-16051722D02*
X7684349Y-16032674D01*
X7684349Y-16032674D02*
X7703396Y-16023150D01*
X7703396Y-16023150D02*
X7731968Y-16023150D01*
X7731968Y-16023150D02*
X7751015Y-16032674D01*
X7874825Y-16156484D02*
X7855777Y-16146960D01*
X7855777Y-16146960D02*
X7846254Y-16127912D01*
X7846254Y-16127912D02*
X7846254Y-15956484D01*
X7979587Y-16156484D02*
X7960539Y-16146960D01*
X7960539Y-16146960D02*
X7951015Y-16137436D01*
X7951015Y-16137436D02*
X7941492Y-16118388D01*
X7941492Y-16118388D02*
X7941492Y-16061246D01*
X7941492Y-16061246D02*
X7951015Y-16042198D01*
X7951015Y-16042198D02*
X7960539Y-16032674D01*
X7960539Y-16032674D02*
X7979587Y-16023150D01*
X7979587Y-16023150D02*
X8008158Y-16023150D01*
X8008158Y-16023150D02*
X8027206Y-16032674D01*
X8027206Y-16032674D02*
X8036730Y-16042198D01*
X8036730Y-16042198D02*
X8046254Y-16061246D01*
X8046254Y-16061246D02*
X8046254Y-16118388D01*
X8046254Y-16118388D02*
X8036730Y-16137436D01*
X8036730Y-16137436D02*
X8027206Y-16146960D01*
X8027206Y-16146960D02*
X8008158Y-16156484D01*
X8008158Y-16156484D02*
X7979587Y-16156484D01*
X8103396Y-16023150D02*
X8179587Y-16023150D01*
X8131968Y-15956484D02*
X8131968Y-16127912D01*
X8131968Y-16127912D02*
X8141492Y-16146960D01*
X8141492Y-16146960D02*
X8160539Y-16156484D01*
X8160539Y-16156484D02*
X8179587Y-16156484D01*
X8236730Y-16146960D02*
X8255777Y-16156484D01*
X8255777Y-16156484D02*
X8293873Y-16156484D01*
X8293873Y-16156484D02*
X8312920Y-16146960D01*
X8312920Y-16146960D02*
X8322444Y-16127912D01*
X8322444Y-16127912D02*
X8322444Y-16118388D01*
X8322444Y-16118388D02*
X8312920Y-16099341D01*
X8312920Y-16099341D02*
X8293873Y-16089817D01*
X8293873Y-16089817D02*
X8265301Y-16089817D01*
X8265301Y-16089817D02*
X8246254Y-16080293D01*
X8246254Y-16080293D02*
X8236730Y-16061246D01*
X8236730Y-16061246D02*
X8236730Y-16051722D01*
X8236730Y-16051722D02*
X8246254Y-16032674D01*
X8246254Y-16032674D02*
X8265301Y-16023150D01*
X8265301Y-16023150D02*
X8293873Y-16023150D01*
X8293873Y-16023150D02*
X8312920Y-16032674D01*
X8389111Y-16232674D02*
X8398635Y-16223150D01*
X8398635Y-16223150D02*
X8417682Y-16194579D01*
X8417682Y-16194579D02*
X8427206Y-16175531D01*
X8427206Y-16175531D02*
X8436730Y-16146960D01*
X8436730Y-16146960D02*
X8446254Y-16099341D01*
X8446254Y-16099341D02*
X8446254Y-16061246D01*
X8446254Y-16061246D02*
X8436730Y-16013627D01*
X8436730Y-16013627D02*
X8427206Y-15985055D01*
X8427206Y-15985055D02*
X8417682Y-15966008D01*
X8417682Y-15966008D02*
X8398635Y-15937436D01*
X8398635Y-15937436D02*
X8389111Y-15927912D01*
D15*
X1865000Y-16264000D02*
X1995000Y-16394000D01*
X1995000Y-16264000D02*
X1865000Y-16394000D01*
X1930000Y-16264000D02*
X1930000Y-16394000D01*
X1865000Y-16329000D02*
X1995000Y-16329000D01*
D10*
X2360539Y-16420484D02*
X2246253Y-16420484D01*
X2303396Y-16420484D02*
X2303396Y-16220484D01*
X2303396Y-16220484D02*
X2284348Y-16249055D01*
X2284348Y-16249055D02*
X2265301Y-16268103D01*
X2265301Y-16268103D02*
X2246253Y-16277627D01*
X2446253Y-16401436D02*
X2455777Y-16410960D01*
X2455777Y-16410960D02*
X2446253Y-16420484D01*
X2446253Y-16420484D02*
X2436729Y-16410960D01*
X2436729Y-16410960D02*
X2446253Y-16401436D01*
X2446253Y-16401436D02*
X2446253Y-16420484D01*
X2522444Y-16220484D02*
X2646253Y-16220484D01*
X2646253Y-16220484D02*
X2579586Y-16296674D01*
X2579586Y-16296674D02*
X2608158Y-16296674D01*
X2608158Y-16296674D02*
X2627205Y-16306198D01*
X2627205Y-16306198D02*
X2636729Y-16315722D01*
X2636729Y-16315722D02*
X2646253Y-16334769D01*
X2646253Y-16334769D02*
X2646253Y-16382388D01*
X2646253Y-16382388D02*
X2636729Y-16401436D01*
X2636729Y-16401436D02*
X2627205Y-16410960D01*
X2627205Y-16410960D02*
X2608158Y-16420484D01*
X2608158Y-16420484D02*
X2551015Y-16420484D01*
X2551015Y-16420484D02*
X2531967Y-16410960D01*
X2531967Y-16410960D02*
X2522444Y-16401436D01*
X2770063Y-16220484D02*
X2789110Y-16220484D01*
X2789110Y-16220484D02*
X2808158Y-16230008D01*
X2808158Y-16230008D02*
X2817682Y-16239531D01*
X2817682Y-16239531D02*
X2827205Y-16258579D01*
X2827205Y-16258579D02*
X2836729Y-16296674D01*
X2836729Y-16296674D02*
X2836729Y-16344293D01*
X2836729Y-16344293D02*
X2827205Y-16382388D01*
X2827205Y-16382388D02*
X2817682Y-16401436D01*
X2817682Y-16401436D02*
X2808158Y-16410960D01*
X2808158Y-16410960D02*
X2789110Y-16420484D01*
X2789110Y-16420484D02*
X2770063Y-16420484D01*
X2770063Y-16420484D02*
X2751015Y-16410960D01*
X2751015Y-16410960D02*
X2741491Y-16401436D01*
X2741491Y-16401436D02*
X2731967Y-16382388D01*
X2731967Y-16382388D02*
X2722444Y-16344293D01*
X2722444Y-16344293D02*
X2722444Y-16296674D01*
X2722444Y-16296674D02*
X2731967Y-16258579D01*
X2731967Y-16258579D02*
X2741491Y-16239531D01*
X2741491Y-16239531D02*
X2751015Y-16230008D01*
X2751015Y-16230008D02*
X2770063Y-16220484D01*
X2960539Y-16220484D02*
X2979586Y-16220484D01*
X2979586Y-16220484D02*
X2998634Y-16230008D01*
X2998634Y-16230008D02*
X3008158Y-16239531D01*
X3008158Y-16239531D02*
X3017682Y-16258579D01*
X3017682Y-16258579D02*
X3027205Y-16296674D01*
X3027205Y-16296674D02*
X3027205Y-16344293D01*
X3027205Y-16344293D02*
X3017682Y-16382388D01*
X3017682Y-16382388D02*
X3008158Y-16401436D01*
X3008158Y-16401436D02*
X2998634Y-16410960D01*
X2998634Y-16410960D02*
X2979586Y-16420484D01*
X2979586Y-16420484D02*
X2960539Y-16420484D01*
X2960539Y-16420484D02*
X2941491Y-16410960D01*
X2941491Y-16410960D02*
X2931967Y-16401436D01*
X2931967Y-16401436D02*
X2922443Y-16382388D01*
X2922443Y-16382388D02*
X2912920Y-16344293D01*
X2912920Y-16344293D02*
X2912920Y-16296674D01*
X2912920Y-16296674D02*
X2922443Y-16258579D01*
X2922443Y-16258579D02*
X2931967Y-16239531D01*
X2931967Y-16239531D02*
X2941491Y-16230008D01*
X2941491Y-16230008D02*
X2960539Y-16220484D01*
X3112920Y-16420484D02*
X3112920Y-16287150D01*
X3112920Y-16306198D02*
X3122443Y-16296674D01*
X3122443Y-16296674D02*
X3141491Y-16287150D01*
X3141491Y-16287150D02*
X3170063Y-16287150D01*
X3170063Y-16287150D02*
X3189110Y-16296674D01*
X3189110Y-16296674D02*
X3198634Y-16315722D01*
X3198634Y-16315722D02*
X3198634Y-16420484D01*
X3198634Y-16315722D02*
X3208158Y-16296674D01*
X3208158Y-16296674D02*
X3227205Y-16287150D01*
X3227205Y-16287150D02*
X3255777Y-16287150D01*
X3255777Y-16287150D02*
X3274824Y-16296674D01*
X3274824Y-16296674D02*
X3284348Y-16315722D01*
X3284348Y-16315722D02*
X3284348Y-16420484D01*
X3379586Y-16420484D02*
X3379586Y-16287150D01*
X3379586Y-16306198D02*
X3389110Y-16296674D01*
X3389110Y-16296674D02*
X3408158Y-16287150D01*
X3408158Y-16287150D02*
X3436729Y-16287150D01*
X3436729Y-16287150D02*
X3455777Y-16296674D01*
X3455777Y-16296674D02*
X3465301Y-16315722D01*
X3465301Y-16315722D02*
X3465301Y-16420484D01*
X3465301Y-16315722D02*
X3474824Y-16296674D01*
X3474824Y-16296674D02*
X3493872Y-16287150D01*
X3493872Y-16287150D02*
X3522443Y-16287150D01*
X3522443Y-16287150D02*
X3541491Y-16296674D01*
X3541491Y-16296674D02*
X3551015Y-16315722D01*
X3551015Y-16315722D02*
X3551015Y-16420484D01*
X3941491Y-16210960D02*
X3770063Y-16468103D01*
X4198634Y-16220484D02*
X4217682Y-16220484D01*
X4217682Y-16220484D02*
X4236729Y-16230008D01*
X4236729Y-16230008D02*
X4246253Y-16239531D01*
X4246253Y-16239531D02*
X4255777Y-16258579D01*
X4255777Y-16258579D02*
X4265301Y-16296674D01*
X4265301Y-16296674D02*
X4265301Y-16344293D01*
X4265301Y-16344293D02*
X4255777Y-16382388D01*
X4255777Y-16382388D02*
X4246253Y-16401436D01*
X4246253Y-16401436D02*
X4236729Y-16410960D01*
X4236729Y-16410960D02*
X4217682Y-16420484D01*
X4217682Y-16420484D02*
X4198634Y-16420484D01*
X4198634Y-16420484D02*
X4179586Y-16410960D01*
X4179586Y-16410960D02*
X4170063Y-16401436D01*
X4170063Y-16401436D02*
X4160539Y-16382388D01*
X4160539Y-16382388D02*
X4151015Y-16344293D01*
X4151015Y-16344293D02*
X4151015Y-16296674D01*
X4151015Y-16296674D02*
X4160539Y-16258579D01*
X4160539Y-16258579D02*
X4170063Y-16239531D01*
X4170063Y-16239531D02*
X4179586Y-16230008D01*
X4179586Y-16230008D02*
X4198634Y-16220484D01*
X4351015Y-16401436D02*
X4360539Y-16410960D01*
X4360539Y-16410960D02*
X4351015Y-16420484D01*
X4351015Y-16420484D02*
X4341491Y-16410960D01*
X4341491Y-16410960D02*
X4351015Y-16401436D01*
X4351015Y-16401436D02*
X4351015Y-16420484D01*
X4484348Y-16220484D02*
X4503396Y-16220484D01*
X4503396Y-16220484D02*
X4522444Y-16230008D01*
X4522444Y-16230008D02*
X4531968Y-16239531D01*
X4531968Y-16239531D02*
X4541491Y-16258579D01*
X4541491Y-16258579D02*
X4551015Y-16296674D01*
X4551015Y-16296674D02*
X4551015Y-16344293D01*
X4551015Y-16344293D02*
X4541491Y-16382388D01*
X4541491Y-16382388D02*
X4531968Y-16401436D01*
X4531968Y-16401436D02*
X4522444Y-16410960D01*
X4522444Y-16410960D02*
X4503396Y-16420484D01*
X4503396Y-16420484D02*
X4484348Y-16420484D01*
X4484348Y-16420484D02*
X4465301Y-16410960D01*
X4465301Y-16410960D02*
X4455777Y-16401436D01*
X4455777Y-16401436D02*
X4446253Y-16382388D01*
X4446253Y-16382388D02*
X4436729Y-16344293D01*
X4436729Y-16344293D02*
X4436729Y-16296674D01*
X4436729Y-16296674D02*
X4446253Y-16258579D01*
X4446253Y-16258579D02*
X4455777Y-16239531D01*
X4455777Y-16239531D02*
X4465301Y-16230008D01*
X4465301Y-16230008D02*
X4484348Y-16220484D01*
X4731968Y-16220484D02*
X4636729Y-16220484D01*
X4636729Y-16220484D02*
X4627206Y-16315722D01*
X4627206Y-16315722D02*
X4636729Y-16306198D01*
X4636729Y-16306198D02*
X4655777Y-16296674D01*
X4655777Y-16296674D02*
X4703396Y-16296674D01*
X4703396Y-16296674D02*
X4722444Y-16306198D01*
X4722444Y-16306198D02*
X4731968Y-16315722D01*
X4731968Y-16315722D02*
X4741491Y-16334769D01*
X4741491Y-16334769D02*
X4741491Y-16382388D01*
X4741491Y-16382388D02*
X4731968Y-16401436D01*
X4731968Y-16401436D02*
X4722444Y-16410960D01*
X4722444Y-16410960D02*
X4703396Y-16420484D01*
X4703396Y-16420484D02*
X4655777Y-16420484D01*
X4655777Y-16420484D02*
X4636729Y-16410960D01*
X4636729Y-16410960D02*
X4627206Y-16401436D01*
X4931968Y-16420484D02*
X4817682Y-16420484D01*
X4874825Y-16420484D02*
X4874825Y-16220484D01*
X4874825Y-16220484D02*
X4855777Y-16249055D01*
X4855777Y-16249055D02*
X4836729Y-16268103D01*
X4836729Y-16268103D02*
X4817682Y-16277627D01*
X5008158Y-16239531D02*
X5017682Y-16230008D01*
X5017682Y-16230008D02*
X5036729Y-16220484D01*
X5036729Y-16220484D02*
X5084349Y-16220484D01*
X5084349Y-16220484D02*
X5103396Y-16230008D01*
X5103396Y-16230008D02*
X5112920Y-16239531D01*
X5112920Y-16239531D02*
X5122444Y-16258579D01*
X5122444Y-16258579D02*
X5122444Y-16277627D01*
X5122444Y-16277627D02*
X5112920Y-16306198D01*
X5112920Y-16306198D02*
X4998634Y-16420484D01*
X4998634Y-16420484D02*
X5122444Y-16420484D01*
X5198634Y-16220484D02*
X5198634Y-16258579D01*
X5274825Y-16220484D02*
X5274825Y-16258579D01*
X5570063Y-16496674D02*
X5560539Y-16487150D01*
X5560539Y-16487150D02*
X5541491Y-16458579D01*
X5541491Y-16458579D02*
X5531968Y-16439531D01*
X5531968Y-16439531D02*
X5522444Y-16410960D01*
X5522444Y-16410960D02*
X5512920Y-16363341D01*
X5512920Y-16363341D02*
X5512920Y-16325246D01*
X5512920Y-16325246D02*
X5522444Y-16277627D01*
X5522444Y-16277627D02*
X5531968Y-16249055D01*
X5531968Y-16249055D02*
X5541491Y-16230008D01*
X5541491Y-16230008D02*
X5560539Y-16201436D01*
X5560539Y-16201436D02*
X5570063Y-16191912D01*
X5684348Y-16220484D02*
X5703396Y-16220484D01*
X5703396Y-16220484D02*
X5722444Y-16230008D01*
X5722444Y-16230008D02*
X5731968Y-16239531D01*
X5731968Y-16239531D02*
X5741491Y-16258579D01*
X5741491Y-16258579D02*
X5751015Y-16296674D01*
X5751015Y-16296674D02*
X5751015Y-16344293D01*
X5751015Y-16344293D02*
X5741491Y-16382388D01*
X5741491Y-16382388D02*
X5731968Y-16401436D01*
X5731968Y-16401436D02*
X5722444Y-16410960D01*
X5722444Y-16410960D02*
X5703396Y-16420484D01*
X5703396Y-16420484D02*
X5684348Y-16420484D01*
X5684348Y-16420484D02*
X5665301Y-16410960D01*
X5665301Y-16410960D02*
X5655777Y-16401436D01*
X5655777Y-16401436D02*
X5646253Y-16382388D01*
X5646253Y-16382388D02*
X5636729Y-16344293D01*
X5636729Y-16344293D02*
X5636729Y-16296674D01*
X5636729Y-16296674D02*
X5646253Y-16258579D01*
X5646253Y-16258579D02*
X5655777Y-16239531D01*
X5655777Y-16239531D02*
X5665301Y-16230008D01*
X5665301Y-16230008D02*
X5684348Y-16220484D01*
X5989110Y-16420484D02*
X5989110Y-16220484D01*
X6074825Y-16420484D02*
X6074825Y-16315722D01*
X6074825Y-16315722D02*
X6065301Y-16296674D01*
X6065301Y-16296674D02*
X6046253Y-16287150D01*
X6046253Y-16287150D02*
X6017682Y-16287150D01*
X6017682Y-16287150D02*
X5998634Y-16296674D01*
X5998634Y-16296674D02*
X5989110Y-16306198D01*
X6198634Y-16420484D02*
X6179587Y-16410960D01*
X6179587Y-16410960D02*
X6170063Y-16401436D01*
X6170063Y-16401436D02*
X6160539Y-16382388D01*
X6160539Y-16382388D02*
X6160539Y-16325246D01*
X6160539Y-16325246D02*
X6170063Y-16306198D01*
X6170063Y-16306198D02*
X6179587Y-16296674D01*
X6179587Y-16296674D02*
X6198634Y-16287150D01*
X6198634Y-16287150D02*
X6227206Y-16287150D01*
X6227206Y-16287150D02*
X6246253Y-16296674D01*
X6246253Y-16296674D02*
X6255777Y-16306198D01*
X6255777Y-16306198D02*
X6265301Y-16325246D01*
X6265301Y-16325246D02*
X6265301Y-16382388D01*
X6265301Y-16382388D02*
X6255777Y-16401436D01*
X6255777Y-16401436D02*
X6246253Y-16410960D01*
X6246253Y-16410960D02*
X6227206Y-16420484D01*
X6227206Y-16420484D02*
X6198634Y-16420484D01*
X6379587Y-16420484D02*
X6360539Y-16410960D01*
X6360539Y-16410960D02*
X6351015Y-16391912D01*
X6351015Y-16391912D02*
X6351015Y-16220484D01*
X6531968Y-16410960D02*
X6512920Y-16420484D01*
X6512920Y-16420484D02*
X6474825Y-16420484D01*
X6474825Y-16420484D02*
X6455777Y-16410960D01*
X6455777Y-16410960D02*
X6446253Y-16391912D01*
X6446253Y-16391912D02*
X6446253Y-16315722D01*
X6446253Y-16315722D02*
X6455777Y-16296674D01*
X6455777Y-16296674D02*
X6474825Y-16287150D01*
X6474825Y-16287150D02*
X6512920Y-16287150D01*
X6512920Y-16287150D02*
X6531968Y-16296674D01*
X6531968Y-16296674D02*
X6541491Y-16315722D01*
X6541491Y-16315722D02*
X6541491Y-16334769D01*
X6541491Y-16334769D02*
X6446253Y-16353817D01*
X6617682Y-16410960D02*
X6636730Y-16420484D01*
X6636730Y-16420484D02*
X6674825Y-16420484D01*
X6674825Y-16420484D02*
X6693872Y-16410960D01*
X6693872Y-16410960D02*
X6703396Y-16391912D01*
X6703396Y-16391912D02*
X6703396Y-16382388D01*
X6703396Y-16382388D02*
X6693872Y-16363341D01*
X6693872Y-16363341D02*
X6674825Y-16353817D01*
X6674825Y-16353817D02*
X6646253Y-16353817D01*
X6646253Y-16353817D02*
X6627206Y-16344293D01*
X6627206Y-16344293D02*
X6617682Y-16325246D01*
X6617682Y-16325246D02*
X6617682Y-16315722D01*
X6617682Y-16315722D02*
X6627206Y-16296674D01*
X6627206Y-16296674D02*
X6646253Y-16287150D01*
X6646253Y-16287150D02*
X6674825Y-16287150D01*
X6674825Y-16287150D02*
X6693872Y-16296674D01*
X6941492Y-16344293D02*
X7093873Y-16344293D01*
X7017682Y-16420484D02*
X7017682Y-16268103D01*
X7331968Y-16239531D02*
X7341492Y-16230008D01*
X7341492Y-16230008D02*
X7360539Y-16220484D01*
X7360539Y-16220484D02*
X7408158Y-16220484D01*
X7408158Y-16220484D02*
X7427206Y-16230008D01*
X7427206Y-16230008D02*
X7436730Y-16239531D01*
X7436730Y-16239531D02*
X7446253Y-16258579D01*
X7446253Y-16258579D02*
X7446253Y-16277627D01*
X7446253Y-16277627D02*
X7436730Y-16306198D01*
X7436730Y-16306198D02*
X7322444Y-16420484D01*
X7322444Y-16420484D02*
X7446253Y-16420484D01*
X7674825Y-16410960D02*
X7693873Y-16420484D01*
X7693873Y-16420484D02*
X7731968Y-16420484D01*
X7731968Y-16420484D02*
X7751015Y-16410960D01*
X7751015Y-16410960D02*
X7760539Y-16391912D01*
X7760539Y-16391912D02*
X7760539Y-16382388D01*
X7760539Y-16382388D02*
X7751015Y-16363341D01*
X7751015Y-16363341D02*
X7731968Y-16353817D01*
X7731968Y-16353817D02*
X7703396Y-16353817D01*
X7703396Y-16353817D02*
X7684349Y-16344293D01*
X7684349Y-16344293D02*
X7674825Y-16325246D01*
X7674825Y-16325246D02*
X7674825Y-16315722D01*
X7674825Y-16315722D02*
X7684349Y-16296674D01*
X7684349Y-16296674D02*
X7703396Y-16287150D01*
X7703396Y-16287150D02*
X7731968Y-16287150D01*
X7731968Y-16287150D02*
X7751015Y-16296674D01*
X7874825Y-16420484D02*
X7855777Y-16410960D01*
X7855777Y-16410960D02*
X7846254Y-16391912D01*
X7846254Y-16391912D02*
X7846254Y-16220484D01*
X7979587Y-16420484D02*
X7960539Y-16410960D01*
X7960539Y-16410960D02*
X7951015Y-16401436D01*
X7951015Y-16401436D02*
X7941492Y-16382388D01*
X7941492Y-16382388D02*
X7941492Y-16325246D01*
X7941492Y-16325246D02*
X7951015Y-16306198D01*
X7951015Y-16306198D02*
X7960539Y-16296674D01*
X7960539Y-16296674D02*
X7979587Y-16287150D01*
X7979587Y-16287150D02*
X8008158Y-16287150D01*
X8008158Y-16287150D02*
X8027206Y-16296674D01*
X8027206Y-16296674D02*
X8036730Y-16306198D01*
X8036730Y-16306198D02*
X8046254Y-16325246D01*
X8046254Y-16325246D02*
X8046254Y-16382388D01*
X8046254Y-16382388D02*
X8036730Y-16401436D01*
X8036730Y-16401436D02*
X8027206Y-16410960D01*
X8027206Y-16410960D02*
X8008158Y-16420484D01*
X8008158Y-16420484D02*
X7979587Y-16420484D01*
X8103396Y-16287150D02*
X8179587Y-16287150D01*
X8131968Y-16220484D02*
X8131968Y-16391912D01*
X8131968Y-16391912D02*
X8141492Y-16410960D01*
X8141492Y-16410960D02*
X8160539Y-16420484D01*
X8160539Y-16420484D02*
X8179587Y-16420484D01*
X8236730Y-16410960D02*
X8255777Y-16420484D01*
X8255777Y-16420484D02*
X8293873Y-16420484D01*
X8293873Y-16420484D02*
X8312920Y-16410960D01*
X8312920Y-16410960D02*
X8322444Y-16391912D01*
X8322444Y-16391912D02*
X8322444Y-16382388D01*
X8322444Y-16382388D02*
X8312920Y-16363341D01*
X8312920Y-16363341D02*
X8293873Y-16353817D01*
X8293873Y-16353817D02*
X8265301Y-16353817D01*
X8265301Y-16353817D02*
X8246254Y-16344293D01*
X8246254Y-16344293D02*
X8236730Y-16325246D01*
X8236730Y-16325246D02*
X8236730Y-16315722D01*
X8236730Y-16315722D02*
X8246254Y-16296674D01*
X8246254Y-16296674D02*
X8265301Y-16287150D01*
X8265301Y-16287150D02*
X8293873Y-16287150D01*
X8293873Y-16287150D02*
X8312920Y-16296674D01*
X8389111Y-16496674D02*
X8398635Y-16487150D01*
X8398635Y-16487150D02*
X8417682Y-16458579D01*
X8417682Y-16458579D02*
X8427206Y-16439531D01*
X8427206Y-16439531D02*
X8436730Y-16410960D01*
X8436730Y-16410960D02*
X8446254Y-16363341D01*
X8446254Y-16363341D02*
X8446254Y-16325246D01*
X8446254Y-16325246D02*
X8436730Y-16277627D01*
X8436730Y-16277627D02*
X8427206Y-16249055D01*
X8427206Y-16249055D02*
X8417682Y-16230008D01*
X8417682Y-16230008D02*
X8398635Y-16201436D01*
X8398635Y-16201436D02*
X8389111Y-16191912D01*
D16*
X1804000Y-16497500D02*
X1995000Y-16688500D01*
X1995000Y-16497500D02*
X1804000Y-16688500D01*
X1967029Y-16660529D02*
X1967029Y-16525471D01*
X1831971Y-16525471D01*
X1831971Y-16660529D01*
X1967029Y-16660529D01*
D10*
X2360539Y-16684484D02*
X2246253Y-16684484D01*
X2303396Y-16684484D02*
X2303396Y-16484484D01*
X2303396Y-16484484D02*
X2284348Y-16513055D01*
X2284348Y-16513055D02*
X2265301Y-16532103D01*
X2265301Y-16532103D02*
X2246253Y-16541627D01*
X2446253Y-16665436D02*
X2455777Y-16674960D01*
X2455777Y-16674960D02*
X2446253Y-16684484D01*
X2446253Y-16684484D02*
X2436729Y-16674960D01*
X2436729Y-16674960D02*
X2446253Y-16665436D01*
X2446253Y-16665436D02*
X2446253Y-16684484D01*
X2551015Y-16684484D02*
X2589110Y-16684484D01*
X2589110Y-16684484D02*
X2608158Y-16674960D01*
X2608158Y-16674960D02*
X2617682Y-16665436D01*
X2617682Y-16665436D02*
X2636729Y-16636865D01*
X2636729Y-16636865D02*
X2646253Y-16598769D01*
X2646253Y-16598769D02*
X2646253Y-16522579D01*
X2646253Y-16522579D02*
X2636729Y-16503531D01*
X2636729Y-16503531D02*
X2627205Y-16494008D01*
X2627205Y-16494008D02*
X2608158Y-16484484D01*
X2608158Y-16484484D02*
X2570063Y-16484484D01*
X2570063Y-16484484D02*
X2551015Y-16494008D01*
X2551015Y-16494008D02*
X2541491Y-16503531D01*
X2541491Y-16503531D02*
X2531967Y-16522579D01*
X2531967Y-16522579D02*
X2531967Y-16570198D01*
X2531967Y-16570198D02*
X2541491Y-16589246D01*
X2541491Y-16589246D02*
X2551015Y-16598769D01*
X2551015Y-16598769D02*
X2570063Y-16608293D01*
X2570063Y-16608293D02*
X2608158Y-16608293D01*
X2608158Y-16608293D02*
X2627205Y-16598769D01*
X2627205Y-16598769D02*
X2636729Y-16589246D01*
X2636729Y-16589246D02*
X2646253Y-16570198D01*
X2836729Y-16684484D02*
X2722444Y-16684484D01*
X2779586Y-16684484D02*
X2779586Y-16484484D01*
X2779586Y-16484484D02*
X2760539Y-16513055D01*
X2760539Y-16513055D02*
X2741491Y-16532103D01*
X2741491Y-16532103D02*
X2722444Y-16541627D01*
X2960539Y-16484484D02*
X2979586Y-16484484D01*
X2979586Y-16484484D02*
X2998634Y-16494008D01*
X2998634Y-16494008D02*
X3008158Y-16503531D01*
X3008158Y-16503531D02*
X3017682Y-16522579D01*
X3017682Y-16522579D02*
X3027205Y-16560674D01*
X3027205Y-16560674D02*
X3027205Y-16608293D01*
X3027205Y-16608293D02*
X3017682Y-16646388D01*
X3017682Y-16646388D02*
X3008158Y-16665436D01*
X3008158Y-16665436D02*
X2998634Y-16674960D01*
X2998634Y-16674960D02*
X2979586Y-16684484D01*
X2979586Y-16684484D02*
X2960539Y-16684484D01*
X2960539Y-16684484D02*
X2941491Y-16674960D01*
X2941491Y-16674960D02*
X2931967Y-16665436D01*
X2931967Y-16665436D02*
X2922443Y-16646388D01*
X2922443Y-16646388D02*
X2912920Y-16608293D01*
X2912920Y-16608293D02*
X2912920Y-16560674D01*
X2912920Y-16560674D02*
X2922443Y-16522579D01*
X2922443Y-16522579D02*
X2931967Y-16503531D01*
X2931967Y-16503531D02*
X2941491Y-16494008D01*
X2941491Y-16494008D02*
X2960539Y-16484484D01*
X3112920Y-16684484D02*
X3112920Y-16551150D01*
X3112920Y-16570198D02*
X3122443Y-16560674D01*
X3122443Y-16560674D02*
X3141491Y-16551150D01*
X3141491Y-16551150D02*
X3170063Y-16551150D01*
X3170063Y-16551150D02*
X3189110Y-16560674D01*
X3189110Y-16560674D02*
X3198634Y-16579722D01*
X3198634Y-16579722D02*
X3198634Y-16684484D01*
X3198634Y-16579722D02*
X3208158Y-16560674D01*
X3208158Y-16560674D02*
X3227205Y-16551150D01*
X3227205Y-16551150D02*
X3255777Y-16551150D01*
X3255777Y-16551150D02*
X3274824Y-16560674D01*
X3274824Y-16560674D02*
X3284348Y-16579722D01*
X3284348Y-16579722D02*
X3284348Y-16684484D01*
X3379586Y-16684484D02*
X3379586Y-16551150D01*
X3379586Y-16570198D02*
X3389110Y-16560674D01*
X3389110Y-16560674D02*
X3408158Y-16551150D01*
X3408158Y-16551150D02*
X3436729Y-16551150D01*
X3436729Y-16551150D02*
X3455777Y-16560674D01*
X3455777Y-16560674D02*
X3465301Y-16579722D01*
X3465301Y-16579722D02*
X3465301Y-16684484D01*
X3465301Y-16579722D02*
X3474824Y-16560674D01*
X3474824Y-16560674D02*
X3493872Y-16551150D01*
X3493872Y-16551150D02*
X3522443Y-16551150D01*
X3522443Y-16551150D02*
X3541491Y-16560674D01*
X3541491Y-16560674D02*
X3551015Y-16579722D01*
X3551015Y-16579722D02*
X3551015Y-16684484D01*
X3941491Y-16474960D02*
X3770063Y-16732103D01*
X4198634Y-16484484D02*
X4217682Y-16484484D01*
X4217682Y-16484484D02*
X4236729Y-16494008D01*
X4236729Y-16494008D02*
X4246253Y-16503531D01*
X4246253Y-16503531D02*
X4255777Y-16522579D01*
X4255777Y-16522579D02*
X4265301Y-16560674D01*
X4265301Y-16560674D02*
X4265301Y-16608293D01*
X4265301Y-16608293D02*
X4255777Y-16646388D01*
X4255777Y-16646388D02*
X4246253Y-16665436D01*
X4246253Y-16665436D02*
X4236729Y-16674960D01*
X4236729Y-16674960D02*
X4217682Y-16684484D01*
X4217682Y-16684484D02*
X4198634Y-16684484D01*
X4198634Y-16684484D02*
X4179586Y-16674960D01*
X4179586Y-16674960D02*
X4170063Y-16665436D01*
X4170063Y-16665436D02*
X4160539Y-16646388D01*
X4160539Y-16646388D02*
X4151015Y-16608293D01*
X4151015Y-16608293D02*
X4151015Y-16560674D01*
X4151015Y-16560674D02*
X4160539Y-16522579D01*
X4160539Y-16522579D02*
X4170063Y-16503531D01*
X4170063Y-16503531D02*
X4179586Y-16494008D01*
X4179586Y-16494008D02*
X4198634Y-16484484D01*
X4351015Y-16665436D02*
X4360539Y-16674960D01*
X4360539Y-16674960D02*
X4351015Y-16684484D01*
X4351015Y-16684484D02*
X4341491Y-16674960D01*
X4341491Y-16674960D02*
X4351015Y-16665436D01*
X4351015Y-16665436D02*
X4351015Y-16684484D01*
X4484348Y-16484484D02*
X4503396Y-16484484D01*
X4503396Y-16484484D02*
X4522444Y-16494008D01*
X4522444Y-16494008D02*
X4531968Y-16503531D01*
X4531968Y-16503531D02*
X4541491Y-16522579D01*
X4541491Y-16522579D02*
X4551015Y-16560674D01*
X4551015Y-16560674D02*
X4551015Y-16608293D01*
X4551015Y-16608293D02*
X4541491Y-16646388D01*
X4541491Y-16646388D02*
X4531968Y-16665436D01*
X4531968Y-16665436D02*
X4522444Y-16674960D01*
X4522444Y-16674960D02*
X4503396Y-16684484D01*
X4503396Y-16684484D02*
X4484348Y-16684484D01*
X4484348Y-16684484D02*
X4465301Y-16674960D01*
X4465301Y-16674960D02*
X4455777Y-16665436D01*
X4455777Y-16665436D02*
X4446253Y-16646388D01*
X4446253Y-16646388D02*
X4436729Y-16608293D01*
X4436729Y-16608293D02*
X4436729Y-16560674D01*
X4436729Y-16560674D02*
X4446253Y-16522579D01*
X4446253Y-16522579D02*
X4455777Y-16503531D01*
X4455777Y-16503531D02*
X4465301Y-16494008D01*
X4465301Y-16494008D02*
X4484348Y-16484484D01*
X4617682Y-16484484D02*
X4751015Y-16484484D01*
X4751015Y-16484484D02*
X4665301Y-16684484D01*
X4922444Y-16484484D02*
X4827206Y-16484484D01*
X4827206Y-16484484D02*
X4817682Y-16579722D01*
X4817682Y-16579722D02*
X4827206Y-16570198D01*
X4827206Y-16570198D02*
X4846253Y-16560674D01*
X4846253Y-16560674D02*
X4893872Y-16560674D01*
X4893872Y-16560674D02*
X4912920Y-16570198D01*
X4912920Y-16570198D02*
X4922444Y-16579722D01*
X4922444Y-16579722D02*
X4931968Y-16598769D01*
X4931968Y-16598769D02*
X4931968Y-16646388D01*
X4931968Y-16646388D02*
X4922444Y-16665436D01*
X4922444Y-16665436D02*
X4912920Y-16674960D01*
X4912920Y-16674960D02*
X4893872Y-16684484D01*
X4893872Y-16684484D02*
X4846253Y-16684484D01*
X4846253Y-16684484D02*
X4827206Y-16674960D01*
X4827206Y-16674960D02*
X4817682Y-16665436D01*
X5008158Y-16503531D02*
X5017682Y-16494008D01*
X5017682Y-16494008D02*
X5036729Y-16484484D01*
X5036729Y-16484484D02*
X5084349Y-16484484D01*
X5084349Y-16484484D02*
X5103396Y-16494008D01*
X5103396Y-16494008D02*
X5112920Y-16503531D01*
X5112920Y-16503531D02*
X5122444Y-16522579D01*
X5122444Y-16522579D02*
X5122444Y-16541627D01*
X5122444Y-16541627D02*
X5112920Y-16570198D01*
X5112920Y-16570198D02*
X4998634Y-16684484D01*
X4998634Y-16684484D02*
X5122444Y-16684484D01*
X5198634Y-16484484D02*
X5198634Y-16522579D01*
X5274825Y-16484484D02*
X5274825Y-16522579D01*
X5570063Y-16760674D02*
X5560539Y-16751150D01*
X5560539Y-16751150D02*
X5541491Y-16722579D01*
X5541491Y-16722579D02*
X5531968Y-16703531D01*
X5531968Y-16703531D02*
X5522444Y-16674960D01*
X5522444Y-16674960D02*
X5512920Y-16627341D01*
X5512920Y-16627341D02*
X5512920Y-16589246D01*
X5512920Y-16589246D02*
X5522444Y-16541627D01*
X5522444Y-16541627D02*
X5531968Y-16513055D01*
X5531968Y-16513055D02*
X5541491Y-16494008D01*
X5541491Y-16494008D02*
X5560539Y-16465436D01*
X5560539Y-16465436D02*
X5570063Y-16455912D01*
X5751015Y-16684484D02*
X5636729Y-16684484D01*
X5693872Y-16684484D02*
X5693872Y-16484484D01*
X5693872Y-16484484D02*
X5674825Y-16513055D01*
X5674825Y-16513055D02*
X5655777Y-16532103D01*
X5655777Y-16532103D02*
X5636729Y-16541627D01*
X5865301Y-16570198D02*
X5846253Y-16560674D01*
X5846253Y-16560674D02*
X5836729Y-16551150D01*
X5836729Y-16551150D02*
X5827206Y-16532103D01*
X5827206Y-16532103D02*
X5827206Y-16522579D01*
X5827206Y-16522579D02*
X5836729Y-16503531D01*
X5836729Y-16503531D02*
X5846253Y-16494008D01*
X5846253Y-16494008D02*
X5865301Y-16484484D01*
X5865301Y-16484484D02*
X5903396Y-16484484D01*
X5903396Y-16484484D02*
X5922444Y-16494008D01*
X5922444Y-16494008D02*
X5931968Y-16503531D01*
X5931968Y-16503531D02*
X5941491Y-16522579D01*
X5941491Y-16522579D02*
X5941491Y-16532103D01*
X5941491Y-16532103D02*
X5931968Y-16551150D01*
X5931968Y-16551150D02*
X5922444Y-16560674D01*
X5922444Y-16560674D02*
X5903396Y-16570198D01*
X5903396Y-16570198D02*
X5865301Y-16570198D01*
X5865301Y-16570198D02*
X5846253Y-16579722D01*
X5846253Y-16579722D02*
X5836729Y-16589246D01*
X5836729Y-16589246D02*
X5827206Y-16608293D01*
X5827206Y-16608293D02*
X5827206Y-16646388D01*
X5827206Y-16646388D02*
X5836729Y-16665436D01*
X5836729Y-16665436D02*
X5846253Y-16674960D01*
X5846253Y-16674960D02*
X5865301Y-16684484D01*
X5865301Y-16684484D02*
X5903396Y-16684484D01*
X5903396Y-16684484D02*
X5922444Y-16674960D01*
X5922444Y-16674960D02*
X5931968Y-16665436D01*
X5931968Y-16665436D02*
X5941491Y-16646388D01*
X5941491Y-16646388D02*
X5941491Y-16608293D01*
X5941491Y-16608293D02*
X5931968Y-16589246D01*
X5931968Y-16589246D02*
X5922444Y-16579722D01*
X5922444Y-16579722D02*
X5903396Y-16570198D01*
X6179587Y-16684484D02*
X6179587Y-16484484D01*
X6265301Y-16684484D02*
X6265301Y-16579722D01*
X6265301Y-16579722D02*
X6255777Y-16560674D01*
X6255777Y-16560674D02*
X6236730Y-16551150D01*
X6236730Y-16551150D02*
X6208158Y-16551150D01*
X6208158Y-16551150D02*
X6189110Y-16560674D01*
X6189110Y-16560674D02*
X6179587Y-16570198D01*
X6389110Y-16684484D02*
X6370063Y-16674960D01*
X6370063Y-16674960D02*
X6360539Y-16665436D01*
X6360539Y-16665436D02*
X6351015Y-16646388D01*
X6351015Y-16646388D02*
X6351015Y-16589246D01*
X6351015Y-16589246D02*
X6360539Y-16570198D01*
X6360539Y-16570198D02*
X6370063Y-16560674D01*
X6370063Y-16560674D02*
X6389110Y-16551150D01*
X6389110Y-16551150D02*
X6417682Y-16551150D01*
X6417682Y-16551150D02*
X6436730Y-16560674D01*
X6436730Y-16560674D02*
X6446253Y-16570198D01*
X6446253Y-16570198D02*
X6455777Y-16589246D01*
X6455777Y-16589246D02*
X6455777Y-16646388D01*
X6455777Y-16646388D02*
X6446253Y-16665436D01*
X6446253Y-16665436D02*
X6436730Y-16674960D01*
X6436730Y-16674960D02*
X6417682Y-16684484D01*
X6417682Y-16684484D02*
X6389110Y-16684484D01*
X6570063Y-16684484D02*
X6551015Y-16674960D01*
X6551015Y-16674960D02*
X6541491Y-16655912D01*
X6541491Y-16655912D02*
X6541491Y-16484484D01*
X6722444Y-16674960D02*
X6703396Y-16684484D01*
X6703396Y-16684484D02*
X6665301Y-16684484D01*
X6665301Y-16684484D02*
X6646253Y-16674960D01*
X6646253Y-16674960D02*
X6636730Y-16655912D01*
X6636730Y-16655912D02*
X6636730Y-16579722D01*
X6636730Y-16579722D02*
X6646253Y-16560674D01*
X6646253Y-16560674D02*
X6665301Y-16551150D01*
X6665301Y-16551150D02*
X6703396Y-16551150D01*
X6703396Y-16551150D02*
X6722444Y-16560674D01*
X6722444Y-16560674D02*
X6731968Y-16579722D01*
X6731968Y-16579722D02*
X6731968Y-16598769D01*
X6731968Y-16598769D02*
X6636730Y-16617817D01*
X6808158Y-16674960D02*
X6827206Y-16684484D01*
X6827206Y-16684484D02*
X6865301Y-16684484D01*
X6865301Y-16684484D02*
X6884349Y-16674960D01*
X6884349Y-16674960D02*
X6893872Y-16655912D01*
X6893872Y-16655912D02*
X6893872Y-16646388D01*
X6893872Y-16646388D02*
X6884349Y-16627341D01*
X6884349Y-16627341D02*
X6865301Y-16617817D01*
X6865301Y-16617817D02*
X6836730Y-16617817D01*
X6836730Y-16617817D02*
X6817682Y-16608293D01*
X6817682Y-16608293D02*
X6808158Y-16589246D01*
X6808158Y-16589246D02*
X6808158Y-16579722D01*
X6808158Y-16579722D02*
X6817682Y-16560674D01*
X6817682Y-16560674D02*
X6836730Y-16551150D01*
X6836730Y-16551150D02*
X6865301Y-16551150D01*
X6865301Y-16551150D02*
X6884349Y-16560674D01*
X6960539Y-16760674D02*
X6970063Y-16751150D01*
X6970063Y-16751150D02*
X6989111Y-16722579D01*
X6989111Y-16722579D02*
X6998634Y-16703531D01*
X6998634Y-16703531D02*
X7008158Y-16674960D01*
X7008158Y-16674960D02*
X7017682Y-16627341D01*
X7017682Y-16627341D02*
X7017682Y-16589246D01*
X7017682Y-16589246D02*
X7008158Y-16541627D01*
X7008158Y-16541627D02*
X6998634Y-16513055D01*
X6998634Y-16513055D02*
X6989111Y-16494008D01*
X6989111Y-16494008D02*
X6970063Y-16465436D01*
X6970063Y-16465436D02*
X6960539Y-16455912D01*
X1795000Y-16804000D02*
X1995000Y-17004000D01*
X1995000Y-16804000D02*
X1795000Y-17004000D01*
X1895000Y-17004000D02*
X1995000Y-16904000D01*
X1895000Y-16804000D01*
X1795000Y-16904000D01*
X1895000Y-17004000D01*
X2246253Y-16814531D02*
X2255777Y-16805008D01*
X2255777Y-16805008D02*
X2274824Y-16795484D01*
X2274824Y-16795484D02*
X2322444Y-16795484D01*
X2322444Y-16795484D02*
X2341491Y-16805008D01*
X2341491Y-16805008D02*
X2351015Y-16814531D01*
X2351015Y-16814531D02*
X2360539Y-16833579D01*
X2360539Y-16833579D02*
X2360539Y-16852627D01*
X2360539Y-16852627D02*
X2351015Y-16881198D01*
X2351015Y-16881198D02*
X2236729Y-16995484D01*
X2236729Y-16995484D02*
X2360539Y-16995484D01*
X2446253Y-16976436D02*
X2455777Y-16985960D01*
X2455777Y-16985960D02*
X2446253Y-16995484D01*
X2446253Y-16995484D02*
X2436729Y-16985960D01*
X2436729Y-16985960D02*
X2446253Y-16976436D01*
X2446253Y-16976436D02*
X2446253Y-16995484D01*
X2579586Y-16795484D02*
X2598634Y-16795484D01*
X2598634Y-16795484D02*
X2617682Y-16805008D01*
X2617682Y-16805008D02*
X2627205Y-16814531D01*
X2627205Y-16814531D02*
X2636729Y-16833579D01*
X2636729Y-16833579D02*
X2646253Y-16871674D01*
X2646253Y-16871674D02*
X2646253Y-16919293D01*
X2646253Y-16919293D02*
X2636729Y-16957389D01*
X2636729Y-16957389D02*
X2627205Y-16976436D01*
X2627205Y-16976436D02*
X2617682Y-16985960D01*
X2617682Y-16985960D02*
X2598634Y-16995484D01*
X2598634Y-16995484D02*
X2579586Y-16995484D01*
X2579586Y-16995484D02*
X2560539Y-16985960D01*
X2560539Y-16985960D02*
X2551015Y-16976436D01*
X2551015Y-16976436D02*
X2541491Y-16957389D01*
X2541491Y-16957389D02*
X2531967Y-16919293D01*
X2531967Y-16919293D02*
X2531967Y-16871674D01*
X2531967Y-16871674D02*
X2541491Y-16833579D01*
X2541491Y-16833579D02*
X2551015Y-16814531D01*
X2551015Y-16814531D02*
X2560539Y-16805008D01*
X2560539Y-16805008D02*
X2579586Y-16795484D01*
X2770063Y-16795484D02*
X2789110Y-16795484D01*
X2789110Y-16795484D02*
X2808158Y-16805008D01*
X2808158Y-16805008D02*
X2817682Y-16814531D01*
X2817682Y-16814531D02*
X2827205Y-16833579D01*
X2827205Y-16833579D02*
X2836729Y-16871674D01*
X2836729Y-16871674D02*
X2836729Y-16919293D01*
X2836729Y-16919293D02*
X2827205Y-16957389D01*
X2827205Y-16957389D02*
X2817682Y-16976436D01*
X2817682Y-16976436D02*
X2808158Y-16985960D01*
X2808158Y-16985960D02*
X2789110Y-16995484D01*
X2789110Y-16995484D02*
X2770063Y-16995484D01*
X2770063Y-16995484D02*
X2751015Y-16985960D01*
X2751015Y-16985960D02*
X2741491Y-16976436D01*
X2741491Y-16976436D02*
X2731967Y-16957389D01*
X2731967Y-16957389D02*
X2722444Y-16919293D01*
X2722444Y-16919293D02*
X2722444Y-16871674D01*
X2722444Y-16871674D02*
X2731967Y-16833579D01*
X2731967Y-16833579D02*
X2741491Y-16814531D01*
X2741491Y-16814531D02*
X2751015Y-16805008D01*
X2751015Y-16805008D02*
X2770063Y-16795484D01*
X2960539Y-16795484D02*
X2979586Y-16795484D01*
X2979586Y-16795484D02*
X2998634Y-16805008D01*
X2998634Y-16805008D02*
X3008158Y-16814531D01*
X3008158Y-16814531D02*
X3017682Y-16833579D01*
X3017682Y-16833579D02*
X3027205Y-16871674D01*
X3027205Y-16871674D02*
X3027205Y-16919293D01*
X3027205Y-16919293D02*
X3017682Y-16957389D01*
X3017682Y-16957389D02*
X3008158Y-16976436D01*
X3008158Y-16976436D02*
X2998634Y-16985960D01*
X2998634Y-16985960D02*
X2979586Y-16995484D01*
X2979586Y-16995484D02*
X2960539Y-16995484D01*
X2960539Y-16995484D02*
X2941491Y-16985960D01*
X2941491Y-16985960D02*
X2931967Y-16976436D01*
X2931967Y-16976436D02*
X2922443Y-16957389D01*
X2922443Y-16957389D02*
X2912920Y-16919293D01*
X2912920Y-16919293D02*
X2912920Y-16871674D01*
X2912920Y-16871674D02*
X2922443Y-16833579D01*
X2922443Y-16833579D02*
X2931967Y-16814531D01*
X2931967Y-16814531D02*
X2941491Y-16805008D01*
X2941491Y-16805008D02*
X2960539Y-16795484D01*
X3112920Y-16995484D02*
X3112920Y-16862150D01*
X3112920Y-16881198D02*
X3122443Y-16871674D01*
X3122443Y-16871674D02*
X3141491Y-16862150D01*
X3141491Y-16862150D02*
X3170063Y-16862150D01*
X3170063Y-16862150D02*
X3189110Y-16871674D01*
X3189110Y-16871674D02*
X3198634Y-16890722D01*
X3198634Y-16890722D02*
X3198634Y-16995484D01*
X3198634Y-16890722D02*
X3208158Y-16871674D01*
X3208158Y-16871674D02*
X3227205Y-16862150D01*
X3227205Y-16862150D02*
X3255777Y-16862150D01*
X3255777Y-16862150D02*
X3274824Y-16871674D01*
X3274824Y-16871674D02*
X3284348Y-16890722D01*
X3284348Y-16890722D02*
X3284348Y-16995484D01*
X3379586Y-16995484D02*
X3379586Y-16862150D01*
X3379586Y-16881198D02*
X3389110Y-16871674D01*
X3389110Y-16871674D02*
X3408158Y-16862150D01*
X3408158Y-16862150D02*
X3436729Y-16862150D01*
X3436729Y-16862150D02*
X3455777Y-16871674D01*
X3455777Y-16871674D02*
X3465301Y-16890722D01*
X3465301Y-16890722D02*
X3465301Y-16995484D01*
X3465301Y-16890722D02*
X3474824Y-16871674D01*
X3474824Y-16871674D02*
X3493872Y-16862150D01*
X3493872Y-16862150D02*
X3522443Y-16862150D01*
X3522443Y-16862150D02*
X3541491Y-16871674D01*
X3541491Y-16871674D02*
X3551015Y-16890722D01*
X3551015Y-16890722D02*
X3551015Y-16995484D01*
X3941491Y-16785960D02*
X3770063Y-17043103D01*
X4198634Y-16795484D02*
X4217682Y-16795484D01*
X4217682Y-16795484D02*
X4236729Y-16805008D01*
X4236729Y-16805008D02*
X4246253Y-16814531D01*
X4246253Y-16814531D02*
X4255777Y-16833579D01*
X4255777Y-16833579D02*
X4265301Y-16871674D01*
X4265301Y-16871674D02*
X4265301Y-16919293D01*
X4265301Y-16919293D02*
X4255777Y-16957389D01*
X4255777Y-16957389D02*
X4246253Y-16976436D01*
X4246253Y-16976436D02*
X4236729Y-16985960D01*
X4236729Y-16985960D02*
X4217682Y-16995484D01*
X4217682Y-16995484D02*
X4198634Y-16995484D01*
X4198634Y-16995484D02*
X4179586Y-16985960D01*
X4179586Y-16985960D02*
X4170063Y-16976436D01*
X4170063Y-16976436D02*
X4160539Y-16957389D01*
X4160539Y-16957389D02*
X4151015Y-16919293D01*
X4151015Y-16919293D02*
X4151015Y-16871674D01*
X4151015Y-16871674D02*
X4160539Y-16833579D01*
X4160539Y-16833579D02*
X4170063Y-16814531D01*
X4170063Y-16814531D02*
X4179586Y-16805008D01*
X4179586Y-16805008D02*
X4198634Y-16795484D01*
X4351015Y-16976436D02*
X4360539Y-16985960D01*
X4360539Y-16985960D02*
X4351015Y-16995484D01*
X4351015Y-16995484D02*
X4341491Y-16985960D01*
X4341491Y-16985960D02*
X4351015Y-16976436D01*
X4351015Y-16976436D02*
X4351015Y-16995484D01*
X4484348Y-16795484D02*
X4503396Y-16795484D01*
X4503396Y-16795484D02*
X4522444Y-16805008D01*
X4522444Y-16805008D02*
X4531968Y-16814531D01*
X4531968Y-16814531D02*
X4541491Y-16833579D01*
X4541491Y-16833579D02*
X4551015Y-16871674D01*
X4551015Y-16871674D02*
X4551015Y-16919293D01*
X4551015Y-16919293D02*
X4541491Y-16957389D01*
X4541491Y-16957389D02*
X4531968Y-16976436D01*
X4531968Y-16976436D02*
X4522444Y-16985960D01*
X4522444Y-16985960D02*
X4503396Y-16995484D01*
X4503396Y-16995484D02*
X4484348Y-16995484D01*
X4484348Y-16995484D02*
X4465301Y-16985960D01*
X4465301Y-16985960D02*
X4455777Y-16976436D01*
X4455777Y-16976436D02*
X4446253Y-16957389D01*
X4446253Y-16957389D02*
X4436729Y-16919293D01*
X4436729Y-16919293D02*
X4436729Y-16871674D01*
X4436729Y-16871674D02*
X4446253Y-16833579D01*
X4446253Y-16833579D02*
X4455777Y-16814531D01*
X4455777Y-16814531D02*
X4465301Y-16805008D01*
X4465301Y-16805008D02*
X4484348Y-16795484D01*
X4617682Y-16795484D02*
X4751015Y-16795484D01*
X4751015Y-16795484D02*
X4665301Y-16995484D01*
X4855777Y-16881198D02*
X4836729Y-16871674D01*
X4836729Y-16871674D02*
X4827206Y-16862150D01*
X4827206Y-16862150D02*
X4817682Y-16843103D01*
X4817682Y-16843103D02*
X4817682Y-16833579D01*
X4817682Y-16833579D02*
X4827206Y-16814531D01*
X4827206Y-16814531D02*
X4836729Y-16805008D01*
X4836729Y-16805008D02*
X4855777Y-16795484D01*
X4855777Y-16795484D02*
X4893872Y-16795484D01*
X4893872Y-16795484D02*
X4912920Y-16805008D01*
X4912920Y-16805008D02*
X4922444Y-16814531D01*
X4922444Y-16814531D02*
X4931968Y-16833579D01*
X4931968Y-16833579D02*
X4931968Y-16843103D01*
X4931968Y-16843103D02*
X4922444Y-16862150D01*
X4922444Y-16862150D02*
X4912920Y-16871674D01*
X4912920Y-16871674D02*
X4893872Y-16881198D01*
X4893872Y-16881198D02*
X4855777Y-16881198D01*
X4855777Y-16881198D02*
X4836729Y-16890722D01*
X4836729Y-16890722D02*
X4827206Y-16900246D01*
X4827206Y-16900246D02*
X4817682Y-16919293D01*
X4817682Y-16919293D02*
X4817682Y-16957389D01*
X4817682Y-16957389D02*
X4827206Y-16976436D01*
X4827206Y-16976436D02*
X4836729Y-16985960D01*
X4836729Y-16985960D02*
X4855777Y-16995484D01*
X4855777Y-16995484D02*
X4893872Y-16995484D01*
X4893872Y-16995484D02*
X4912920Y-16985960D01*
X4912920Y-16985960D02*
X4922444Y-16976436D01*
X4922444Y-16976436D02*
X4931968Y-16957389D01*
X4931968Y-16957389D02*
X4931968Y-16919293D01*
X4931968Y-16919293D02*
X4922444Y-16900246D01*
X4922444Y-16900246D02*
X4912920Y-16890722D01*
X4912920Y-16890722D02*
X4893872Y-16881198D01*
X4998634Y-16795484D02*
X5131968Y-16795484D01*
X5131968Y-16795484D02*
X5046253Y-16995484D01*
X5198634Y-16795484D02*
X5198634Y-16833579D01*
X5274825Y-16795484D02*
X5274825Y-16833579D01*
X5570063Y-17071674D02*
X5560539Y-17062150D01*
X5560539Y-17062150D02*
X5541491Y-17033579D01*
X5541491Y-17033579D02*
X5531968Y-17014531D01*
X5531968Y-17014531D02*
X5522444Y-16985960D01*
X5522444Y-16985960D02*
X5512920Y-16938341D01*
X5512920Y-16938341D02*
X5512920Y-16900246D01*
X5512920Y-16900246D02*
X5522444Y-16852627D01*
X5522444Y-16852627D02*
X5531968Y-16824055D01*
X5531968Y-16824055D02*
X5541491Y-16805008D01*
X5541491Y-16805008D02*
X5560539Y-16776436D01*
X5560539Y-16776436D02*
X5570063Y-16766912D01*
X5684348Y-16795484D02*
X5703396Y-16795484D01*
X5703396Y-16795484D02*
X5722444Y-16805008D01*
X5722444Y-16805008D02*
X5731968Y-16814531D01*
X5731968Y-16814531D02*
X5741491Y-16833579D01*
X5741491Y-16833579D02*
X5751015Y-16871674D01*
X5751015Y-16871674D02*
X5751015Y-16919293D01*
X5751015Y-16919293D02*
X5741491Y-16957389D01*
X5741491Y-16957389D02*
X5731968Y-16976436D01*
X5731968Y-16976436D02*
X5722444Y-16985960D01*
X5722444Y-16985960D02*
X5703396Y-16995484D01*
X5703396Y-16995484D02*
X5684348Y-16995484D01*
X5684348Y-16995484D02*
X5665301Y-16985960D01*
X5665301Y-16985960D02*
X5655777Y-16976436D01*
X5655777Y-16976436D02*
X5646253Y-16957389D01*
X5646253Y-16957389D02*
X5636729Y-16919293D01*
X5636729Y-16919293D02*
X5636729Y-16871674D01*
X5636729Y-16871674D02*
X5646253Y-16833579D01*
X5646253Y-16833579D02*
X5655777Y-16814531D01*
X5655777Y-16814531D02*
X5665301Y-16805008D01*
X5665301Y-16805008D02*
X5684348Y-16795484D01*
X5989110Y-16995484D02*
X5989110Y-16795484D01*
X6074825Y-16995484D02*
X6074825Y-16890722D01*
X6074825Y-16890722D02*
X6065301Y-16871674D01*
X6065301Y-16871674D02*
X6046253Y-16862150D01*
X6046253Y-16862150D02*
X6017682Y-16862150D01*
X6017682Y-16862150D02*
X5998634Y-16871674D01*
X5998634Y-16871674D02*
X5989110Y-16881198D01*
X6198634Y-16995484D02*
X6179587Y-16985960D01*
X6179587Y-16985960D02*
X6170063Y-16976436D01*
X6170063Y-16976436D02*
X6160539Y-16957389D01*
X6160539Y-16957389D02*
X6160539Y-16900246D01*
X6160539Y-16900246D02*
X6170063Y-16881198D01*
X6170063Y-16881198D02*
X6179587Y-16871674D01*
X6179587Y-16871674D02*
X6198634Y-16862150D01*
X6198634Y-16862150D02*
X6227206Y-16862150D01*
X6227206Y-16862150D02*
X6246253Y-16871674D01*
X6246253Y-16871674D02*
X6255777Y-16881198D01*
X6255777Y-16881198D02*
X6265301Y-16900246D01*
X6265301Y-16900246D02*
X6265301Y-16957389D01*
X6265301Y-16957389D02*
X6255777Y-16976436D01*
X6255777Y-16976436D02*
X6246253Y-16985960D01*
X6246253Y-16985960D02*
X6227206Y-16995484D01*
X6227206Y-16995484D02*
X6198634Y-16995484D01*
X6379587Y-16995484D02*
X6360539Y-16985960D01*
X6360539Y-16985960D02*
X6351015Y-16966912D01*
X6351015Y-16966912D02*
X6351015Y-16795484D01*
X6531968Y-16985960D02*
X6512920Y-16995484D01*
X6512920Y-16995484D02*
X6474825Y-16995484D01*
X6474825Y-16995484D02*
X6455777Y-16985960D01*
X6455777Y-16985960D02*
X6446253Y-16966912D01*
X6446253Y-16966912D02*
X6446253Y-16890722D01*
X6446253Y-16890722D02*
X6455777Y-16871674D01*
X6455777Y-16871674D02*
X6474825Y-16862150D01*
X6474825Y-16862150D02*
X6512920Y-16862150D01*
X6512920Y-16862150D02*
X6531968Y-16871674D01*
X6531968Y-16871674D02*
X6541491Y-16890722D01*
X6541491Y-16890722D02*
X6541491Y-16909770D01*
X6541491Y-16909770D02*
X6446253Y-16928817D01*
X6617682Y-16985960D02*
X6636730Y-16995484D01*
X6636730Y-16995484D02*
X6674825Y-16995484D01*
X6674825Y-16995484D02*
X6693872Y-16985960D01*
X6693872Y-16985960D02*
X6703396Y-16966912D01*
X6703396Y-16966912D02*
X6703396Y-16957389D01*
X6703396Y-16957389D02*
X6693872Y-16938341D01*
X6693872Y-16938341D02*
X6674825Y-16928817D01*
X6674825Y-16928817D02*
X6646253Y-16928817D01*
X6646253Y-16928817D02*
X6627206Y-16919293D01*
X6627206Y-16919293D02*
X6617682Y-16900246D01*
X6617682Y-16900246D02*
X6617682Y-16890722D01*
X6617682Y-16890722D02*
X6627206Y-16871674D01*
X6627206Y-16871674D02*
X6646253Y-16862150D01*
X6646253Y-16862150D02*
X6674825Y-16862150D01*
X6674825Y-16862150D02*
X6693872Y-16871674D01*
X6941492Y-16919293D02*
X7093873Y-16919293D01*
X7017682Y-16995484D02*
X7017682Y-16843103D01*
X7427206Y-16862150D02*
X7427206Y-16995484D01*
X7379587Y-16785960D02*
X7331968Y-16928817D01*
X7331968Y-16928817D02*
X7455777Y-16928817D01*
X7674825Y-16985960D02*
X7693873Y-16995484D01*
X7693873Y-16995484D02*
X7731968Y-16995484D01*
X7731968Y-16995484D02*
X7751015Y-16985960D01*
X7751015Y-16985960D02*
X7760539Y-16966912D01*
X7760539Y-16966912D02*
X7760539Y-16957389D01*
X7760539Y-16957389D02*
X7751015Y-16938341D01*
X7751015Y-16938341D02*
X7731968Y-16928817D01*
X7731968Y-16928817D02*
X7703396Y-16928817D01*
X7703396Y-16928817D02*
X7684349Y-16919293D01*
X7684349Y-16919293D02*
X7674825Y-16900246D01*
X7674825Y-16900246D02*
X7674825Y-16890722D01*
X7674825Y-16890722D02*
X7684349Y-16871674D01*
X7684349Y-16871674D02*
X7703396Y-16862150D01*
X7703396Y-16862150D02*
X7731968Y-16862150D01*
X7731968Y-16862150D02*
X7751015Y-16871674D01*
X7874825Y-16995484D02*
X7855777Y-16985960D01*
X7855777Y-16985960D02*
X7846254Y-16966912D01*
X7846254Y-16966912D02*
X7846254Y-16795484D01*
X7979587Y-16995484D02*
X7960539Y-16985960D01*
X7960539Y-16985960D02*
X7951015Y-16976436D01*
X7951015Y-16976436D02*
X7941492Y-16957389D01*
X7941492Y-16957389D02*
X7941492Y-16900246D01*
X7941492Y-16900246D02*
X7951015Y-16881198D01*
X7951015Y-16881198D02*
X7960539Y-16871674D01*
X7960539Y-16871674D02*
X7979587Y-16862150D01*
X7979587Y-16862150D02*
X8008158Y-16862150D01*
X8008158Y-16862150D02*
X8027206Y-16871674D01*
X8027206Y-16871674D02*
X8036730Y-16881198D01*
X8036730Y-16881198D02*
X8046254Y-16900246D01*
X8046254Y-16900246D02*
X8046254Y-16957389D01*
X8046254Y-16957389D02*
X8036730Y-16976436D01*
X8036730Y-16976436D02*
X8027206Y-16985960D01*
X8027206Y-16985960D02*
X8008158Y-16995484D01*
X8008158Y-16995484D02*
X7979587Y-16995484D01*
X8103396Y-16862150D02*
X8179587Y-16862150D01*
X8131968Y-16795484D02*
X8131968Y-16966912D01*
X8131968Y-16966912D02*
X8141492Y-16985960D01*
X8141492Y-16985960D02*
X8160539Y-16995484D01*
X8160539Y-16995484D02*
X8179587Y-16995484D01*
X8236730Y-16985960D02*
X8255777Y-16995484D01*
X8255777Y-16995484D02*
X8293873Y-16995484D01*
X8293873Y-16995484D02*
X8312920Y-16985960D01*
X8312920Y-16985960D02*
X8322444Y-16966912D01*
X8322444Y-16966912D02*
X8322444Y-16957389D01*
X8322444Y-16957389D02*
X8312920Y-16938341D01*
X8312920Y-16938341D02*
X8293873Y-16928817D01*
X8293873Y-16928817D02*
X8265301Y-16928817D01*
X8265301Y-16928817D02*
X8246254Y-16919293D01*
X8246254Y-16919293D02*
X8236730Y-16900246D01*
X8236730Y-16900246D02*
X8236730Y-16890722D01*
X8236730Y-16890722D02*
X8246254Y-16871674D01*
X8246254Y-16871674D02*
X8265301Y-16862150D01*
X8265301Y-16862150D02*
X8293873Y-16862150D01*
X8293873Y-16862150D02*
X8312920Y-16871674D01*
X8389111Y-17071674D02*
X8398635Y-17062150D01*
X8398635Y-17062150D02*
X8417682Y-17033579D01*
X8417682Y-17033579D02*
X8427206Y-17014531D01*
X8427206Y-17014531D02*
X8436730Y-16985960D01*
X8436730Y-16985960D02*
X8446254Y-16938341D01*
X8446254Y-16938341D02*
X8446254Y-16900246D01*
X8446254Y-16900246D02*
X8436730Y-16852627D01*
X8436730Y-16852627D02*
X8427206Y-16824055D01*
X8427206Y-16824055D02*
X8417682Y-16805008D01*
X8417682Y-16805008D02*
X8398635Y-16776436D01*
X8398635Y-16776436D02*
X8389111Y-16766912D01*
M02*
