%TF.GenerationSoftware,KiCad,Pcbnew,7.0.10*%
%TF.CreationDate,2024-01-17T17:08:55-05:00*%
%TF.ProjectId,Telstar Alpha,54656c73-7461-4722-9041-6c7068612e6b,0.1*%
%TF.SameCoordinates,Original*%
%TF.FileFunction,Soldermask,Top*%
%TF.FilePolarity,Negative*%
%FSLAX46Y46*%
G04 Gerber Fmt 4.6, Leading zero omitted, Abs format (unit mm)*
G04 Created by KiCad (PCBNEW 7.0.10) date 2024-01-17 17:08:55*
%MOMM*%
%LPD*%
G01*
G04 APERTURE LIST*
G04 Aperture macros list*
%AMRoundRect*
0 Rectangle with rounded corners*
0 $1 Rounding radius*
0 $2 $3 $4 $5 $6 $7 $8 $9 X,Y pos of 4 corners*
0 Add a 4 corners polygon primitive as box body*
4,1,4,$2,$3,$4,$5,$6,$7,$8,$9,$2,$3,0*
0 Add four circle primitives for the rounded corners*
1,1,$1+$1,$2,$3*
1,1,$1+$1,$4,$5*
1,1,$1+$1,$6,$7*
1,1,$1+$1,$8,$9*
0 Add four rect primitives between the rounded corners*
20,1,$1+$1,$2,$3,$4,$5,0*
20,1,$1+$1,$4,$5,$6,$7,0*
20,1,$1+$1,$6,$7,$8,$9,0*
20,1,$1+$1,$8,$9,$2,$3,0*%
G04 Aperture macros list end*
%ADD10C,0.150000*%
%ADD11O,3.500000X3.500000*%
%ADD12R,1.905000X2.000000*%
%ADD13O,1.905000X2.000000*%
%ADD14C,1.600000*%
%ADD15O,1.600000X1.600000*%
%ADD16R,3.500000X3.500000*%
%ADD17RoundRect,0.750000X-1.000000X0.750000X-1.000000X-0.750000X1.000000X-0.750000X1.000000X0.750000X0*%
%ADD18RoundRect,0.875000X-0.875000X0.875000X-0.875000X-0.875000X0.875000X-0.875000X0.875000X0.875000X0*%
%ADD19C,4.230000*%
%ADD20C,4.035000*%
%ADD21C,2.865000*%
%ADD22R,1.600000X2.400000*%
%ADD23O,1.600000X2.400000*%
%ADD24R,2.200000X2.200000*%
%ADD25O,2.200000X2.200000*%
%ADD26RoundRect,0.562500X-0.176777X-0.972272X0.972272X0.176777X0.176777X0.972272X-0.972272X-0.176777X0*%
%ADD27RoundRect,0.750000X-2.121320X1.060660X1.060660X-2.121320X2.121320X-1.060660X-1.060660X2.121320X0*%
%ADD28R,1.500000X1.050000*%
%ADD29O,1.500000X1.050000*%
%ADD30RoundRect,0.250000X-0.550000X-0.550000X0.550000X-0.550000X0.550000X0.550000X-0.550000X0.550000X0*%
%ADD31R,1.600000X1.600000*%
%ADD32R,1.050000X1.500000*%
%ADD33O,1.050000X1.500000*%
%ADD34R,1.700000X1.700000*%
%ADD35O,1.700000X1.700000*%
%ADD36C,4.000000*%
%ADD37C,1.500000*%
%ADD38RoundRect,0.400000X-0.600000X-1.600000X0.600000X-1.600000X0.600000X1.600000X-0.600000X1.600000X0*%
%ADD39R,2.400000X1.600000*%
%ADD40O,2.400000X1.600000*%
%ADD41C,2.000000*%
%ADD42RoundRect,0.562500X-0.972272X0.176777X0.176777X-0.972272X0.972272X-0.176777X-0.176777X0.972272X0*%
%ADD43RoundRect,0.750000X1.060660X2.121320X-2.121320X-1.060660X-1.060660X-2.121320X2.121320X1.060660X0*%
G04 APERTURE END LIST*
D10*
X117200000Y-45000000D02*
X126800000Y-45000000D01*
X126800000Y-51000000D01*
X117200000Y-51000000D01*
X117200000Y-45000000D01*
G36*
X117200000Y-45000000D02*
G01*
X126800000Y-45000000D01*
X126800000Y-51000000D01*
X117200000Y-51000000D01*
X117200000Y-45000000D01*
G37*
D11*
%TO.C,U4*%
X122000000Y-47570000D03*
D12*
X119460000Y-64230000D03*
D13*
X122000000Y-64230000D03*
X124540000Y-64230000D03*
%TD*%
D14*
%TO.C,R10*%
X227260000Y-93750000D03*
D15*
X242500000Y-93750000D03*
%TD*%
D16*
%TO.C,J2*%
X233750000Y-30250000D03*
D17*
X233750000Y-24250000D03*
D18*
X229050000Y-27250000D03*
%TD*%
D14*
%TO.C,R3*%
X52380000Y-113500000D03*
D15*
X67620000Y-113500000D03*
%TD*%
D19*
%TO.C,J1*%
X124000000Y-85480000D03*
D20*
X115300000Y-85480000D03*
%TD*%
D14*
%TO.C,R5*%
X137880000Y-79500000D03*
D15*
X153120000Y-79500000D03*
%TD*%
D21*
%TO.C,SW4*%
X121250000Y-134390000D03*
X121250000Y-125750000D03*
X129170000Y-134390000D03*
X129170000Y-125750000D03*
X137090000Y-134390000D03*
X137090000Y-125750000D03*
X145010000Y-134390000D03*
X145010000Y-125750000D03*
%TD*%
%TO.C,SW2*%
X117320000Y-107390000D03*
X117320000Y-98750000D03*
X125240000Y-107390000D03*
X125240000Y-98750000D03*
X133160000Y-107390000D03*
X133160000Y-98750000D03*
X141080000Y-107390000D03*
X141080000Y-98750000D03*
X149000000Y-107390000D03*
X149000000Y-98750000D03*
%TD*%
D14*
%TO.C,R12*%
X224120000Y-89000000D03*
D15*
X208880000Y-89000000D03*
%TD*%
D22*
%TO.C,U1*%
X168340000Y-82250000D03*
D23*
X170880000Y-82250000D03*
X173420000Y-82250000D03*
X175960000Y-82250000D03*
X178500000Y-82250000D03*
X181040000Y-82250000D03*
X183580000Y-82250000D03*
X183580000Y-74630000D03*
X181040000Y-74630000D03*
X178500000Y-74630000D03*
X175960000Y-74630000D03*
X173420000Y-74630000D03*
X170880000Y-74630000D03*
X168340000Y-74630000D03*
%TD*%
D24*
%TO.C,D3*%
X233920000Y-42750000D03*
D25*
X244080000Y-42750000D03*
%TD*%
D26*
%TO.C,RV2*%
X219948676Y-111641064D03*
X224544870Y-107044870D03*
X229141064Y-102448676D03*
D27*
X227514719Y-126985281D03*
X244485281Y-110014719D03*
%TD*%
D28*
%TO.C,Q2*%
X230000000Y-82750000D03*
D29*
X230000000Y-81480000D03*
X230000000Y-80210000D03*
%TD*%
D30*
%TO.C,J3*%
X244000000Y-29500000D03*
%TD*%
D31*
%TO.C,D2*%
X96940000Y-104750000D03*
D15*
X104560000Y-104750000D03*
%TD*%
D32*
%TO.C,Q1*%
X131480000Y-85610000D03*
D33*
X132750000Y-85610000D03*
X134020000Y-85610000D03*
%TD*%
D30*
%TO.C,J4*%
X24500000Y-29500000D03*
%TD*%
D14*
%TO.C,R1*%
X137880000Y-66000000D03*
D15*
X153120000Y-66000000D03*
%TD*%
D34*
%TO.C,J5*%
X126750000Y-76000000D03*
D35*
X126750000Y-73460000D03*
%TD*%
D36*
%TO.C,SW3*%
X181500000Y-110050000D03*
X178100000Y-118150000D03*
X181500000Y-118150000D03*
X181500000Y-126250000D03*
%TD*%
D14*
%TO.C,R11*%
X224120000Y-93750000D03*
D15*
X208880000Y-93750000D03*
%TD*%
D37*
%TO.C,Y1*%
X198550000Y-102850000D03*
X203450000Y-102850000D03*
%TD*%
D14*
%TO.C,R9*%
X52380000Y-118250000D03*
D15*
X67620000Y-118250000D03*
%TD*%
D38*
%TO.C,SW1*%
X88000000Y-118500000D03*
X91000000Y-118500000D03*
%TD*%
D39*
%TO.C,U3*%
X196130000Y-78750000D03*
D40*
X196130000Y-81290000D03*
X196130000Y-83830000D03*
X196130000Y-86370000D03*
X196130000Y-88910000D03*
X196130000Y-91450000D03*
X196130000Y-93990000D03*
X203750000Y-93990000D03*
X203750000Y-91450000D03*
X203750000Y-88910000D03*
X203750000Y-86370000D03*
X203750000Y-83830000D03*
X203750000Y-81290000D03*
X203750000Y-78750000D03*
%TD*%
D34*
%TO.C,LS1*%
X237500000Y-82525000D03*
D35*
X237500000Y-79985000D03*
%TD*%
D14*
%TO.C,R4*%
X137880000Y-75000000D03*
D15*
X153120000Y-75000000D03*
%TD*%
D41*
%TO.C,C4*%
X219750000Y-74000000D03*
X212250000Y-74000000D03*
%TD*%
D14*
%TO.C,R7*%
X137880000Y-88750000D03*
D15*
X153120000Y-88750000D03*
%TD*%
D31*
%TO.C,C5*%
X165750000Y-118250000D03*
D14*
X163250000Y-118250000D03*
%TD*%
D39*
%TO.C,U2*%
X168340000Y-30380000D03*
D40*
X168340000Y-32920000D03*
X168340000Y-35460000D03*
X168340000Y-38000000D03*
X168340000Y-40540000D03*
X168340000Y-43080000D03*
X168340000Y-45620000D03*
X168340000Y-48160000D03*
X168340000Y-50700000D03*
X168340000Y-53240000D03*
X168340000Y-55780000D03*
X168340000Y-58320000D03*
X168340000Y-60860000D03*
X168340000Y-63400000D03*
X183580000Y-63400000D03*
X183580000Y-60860000D03*
X183580000Y-58320000D03*
X183580000Y-55780000D03*
X183580000Y-53240000D03*
X183580000Y-50700000D03*
X183580000Y-48160000D03*
X183580000Y-45620000D03*
X183580000Y-43080000D03*
X183580000Y-40540000D03*
X183580000Y-38000000D03*
X183580000Y-35460000D03*
X183580000Y-32920000D03*
X183580000Y-30380000D03*
%TD*%
D14*
%TO.C,R2*%
X137880000Y-70500000D03*
D15*
X153120000Y-70500000D03*
%TD*%
D41*
%TO.C,C3*%
X184250000Y-92750000D03*
X191750000Y-92750000D03*
%TD*%
D14*
%TO.C,R13*%
X208760000Y-79500000D03*
D15*
X224000000Y-79500000D03*
%TD*%
D41*
%TO.C,C2*%
X221000000Y-134000000D03*
X213500000Y-134000000D03*
%TD*%
D14*
%TO.C,R14*%
X208760000Y-84000000D03*
D15*
X224000000Y-84000000D03*
%TD*%
D14*
%TO.C,R8*%
X227260000Y-89000000D03*
D15*
X242500000Y-89000000D03*
%TD*%
D31*
%TO.C,D1*%
X96940000Y-109000000D03*
D15*
X104560000Y-109000000D03*
%TD*%
D41*
%TO.C,C1*%
X48500000Y-125750000D03*
X56000000Y-125750000D03*
%TD*%
D14*
%TO.C,R6*%
X137880000Y-84000000D03*
D15*
X153120000Y-84000000D03*
%TD*%
D42*
%TO.C,RV1*%
X38858936Y-102448676D03*
X43455130Y-107044870D03*
X48051324Y-111641064D03*
D43*
X23514719Y-110014719D03*
X40485281Y-126985281D03*
%TD*%
M02*
