M48
; DRILL file {KiCad 7.0.10} date Wed Jan 17 17:08:59 2024
; FORMAT={-:-/ absolute / inch / decimal}
; #@! TF.CreationDate,2024-01-17T17:08:59-05:00
; #@! TF.GenerationSoftware,Kicad,Pcbnew,7.0.10
; #@! TF.FileFunction,Plated,1,2,PTH
FMAT,2
INCH
; #@! TA.AperFunction,Plated,PTH,ViaDrill
T1C0.0157
; #@! TA.AperFunction,Plated,PTH,ComponentDrill
T2C0.0236
; #@! TA.AperFunction,Plated,PTH,ComponentDrill
T3C0.0295
; #@! TA.AperFunction,Plated,PTH,ComponentDrill
T4C0.0315
; #@! TA.AperFunction,Plated,PTH,ComponentDrill
T5C0.0394
; #@! TA.AperFunction,Plated,PTH,ComponentDrill
T6C0.0433
; #@! TA.AperFunction,Plated,PTH,ComponentDrill
T7C0.0472
; #@! TA.AperFunction,Plated,PTH,ComponentDrill
T8C0.0492
; #@! TA.AperFunction,Plated,PTH,ComponentDrill
T9C0.0752
; #@! TA.AperFunction,Plated,PTH,ComponentDrill
T10C0.1059
; #@! TA.AperFunction,Plated,PTH,ComponentDrill
T11C0.1110
%
G90
G05
T1
X6.7165Y-2.6929
X6.9764Y-2.3228
X7.0363Y-2.1859
X7.0758Y-2.3593
X7.1181Y-2.4803
T2
X0.9646Y-1.1614
X9.6063Y-1.1614
T3
X5.1764Y-3.3705
X5.2264Y-3.3705
X5.2764Y-3.3705
X9.0551Y-3.1579
X9.0551Y-3.2079
X9.0551Y-3.2579
T4
X2.0622Y-4.4685
X2.0622Y-4.6555
X2.6622Y-4.4685
X2.6622Y-4.6555
X3.8165Y-4.124
X3.8165Y-4.2913
X4.1165Y-4.124
X4.1165Y-4.2913
X5.4283Y-2.5984
X5.4283Y-2.7756
X5.4283Y-2.9528
X5.4283Y-3.1299
X5.4283Y-3.3071
X5.4283Y-3.4941
X6.0283Y-2.5984
X6.0283Y-2.7756
X6.0283Y-2.9528
X6.0283Y-3.1299
X6.0283Y-3.3071
X6.0283Y-3.4941
X6.4272Y-4.6555
X6.5256Y-4.6555
X6.6276Y-1.1961
X6.6276Y-1.2961
X6.6276Y-1.3961
X6.6276Y-1.4961
X6.6276Y-1.5961
X6.6276Y-1.6961
X6.6276Y-1.7961
X6.6276Y-1.8961
X6.6276Y-1.9961
X6.6276Y-2.0961
X6.6276Y-2.1961
X6.6276Y-2.2961
X6.6276Y-2.3961
X6.6276Y-2.4961
X6.6276Y-2.9382
X6.6276Y-3.2382
X6.7276Y-2.9382
X6.7276Y-3.2382
X6.8276Y-2.9382
X6.8276Y-3.2382
X6.9276Y-2.9382
X6.9276Y-3.2382
X7.0276Y-2.9382
X7.0276Y-3.2382
X7.1276Y-2.9382
X7.1276Y-3.2382
X7.2276Y-1.1961
X7.2276Y-1.2961
X7.2276Y-1.3961
X7.2276Y-1.4961
X7.2276Y-1.5961
X7.2276Y-1.6961
X7.2276Y-1.7961
X7.2276Y-1.8961
X7.2276Y-1.9961
X7.2276Y-2.0961
X7.2276Y-2.1961
X7.2276Y-2.2961
X7.2276Y-2.3961
X7.2276Y-2.4961
X7.2276Y-2.9382
X7.2276Y-3.2382
X7.7217Y-3.1004
X7.7217Y-3.2004
X7.7217Y-3.3004
X7.7217Y-3.4004
X7.7217Y-3.5004
X7.7217Y-3.6004
X7.7217Y-3.7004
X7.8169Y-4.0492
X8.0098Y-4.0492
X8.0217Y-3.1004
X8.0217Y-3.2004
X8.0217Y-3.3004
X8.0217Y-3.4004
X8.0217Y-3.5004
X8.0217Y-3.6004
X8.0217Y-3.7004
X8.2189Y-3.1299
X8.2189Y-3.3071
X8.2236Y-3.5039
X8.2236Y-3.6909
X8.8189Y-3.1299
X8.8189Y-3.3071
X8.8236Y-3.5039
X8.8236Y-3.6909
X8.9472Y-3.5039
X8.9472Y-3.6909
X9.5472Y-3.5039
X9.5472Y-3.6909
T5
X1.9094Y-4.9508
X2.2047Y-4.9508
X4.9902Y-2.8921
X4.9902Y-2.9921
X7.2539Y-3.6516
X7.5492Y-3.6516
X8.3563Y-2.9134
X8.4055Y-5.2756
X8.6516Y-2.9134
X8.7008Y-5.2756
X9.3504Y-3.149
X9.3504Y-3.249
T6
X4.7031Y-2.5287
X4.8031Y-2.5287
X4.9031Y-2.5287
X9.2094Y-1.6831
X9.6094Y-1.6831
T9
X4.6189Y-3.8878
X4.6189Y-4.228
X4.7736Y-4.9508
X4.7736Y-5.2909
X4.9307Y-3.8878
X4.9307Y-4.228
X5.0854Y-4.9508
X5.0854Y-5.2909
X5.2425Y-3.8878
X5.2425Y-4.228
X5.3972Y-4.9508
X5.3972Y-5.2909
X5.5543Y-3.8878
X5.5543Y-4.228
X5.7091Y-4.9508
X5.7091Y-5.2909
X5.8661Y-3.8878
X5.8661Y-4.228
T10
X4.5394Y-3.3654
T11
X4.8819Y-3.3654
T5
G00X1.516Y-4.0195
M15
G01X1.5438Y-4.0473
M16
G05
G00X1.6969Y-4.2004
M15
G01X1.7248Y-4.2283
M16
G05
G00X1.8779Y-4.3814
M15
G01X1.9057Y-4.4092
M16
G05
G00X3.4646Y-4.6555
M15
G01X3.4646Y-4.6752
M16
G05
G00X3.5827Y-4.6555
M15
G01X3.5827Y-4.6752
M16
G05
G00X8.6455Y-4.4092
M15
G01X8.6733Y-4.3814
M16
G05
G00X8.8264Y-4.2283
M15
G01X8.8543Y-4.2004
M16
G05
G00X9.0177Y-1.0335
M15
G01X9.0177Y-1.1122
M16
G05
G00X9.0074Y-4.0473
M15
G01X9.0352Y-4.0195
M16
G05
G00X9.2421Y-0.9547
M15
G01X9.1634Y-0.9547
M16
G05
G00X9.2421Y-1.1909
M15
G01X9.1634Y-1.1909
M16
G05
T7
G00X0.9508Y-4.3062
M15
G01X0.9007Y-4.3563
M16
G05
G00X1.619Y-4.9744
M15
G01X1.5689Y-5.0245
M16
G05
G00X8.9322Y-4.9744
M15
G01X8.9823Y-5.0245
M16
G05
G00X9.6003Y-4.3062
M15
G01X9.6505Y-4.3563
M16
G05
T8
G00X7.0118Y-4.6417
M15
G01X7.0118Y-4.6614
M16
G05
G00X7.1457Y-4.3228
M15
G01X7.1457Y-4.3425
M16
G05
G00X7.1457Y-4.6417
M15
G01X7.1457Y-4.6614
M16
G05
G00X7.1457Y-4.9606
M15
G01X7.1457Y-4.9803
M16
G05
M30
