%TF.GenerationSoftware,KiCad,Pcbnew,7.0.10*%
%TF.CreationDate,2024-02-05T13:41:24-05:00*%
%TF.ProjectId,Telstar Alpha,54656c73-7461-4722-9041-6c7068612e6b,0.1*%
%TF.SameCoordinates,Original*%
%TF.FileFunction,Soldermask,Top*%
%TF.FilePolarity,Negative*%
%FSLAX46Y46*%
G04 Gerber Fmt 4.6, Leading zero omitted, Abs format (unit mm)*
G04 Created by KiCad (PCBNEW 7.0.10) date 2024-02-05 13:41:24*
%MOMM*%
%LPD*%
G01*
G04 APERTURE LIST*
G04 Aperture macros list*
%AMRoundRect*
0 Rectangle with rounded corners*
0 $1 Rounding radius*
0 $2 $3 $4 $5 $6 $7 $8 $9 X,Y pos of 4 corners*
0 Add a 4 corners polygon primitive as box body*
4,1,4,$2,$3,$4,$5,$6,$7,$8,$9,$2,$3,0*
0 Add four circle primitives for the rounded corners*
1,1,$1+$1,$2,$3*
1,1,$1+$1,$4,$5*
1,1,$1+$1,$6,$7*
1,1,$1+$1,$8,$9*
0 Add four rect primitives between the rounded corners*
20,1,$1+$1,$2,$3,$4,$5,0*
20,1,$1+$1,$4,$5,$6,$7,0*
20,1,$1+$1,$6,$7,$8,$9,0*
20,1,$1+$1,$8,$9,$2,$3,0*%
G04 Aperture macros list end*
%ADD10C,0.150000*%
%ADD11RoundRect,0.500000X-0.750000X-2.000000X0.750000X-2.000000X0.750000X2.000000X-0.750000X2.000000X0*%
%ADD12RoundRect,0.562500X-0.176777X-0.972272X0.972272X0.176777X0.176777X0.972272X-0.972272X-0.176777X0*%
%ADD13RoundRect,1.000000X-2.828427X1.414214X1.414214X-2.828427X2.828427X-1.414214X-1.414214X2.828427X0*%
%ADD14RoundRect,0.562500X-0.972272X0.176777X0.176777X-0.972272X0.972272X-0.176777X-0.176777X0.972272X0*%
%ADD15RoundRect,1.000000X1.414214X2.828427X-2.828427X-1.414214X-1.414214X-2.828427X2.828427X1.414214X0*%
%ADD16O,2.154000X4.104000*%
%ADD17O,3.604000X1.904000*%
%ADD18R,2.400000X1.600000*%
%ADD19O,2.400000X1.600000*%
%ADD20C,1.600000*%
%ADD21O,1.600000X1.600000*%
%ADD22RoundRect,0.250001X-0.899999X-0.899999X0.899999X-0.899999X0.899999X0.899999X-0.899999X0.899999X0*%
%ADD23C,2.000000*%
%ADD24R,3.500000X3.500000*%
%ADD25RoundRect,0.750000X-1.000000X0.750000X-1.000000X-0.750000X1.000000X-0.750000X1.000000X0.750000X0*%
%ADD26RoundRect,0.875000X-0.875000X0.875000X-0.875000X-0.875000X0.875000X-0.875000X0.875000X0.875000X0*%
%ADD27C,2.865000*%
%ADD28O,3.500000X3.500000*%
%ADD29R,1.905000X2.000000*%
%ADD30O,1.905000X2.000000*%
%ADD31R,1.600000X2.400000*%
%ADD32O,1.600000X2.400000*%
%ADD33R,2.200000X2.200000*%
%ADD34O,2.200000X2.200000*%
%ADD35R,1.500000X1.050000*%
%ADD36O,1.500000X1.050000*%
%ADD37R,1.600000X1.600000*%
%ADD38R,1.050000X1.500000*%
%ADD39O,1.050000X1.500000*%
%ADD40R,1.700000X1.700000*%
%ADD41O,1.700000X1.700000*%
%ADD42C,4.000000*%
%ADD43C,1.500000*%
G04 APERTURE END LIST*
D10*
X117282000Y-45146000D02*
X126680000Y-45146000D01*
X126680000Y-50988000D01*
X117282000Y-50988000D01*
X117282000Y-45146000D01*
G36*
X117282000Y-45146000D02*
G01*
X126680000Y-45146000D01*
X126680000Y-50988000D01*
X117282000Y-50988000D01*
X117282000Y-45146000D01*
G37*
D11*
%TO.C,SW1*%
X87595000Y-118500000D03*
X91405000Y-118500000D03*
%TD*%
D12*
%TO.C,RV2*%
X219948676Y-111641064D03*
X224544870Y-107044870D03*
X229141064Y-102448676D03*
D13*
X230162834Y-127031243D03*
X244531243Y-112662834D03*
%TD*%
D14*
%TO.C,RV1*%
X38858936Y-102448676D03*
X43455130Y-107044870D03*
X48051324Y-111641064D03*
D15*
X23468757Y-112662834D03*
X37837166Y-127031243D03*
%TD*%
D16*
%TO.C,J5*%
X121650000Y-85544000D03*
D17*
X126150000Y-85544000D03*
%TD*%
D18*
%TO.C,U3*%
X191100000Y-80575000D03*
D19*
X191100000Y-83115000D03*
X191100000Y-85655000D03*
X191100000Y-88195000D03*
X191100000Y-90735000D03*
X191100000Y-93275000D03*
X191100000Y-95815000D03*
X198720000Y-95815000D03*
X198720000Y-93275000D03*
X198720000Y-90735000D03*
X198720000Y-88195000D03*
X198720000Y-85655000D03*
X198720000Y-83115000D03*
X198720000Y-80575000D03*
%TD*%
D20*
%TO.C,R4*%
X208722000Y-93660000D03*
D21*
X223962000Y-93660000D03*
%TD*%
D20*
%TO.C,R3*%
X208722000Y-88834000D03*
D21*
X223962000Y-88834000D03*
%TD*%
D22*
%TO.C,J4*%
X244000000Y-29500000D03*
%TD*%
%TO.C,J3*%
X24500000Y-29500000D03*
%TD*%
D23*
%TO.C,C4*%
X191510000Y-134300000D03*
X199010000Y-134300000D03*
%TD*%
D20*
%TO.C,R7*%
X227260000Y-93750000D03*
D21*
X242500000Y-93750000D03*
%TD*%
D24*
%TO.C,J2*%
X233750000Y-30250000D03*
D25*
X233750000Y-24250000D03*
D26*
X229050000Y-27250000D03*
%TD*%
D20*
%TO.C,R5*%
X59370000Y-111440000D03*
D21*
X74610000Y-111440000D03*
%TD*%
D20*
%TO.C,R10*%
X137880000Y-79500000D03*
D21*
X153120000Y-79500000D03*
%TD*%
D27*
%TO.C,SW2*%
X121250000Y-134390000D03*
X121250000Y-125750000D03*
X129170000Y-134390000D03*
X129170000Y-125750000D03*
X137090000Y-134390000D03*
X137090000Y-125750000D03*
X145010000Y-134390000D03*
X145010000Y-125750000D03*
%TD*%
%TO.C,SW3*%
X117320000Y-107390000D03*
X117320000Y-98750000D03*
X125240000Y-107390000D03*
X125240000Y-98750000D03*
X133160000Y-107390000D03*
X133160000Y-98750000D03*
X141080000Y-107390000D03*
X141080000Y-98750000D03*
X149000000Y-107390000D03*
X149000000Y-98750000D03*
%TD*%
D28*
%TO.C,U1*%
X122000000Y-47570000D03*
D29*
X119460000Y-64230000D03*
D30*
X122000000Y-64230000D03*
X124540000Y-64230000D03*
%TD*%
D31*
%TO.C,U4*%
X168340000Y-82250000D03*
D32*
X170880000Y-82250000D03*
X173420000Y-82250000D03*
X175960000Y-82250000D03*
X178500000Y-82250000D03*
X181040000Y-82250000D03*
X183580000Y-82250000D03*
X183580000Y-74630000D03*
X181040000Y-74630000D03*
X178500000Y-74630000D03*
X175960000Y-74630000D03*
X173420000Y-74630000D03*
X170880000Y-74630000D03*
X168340000Y-74630000D03*
%TD*%
D33*
%TO.C,D1*%
X233920000Y-42750000D03*
D34*
X244080000Y-42750000D03*
%TD*%
D35*
%TO.C,Q1*%
X230000000Y-82750000D03*
D36*
X230000000Y-81480000D03*
X230000000Y-80210000D03*
%TD*%
D37*
%TO.C,D3*%
X96940000Y-104750000D03*
D21*
X104560000Y-104750000D03*
%TD*%
D38*
%TO.C,Q2*%
X131480000Y-85610000D03*
D39*
X132750000Y-85610000D03*
X134020000Y-85610000D03*
%TD*%
D20*
%TO.C,R9*%
X137880000Y-66000000D03*
D21*
X153120000Y-66000000D03*
%TD*%
D40*
%TO.C,J1*%
X126750000Y-76000000D03*
D41*
X126750000Y-73460000D03*
%TD*%
D42*
%TO.C,SW4*%
X181500000Y-110050000D03*
X178100000Y-118150000D03*
X181500000Y-118150000D03*
X181500000Y-126250000D03*
%TD*%
D43*
%TO.C,Y1*%
X197770000Y-111350000D03*
X197770000Y-106450000D03*
%TD*%
D20*
%TO.C,R8*%
X59370000Y-116190000D03*
D21*
X74610000Y-116190000D03*
%TD*%
D40*
%TO.C,LS1*%
X237500000Y-82525000D03*
D41*
X237500000Y-79985000D03*
%TD*%
D20*
%TO.C,R11*%
X137880000Y-75000000D03*
D21*
X153120000Y-75000000D03*
%TD*%
D23*
%TO.C,C1*%
X219750000Y-74000000D03*
X212250000Y-74000000D03*
%TD*%
D20*
%TO.C,R14*%
X137880000Y-88750000D03*
D21*
X153120000Y-88750000D03*
%TD*%
D37*
%TO.C,C2*%
X165750000Y-118250000D03*
D20*
X163250000Y-118250000D03*
%TD*%
D18*
%TO.C,U2*%
X168340000Y-30380000D03*
D19*
X168340000Y-32920000D03*
X168340000Y-35460000D03*
X168340000Y-38000000D03*
X168340000Y-40540000D03*
X168340000Y-43080000D03*
X168340000Y-45620000D03*
X168340000Y-48160000D03*
X168340000Y-50700000D03*
X168340000Y-53240000D03*
X168340000Y-55780000D03*
X168340000Y-58320000D03*
X168340000Y-60860000D03*
X168340000Y-63400000D03*
X183580000Y-63400000D03*
X183580000Y-60860000D03*
X183580000Y-58320000D03*
X183580000Y-55780000D03*
X183580000Y-53240000D03*
X183580000Y-50700000D03*
X183580000Y-48160000D03*
X183580000Y-45620000D03*
X183580000Y-43080000D03*
X183580000Y-40540000D03*
X183580000Y-38000000D03*
X183580000Y-35460000D03*
X183580000Y-32920000D03*
X183580000Y-30380000D03*
%TD*%
D20*
%TO.C,R13*%
X137880000Y-70500000D03*
D21*
X153120000Y-70500000D03*
%TD*%
D23*
%TO.C,C3*%
X191560000Y-127000000D03*
X199060000Y-127000000D03*
%TD*%
D20*
%TO.C,R2*%
X208722000Y-84262000D03*
D21*
X223962000Y-84262000D03*
%TD*%
D23*
%TO.C,C6*%
X221000000Y-134000000D03*
X213500000Y-134000000D03*
%TD*%
D20*
%TO.C,R1*%
X208760000Y-79690000D03*
D21*
X224000000Y-79690000D03*
%TD*%
D20*
%TO.C,R6*%
X227260000Y-89000000D03*
D21*
X242500000Y-89000000D03*
%TD*%
D37*
%TO.C,D2*%
X96940000Y-109000000D03*
D21*
X104560000Y-109000000D03*
%TD*%
D23*
%TO.C,C5*%
X48000000Y-130490000D03*
X55500000Y-130490000D03*
%TD*%
D20*
%TO.C,R12*%
X137880000Y-84000000D03*
D21*
X153120000Y-84000000D03*
%TD*%
M02*
